<svg xmlns="http://www.w3.org/2000/svg" xmlns:xlink="http://www.w3.org/1999/xlink" viewBox="0 0 655.5 1204.21"><defs><style>.cls-1{fill:none;}.cls-2{isolation:isolate;}.cls-3{fill:#4a4645;}.cls-4{fill:#fff;}.cls-5{fill:#991915;}.cls-6{fill:#f3f2f4;mix-blend-mode:soft-light;}.cls-7{clip-path:url(#clip-path);}.cls-8{fill:#6e6b6b;fill-rule:evenodd;}</style><clipPath id="clip-path" transform="translate(0 -39.95)"><path class="cls-1" d="M522.47,30.81c10,.93,5.58,149.73,4,217.94C525.19,302.15,531,356.64,566,381.92c12.74,72.53,34.47,213.84,34.47,268.19s12.66,145-27.14,199.37c-39.61,54-118.19,156.63-243.45,207.74h0C203,1006.53,122.67,904.38,82.83,850S55.05,704.51,55.05,650.11,76.81,454.45,89.47,381.92C133.49,350.11,10.4,129.22,8,62.69,6.08,8.82,103,.75,111,0Z"/></clipPath></defs><title>sb-logo</title><g class="cls-2"><g id="Layer_1" data-name="Layer 1"><g id="Badge"><path class="cls-3" d="M653.23,643.87c0-64.87-26-233.56-41.17-320.13-95-68.67-261.83-86.4-283.14-88.42v-.2l-1.16.09-1.16-.09v.2c-21.31,2-188.18,19.75-283.2,88.42C28.27,410.31,2.28,579,2.28,643.87s-15.12,173,32.46,238,144.12,187.38,295.48,247.93h0c149.53-61,243.31-183.55,290.55-247.93C668.31,816.91,653.23,708.74,653.23,643.87Z" transform="translate(0 -39.95)"/><path class="cls-4" d="M625,647.49c0-59.17-23.62-213-37.51-292-86.6-62.6-238.79-78.78-258.22-80.62v-.19l-1.05.09-1.06-.09v.19c-19.44,1.84-171.61,18-258.28,80.62-13.76,78.95-37.48,232.82-37.48,292S17.66,805.26,61,864.47s131.43,170.86,269.45,226.1h0c136.4-55.66,221.88-167.42,265-226.1C638.86,805.26,625,706.64,625,647.49Z" transform="translate(0 -39.95)"/><path class="cls-5" d="M600.43,650.11c0-54.35-21.73-195.66-34.47-268.19-79.59-57.57-219.39-72.41-237.21-74.08v-.18l-1,.06-1-.06v.18c-17.87,1.67-157.65,16.51-237.31,74.08C76.81,454.45,55.05,595.76,55.05,650.11s-12.66,145,27.19,199.37,120.75,157,247.6,207.74h0c125.26-51.11,203.84-153.74,243.45-207.74C613.09,795.1,600.43,704.51,600.43,650.11Z" transform="translate(0 -39.95)"/><path class="cls-6" d="M600.46,650.08c0-54.34-21.72-195.67-34.48-268.2-78.62-56.86-215.57-72-236.14-74,0,0-.11,749.27,0,749.34,125.28-51.15,203.84-153.77,243.45-207.76C613.09,795.08,600.46,704.48,600.46,650.08Z" transform="translate(0 -39.95)"/></g><g class="cls-7"><path class="cls-8" d="M101.28,158.35c3.26,8.14,21.17,39.88,26.86,47.21s27.68,38.19,33.38,42.26c0,0,28.88,30.23,34.57,41.3s21.19,31,24.35,37.31l2.85,14.23s14.23,18.36,18,23.74c0,0,15.49,26.54,15.49,39.19,0,0,1.27,38.58,0,54.39s-1.26,48.38-2.53,74.95-9.8,91.38-11.06,107.19l-1.27,15.82,25.3,6.71s-11.38,42.62-13,62.54-4.74,80-2.21,101.19,3.16,61,.63,73.68S240.36,949.39,234,970.57s-19.28,55-23.4,83.17-6.95,61-11.06,81-10.44,27.51-14.55,33.52-1.9,13.28-1.27,17.39-.31,17.71-.31,23.09-.63,31-.63,31,34.47,5.06,49,4.42,17.08-2.84,20.87-10.43,1.58-13.28.63-16.13,13.6-24.35,16.45-29.41-1.27-13.91-1.27-23.4,7-43.32,12.34-61.66c3.11-10.64,3.52-27.46,6.46-45.2,2.13-12.83,6.79-26.15,9.05-38,0,0,30-88.23,37.61-111.63s20.56-45.22,20.56-45.22,2.19,39.53,8.2,63.56c0,0,1.6-.31,4.76,31.31s-3.16,44.27-5.06,67-5.69,62.61-5.69,89.8-5.38,58.19-2.53,84.44,6.33,39.52,11.39,41.42,49.64,1.58,65.14,1,45.53.32,55.65-4.11,20.24-12,19.61-19.61-4.43-16.12-14.87-15.49-37.31,1.58-46.16.63-12.34-5.06-12.34-5.06-5.06-44.58-2.84-64.19,9.17-46.17,13.6-71.47S456.66,967.1,458.87,944s6-89.49,6.64-113.52-2.84-107.2-2.84-107.2S463,711,463,702.74s-7-17.46-8.85-28.77-16.76-58.19-18.66-74,1.27-55,1.9-70.84,3.14-30-2.55-57.86c0,0-6-25-14.84-37.63S407.33,421,407.65,410.55s1.9-14.86,1.9-14.86,16.12-23.4,19.28-32.57,2.22-18.66,9.17-19,11.39-9.49,11.39-15.5S445,314.74,445,314.74s2.22-19,1-28.78S436.74,267.3,432,261.3s-13.92-15.5-20.87-16.76-18-1.58-25.3,0-19.61,8.85-25.3,17.7S346.62,277.42,345,289.12s-.32,20.87-1.9,25.3-4.11,13-2.85,17.07,11.07,8.23,11.07,8.23l-.95,25.93S315,330.86,296.65,317.9s-43-38.26-50.59-45.22-27.83-27.19-40.79-46.48-37.64-50-46.17-58.5-29.41-34.15-38.9-46.48-13.91-20.56-13.59-27.51c0,0,5.69-15.5,4.42-27.2s-3.16-16.44-7.9-20.87-13-7.27-18.35-4.74l-.94,3.79s-6.76-1.49-8.54-.31c-1.28.83-2.21,5.69-2.21,5.69s-7,.09-8.54,1.58-2.22,8.85-2.22,8.85S54.74,63,54.74,65.56s.95,7.59,3.48,10.12,3.48,4.11,3.48,8.86-.32,14.22,2.85,18,7,8.54,15.49,21.19S101.28,158.35,101.28,158.35Z" transform="translate(0 -39.95)"/></g><path class="cls-3" d="M178,469a30,30,0,0,0-11.13-.89,72.07,72.07,0,0,0-9.69,1.53,77.71,77.71,0,0,0-20,7.94,81.73,81.73,0,0,0-17,12.61A67.56,67.56,0,0,0,108,506.18a48.61,48.61,0,0,0-5.84,18q-1,8.76,1.46,15.2a43.16,43.16,0,0,0,6.71,11.73c2.85,3.54,6,7,9.31,10.42a97.85,97.85,0,0,1,9.25,10.89,45.82,45.82,0,0,1,6.56,13.16q2.33,7.37,1.19,17.55Q135,618,127.08,627.62a34.54,34.54,0,0,1-19,12.29q-10.45,2.52-15.3-2.3T89,623.8a27.76,27.76,0,0,1,3.58-11.1,35.36,35.36,0,0,1,6.89-8.58,40,40,0,0,1,8.73-6,42,42,0,0,1,9.28-3.5,13.89,13.89,0,0,0-1.76-7,9.2,9.2,0,0,0-4.13-3.72,12.78,12.78,0,0,0-5.59-1.07,26.92,26.92,0,0,0-5.9.73,38.73,38.73,0,0,0-11.71,5.24,51,51,0,0,0-11.16,9.83,58.51,58.51,0,0,0-13.51,31.45Q62.51,641,65.34,647.69a20.29,20.29,0,0,0,8.61,10,28,28,0,0,0,13.9,3.43A70.14,70.14,0,0,0,105.34,659a96.06,96.06,0,0,0,23.24-9.06,89.89,89.89,0,0,0,20.8-15.48A86.25,86.25,0,0,0,165,613a77.25,77.25,0,0,0,8-27.15Q174.52,573,172,564.66a43.33,43.33,0,0,0-7.17-14.28,53.31,53.31,0,0,0-10.39-10.15,116.64,116.64,0,0,1-10.55-8.74,36.22,36.22,0,0,1-7.63-10.13c-1.91-3.76-2.52-8.57-1.87-14.4q1.2-10.65,7.24-17.28a29.3,29.3,0,0,1,15.18-8.85q9.15-2.2,12.09,1.7c2,2.59,2.72,5.94,2.24,10a35.33,35.33,0,0,1-4,12.37A33.25,33.25,0,0,1,159,515.29c2.25,2.67,5.39,3.53,9.46,2.55q8.27-2,13.82-9.9a38.75,38.75,0,0,0,6.71-18.3c.74-6.48,0-11.27-2.28-14.42A15.58,15.58,0,0,0,178,469Z" transform="translate(0 -39.95)"/><path class="cls-3" d="M389.17,478.09a12.65,12.65,0,0,0-7.78-4.22,26.19,26.19,0,0,0-10.12.6,45.86,45.86,0,0,0-14.79,6.32,66.67,66.67,0,0,0-11.82,10l5.49-18.6-31.34,7.56-26.09,88.71h0A64.13,64.13,0,0,1,284.18,585q-5.13,7-11.45,8.52c-3,.73-5.22.65-6.52-.27s-1.78-3-1.4-6.33a41.53,41.53,0,0,1,1.72-7.79l24.76-84.24L260,502.45,236.58,582a66,66,0,0,1-8.43,16.53q-5,7-11.33,8.5c-2.47.59-4.06.05-4.79-1.61a12.73,12.73,0,0,1-.64-6.53,41.74,41.74,0,0,1,1.41-6.78l24.74-84.25-31.32,7.56L182.83,595a96.55,96.55,0,0,0-3.47,15.8q-1.68,14.91,4.3,20t15.77,2.76a43.78,43.78,0,0,0,7.49-2.62,42.37,42.37,0,0,0,8.42-5.13,63.82,63.82,0,0,0,9.13-8.77,94.36,94.36,0,0,0,9.71-13.73q-.18,10.86,4.73,15.2t14.27,2.09a52.82,52.82,0,0,0,10.16-3.83,50.77,50.77,0,0,0,12.33-8.85,79.12,79.12,0,0,0,8.08-8.94l-22.3,75.8,33.82-16.45,17.82-60.47a9.39,9.39,0,0,0,5.33,4.48c2.62,1,6.7.91,12.21-.42a55.82,55.82,0,0,0,19.06-8.51,76.74,76.74,0,0,0,15.22-13.92A97.12,97.12,0,0,0,376.52,562a157.39,157.39,0,0,0,8.56-19.56A153.85,153.85,0,0,0,390.66,523c1.34-6.31,2.33-12.15,2.92-17.51q1.21-10.65-.05-17.25T389.17,478.09Zm-29,53.5a132,132,0,0,1-7.47,22.06,84.19,84.19,0,0,1-11.35,19Q334.7,580.9,326.21,583c-2.46.59-4.29.46-5.46-.42a5.36,5.36,0,0,1-2.19-3l20.31-69.36A40.39,40.39,0,0,1,347,499.77c3-2.64,5.69-4.27,8.16-4.86a13.37,13.37,0,0,1,3.31-.33,4.27,4.27,0,0,1,3.21,1.64,11.9,11.9,0,0,1,2.16,5.24,35.37,35.37,0,0,1,0,10.48A165.58,165.58,0,0,1,360.16,531.59Z" transform="translate(0 -39.95)"/><path class="cls-3" d="M567,432.56c-2.13-3-5.65-3.93-10.59-2.75q-6.52,1.59-13.92,8a143.88,143.88,0,0,0-14.44,14.54l4.73-15.64-31.33,7.55L478,524.14q-4.53,5.73-9,10.91a93,93,0,0,1-9.55,9.67,64.51,64.51,0,0,1-10.37,7.44,43.94,43.94,0,0,1-11.95,4.74q-7.85,1.89-11.32-1.07t-2.11-15c.16-1.42.37-2.93.61-4.52s.55-3.29.89-5a78.58,78.58,0,0,0,19.26-9.14,90.55,90.55,0,0,0,17.1-14.25,81.05,81.05,0,0,0,12.77-17.93,55.92,55.92,0,0,0,6.23-19.69,33.16,33.16,0,0,0,0-8.28,11.33,11.33,0,0,0-2.89-6.33,11.67,11.67,0,0,0-6.82-3.3c-3-.51-6.86-.2-11.65,1a60.17,60.17,0,0,0-20.28,9,84.25,84.25,0,0,0-16.51,15A117.54,117.54,0,0,0,409.47,496a149.57,149.57,0,0,0-9.34,19.85,173.17,173.17,0,0,0-6.05,19A121.75,121.75,0,0,0,391,550.75q-2.26,20.12,6.05,26.62t23.87,2.77a67,67,0,0,0,20.22-8.56,105.67,105.67,0,0,0,17.44-13.88,137.88,137.88,0,0,0,14.35-16.5L465,568.12l31.34-7.55,27.56-94.14a115.23,115.23,0,0,1,8.82-8.8,19.32,19.32,0,0,1,8.13-4.49c1.6-.39,2.5.17,2.68,1.65s.39,3.1.61,4.81a10.37,10.37,0,0,0,1.72,4.53q1.36,2,5.93.88a19.77,19.77,0,0,0,7-3.2,25.21,25.21,0,0,0,5.35-5.21,26.56,26.56,0,0,0,3.56-6.26,24.39,24.39,0,0,0,1.67-6.39Q570.2,437.08,567,432.56ZM434.38,501.23a141.6,141.6,0,0,1,7.92-16.68,79,79,0,0,1,8.64-12.73c2.92-3.46,5.77-5.53,8.52-6.19,2-.49,3.34,0,4,1.57a14.83,14.83,0,0,1,.4,6.77,48.57,48.57,0,0,1-4.06,14.39,63,63,0,0,1-8.19,13.54,62.12,62.12,0,0,1-11.08,10.91,40.71,40.71,0,0,1-12.5,6.7Q430.7,510.36,434.38,501.23Z" transform="translate(0 -39.95)"/><path class="cls-4" d="M174.11,464.47a30.05,30.05,0,0,0-11.11-.89,73.72,73.72,0,0,0-9.7,1.54,77,77,0,0,0-20.05,7.94,81.62,81.62,0,0,0-17,12.61,67.47,67.47,0,0,0-12.16,15.95,48.37,48.37,0,0,0-5.84,18,32.18,32.18,0,0,0,1.45,15.19,42.94,42.94,0,0,0,6.72,11.73,139.28,139.28,0,0,0,9.3,10.42,96.89,96.89,0,0,1,9.25,10.9A45.5,45.5,0,0,1,131.54,581q2.34,7.38,1.19,17.56-1.68,14.9-9.54,24.52a34.58,34.58,0,0,1-19,12.27q-10.44,2.53-15.29-2.29T85.1,619.24a27.86,27.86,0,0,1,3.58-11.11,35.3,35.3,0,0,1,6.89-8.57,40.32,40.32,0,0,1,8.73-6,42,42,0,0,1,9.28-3.5,13.93,13.93,0,0,0-1.75-6.94,9.2,9.2,0,0,0-4.14-3.73,13.07,13.07,0,0,0-5.59-1.07,27.07,27.07,0,0,0-5.9.74,38.69,38.69,0,0,0-11.71,5.23,51.49,51.49,0,0,0-11.16,9.83,58.31,58.31,0,0,0-8.77,14,57.17,57.17,0,0,0-4.73,17.48q-1.23,10.89,1.61,17.57a20.36,20.36,0,0,0,8.61,10A28.17,28.17,0,0,0,84,656.58a70.74,70.74,0,0,0,17.5-2.14,96,96,0,0,0,23.24-9.07,89.8,89.8,0,0,0,20.79-15.49,85.45,85.45,0,0,0,15.66-21.51,76.87,76.87,0,0,0,8-27.13q1.44-12.78-1.11-21.15a43.09,43.09,0,0,0-7.17-14.27,53.32,53.32,0,0,0-10.38-10.16A113.4,113.4,0,0,1,140,526.92a36.21,36.21,0,0,1-7.64-10.13q-2.85-5.64-1.87-14.4,1.2-10.65,7.24-17.28a29.27,29.27,0,0,1,15.19-8.84Q162,474.07,165,478t2.26,10a35.67,35.67,0,0,1-4,12.37,33.22,33.22,0,0,1-8,10.34q3.35,4,9.44,2.56,8.25-2,13.82-9.89a38.9,38.9,0,0,0,6.72-18.31q1.09-9.69-2.29-14.42A15.61,15.61,0,0,0,174.11,464.47Z" transform="translate(0 -39.95)"/><path class="cls-4" d="M385.27,473.53a12.54,12.54,0,0,0-7.78-4.23,26.19,26.19,0,0,0-10.12.6,45.65,45.65,0,0,0-14.79,6.33,66.26,66.26,0,0,0-11.81,10l5.47-18.6-31.32,7.56-26.1,88.71h0a63.89,63.89,0,0,1-8.53,16.57q-5.13,7-11.44,8.52c-3,.73-5.23.64-6.53-.27s-1.78-3-1.4-6.34a42.7,42.7,0,0,1,1.72-7.79l24.76-84.24-31.34,7.55-23.36,79.55A66.55,66.55,0,0,1,224.25,594q-5,7-11.33,8.48-3.69.9-4.79-1.6a12.69,12.69,0,0,1-.64-6.52,42.61,42.61,0,0,1,1.4-6.79l24.76-84.24-31.34,7.56-23.37,79.53a96.59,96.59,0,0,0-3.48,15.81q-1.69,14.91,4.3,20c4,3.42,9.25,4.34,15.77,2.76a44.65,44.65,0,0,0,7.5-2.61,41.93,41.93,0,0,0,8.41-5.14,63.7,63.7,0,0,0,9.13-8.76,93.21,93.21,0,0,0,9.71-13.74q-.17,10.88,4.73,15.21T249.28,616a54.51,54.51,0,0,0,10.17-3.83,51.2,51.2,0,0,0,12.32-8.85,78.09,78.09,0,0,0,8.08-8.94l-22.3,75.8,33.81-16.45,17.85-60.47a9.26,9.26,0,0,0,5.31,4.47q3.94,1.57,12.22-.41a56.07,56.07,0,0,0,19.05-8.52A76.63,76.63,0,0,0,361,574.92a97.91,97.91,0,0,0,11.63-17.53,158,158,0,0,0,8.55-19.56,151.59,151.59,0,0,0,5.59-19.42c1.33-6.32,2.32-12.15,2.92-17.52q1.2-10.63-.06-17.25T385.27,473.53Zm-29,53.5a132.26,132.26,0,0,1-7.46,22.06,84.86,84.86,0,0,1-11.35,19q-6.65,8.3-15.13,10.33c-2.48.6-4.29.46-5.46-.41a5.4,5.4,0,0,1-2.2-3L335,505.56a40.63,40.63,0,0,1,8.15-10.36q4.46-3.94,8.17-4.85a13.31,13.31,0,0,1,3.31-.34,4.28,4.28,0,0,1,3.2,1.65,11.68,11.68,0,0,1,2.17,5.23,35.17,35.17,0,0,1,0,10.48A159.58,159.58,0,0,1,356.26,527Z" transform="translate(0 -39.95)"/><path class="cls-4" d="M563.12,428q-3.21-4.51-10.59-2.74-6.54,1.58-13.92,8a144,144,0,0,0-14.45,14.54l4.73-15.65-31.33,7.56-23.5,79.91q-4.51,5.73-9,10.91a94.24,94.24,0,0,1-9.56,9.68,66.45,66.45,0,0,1-10.36,7.44,44.14,44.14,0,0,1-12,4.74c-5.23,1.25-9,.9-11.32-1.08s-3-7-2.1-15c.15-1.41.35-2.92.61-4.52s.55-3.28.89-5.05a78.82,78.82,0,0,0,19.25-9.13,90.22,90.22,0,0,0,17.1-14.26,81.19,81.19,0,0,0,12.78-17.93,55.58,55.58,0,0,0,6.22-19.68,33.16,33.16,0,0,0,0-8.28,11.35,11.35,0,0,0-2.88-6.34,11.8,11.8,0,0,0-6.83-3.31c-3-.49-6.86-.18-11.65,1a59.71,59.71,0,0,0-20.27,9,84,84,0,0,0-16.52,15,117.54,117.54,0,0,0-12.9,18.66,151.35,151.35,0,0,0-9.33,19.85,173.07,173.07,0,0,0-6.06,19,120.64,120.64,0,0,0-3.06,15.94q-2.28,20.12,6,26.63T417,575.57A66.27,66.27,0,0,0,437.25,567a106,106,0,0,0,17.44-13.87,139.66,139.66,0,0,0,14.36-16.5l-7.91,26.92L492.46,556,520,461.87a110.28,110.28,0,0,1,8.83-8.81,19.48,19.48,0,0,1,8.12-4.5c1.59-.38,2.48.18,2.67,1.67s.39,3.09.62,4.79a10.27,10.27,0,0,0,1.71,4.55c.91,1.31,2.89,1.61,5.94.87a19.7,19.7,0,0,0,7-3.19,25.21,25.21,0,0,0,5.35-5.21,27,27,0,0,0,3.57-6.27,24.58,24.58,0,0,0,1.67-6.39Q566.31,432.53,563.12,428ZM430.48,496.67A144.23,144.23,0,0,1,438.41,480,80,80,0,0,1,447,467.24c2.93-3.44,5.77-5.51,8.53-6.18,2-.48,3.35,0,3.95,1.58a15,15,0,0,1,.39,6.77,48.57,48.57,0,0,1-4.06,14.39,63.61,63.61,0,0,1-8.19,13.54,62.46,62.46,0,0,1-11.08,10.91,41,41,0,0,1-12.49,6.69Q426.8,505.81,430.48,496.67Z" transform="translate(0 -39.95)"/><path class="cls-3" d="M159.23,681.15,144,731.49l1.2-.28a29.27,29.27,0,0,0,11.59-5.86A59,59,0,0,0,166.89,715a63.69,63.69,0,0,0,7.57-12.72,44.9,44.9,0,0,0,3.79-12.9,22.76,22.76,0,0,0-.44-8.43,13,13,0,0,0-3.71-6.41,14,14,0,0,0-7.48-3.31q-4.78-.79-12,.89a67.7,67.7,0,0,0-18.14,7.38A78.92,78.92,0,0,0,119.18,693a79.89,79.89,0,0,0-13.71,19.1,70.39,70.39,0,0,0-7.34,24.36,38,38,0,0,0-.34,6.3c.08,1.6.2,2.9.35,3.92a8.94,8.94,0,0,0,.65,2.38,6.88,6.88,0,0,1,.56,1.45q-10,2.33-15.16-.79t-3.82-14.18q1.36-11.28,8.61-23a109.26,109.26,0,0,1,18.31-22.07A131.71,131.71,0,0,1,132,672.31a103.23,103.23,0,0,1,27.87-11.12q11-2.57,18.64-1.49a26.37,26.37,0,0,1,12.37,4.6,17.87,17.87,0,0,1,6.47,9.14,29.33,29.33,0,0,1,.94,12.32q-1.19,9.76-7.41,20.27a69,69,0,0,1-16.76,18.87A19.53,19.53,0,0,1,184.48,727a16.32,16.32,0,0,1,6.33,6.33,25.07,25.07,0,0,1,2.84,9.45,50.1,50.1,0,0,1-.13,11.52,115.29,115.29,0,0,1-4.35,19,105.82,105.82,0,0,1-9.68,22.17A86.29,86.29,0,0,1,164,815.25,46.19,46.19,0,0,1,142.17,827a36.66,36.66,0,0,1-6.62.91,14.54,14.54,0,0,1-6.11-.9,8.17,8.17,0,0,1-4.21-3.76c-1-1.8-1.31-4.37-.91-7.69a47.88,47.88,0,0,1,4.12-13.19,16.44,16.44,0,0,0,6.16,4.47,11,11,0,0,0,6.29.22,18.65,18.65,0,0,0,9.66-5.93,47,47,0,0,0,7.35-11,70.32,70.32,0,0,0,4.92-13.37,102.43,102.43,0,0,0,2.59-13.35,57.57,57.57,0,0,0,.38-10.41,19.78,19.78,0,0,0-2-8.07,9.58,9.58,0,0,0-5.2-4.58c-2.29-.87-5.25-.89-8.85-.05-.81.19-2.08.52-3.83,1s-3.57,1.08-5.48,1.81L113.9,830,85,836.68,129,692.4Z" transform="translate(0 -39.95)"/><path class="cls-3" d="M251.31,692.61l-4.45,14.31a130.68,130.68,0,0,1,13.35-13.22Q267,687.9,273,686.5q6.8-1.57,9.7,2.59t2.13,10.46a22.52,22.52,0,0,1-1.58,5.85,24.68,24.68,0,0,1-3.32,5.73,23.15,23.15,0,0,1-4.94,4.73,18.15,18.15,0,0,1-6.47,2.88q-4.2,1-5.43-.85a9.33,9.33,0,0,1-1.54-4.17q-.3-2.36-.54-4.41c-.16-1.36-1-1.88-2.43-1.54a17.8,17.8,0,0,0-7.49,4.06,103.09,103.09,0,0,0-8.16,8L217,806l-28.79,6.7,34.32-113.37Z" transform="translate(0 -39.95)"/><path class="cls-3" d="M380.27,662.6l-23.52,77.13a38.64,38.64,0,0,0-1.64,7.13q-.56,4.56,1.24,5.82c1.19.85,3.19,1,6,.3q5.81-1.35,10.56-7.73a58.87,58.87,0,0,0,7.95-15.13l8.4-2a120.87,120.87,0,0,1-12,23.14A80.69,80.69,0,0,1,365,765.53a43.67,43.67,0,0,1-11.31,7.59,56.67,56.67,0,0,1-9.33,3.22q-8.21,1.9-12.72-1.68T327,762a101.14,101.14,0,0,1-6.09,8.59,66,66,0,0,1-7.49,8.06,53.58,53.58,0,0,1-8.64,6.44,34.48,34.48,0,0,1-10,4,24.55,24.55,0,0,1-9.68.46,14.2,14.2,0,0,1-7.77-4q-3.3-3.24-4.7-9.34t-.22-15.87a111.75,111.75,0,0,1,3.32-16.15,147,147,0,0,1,6.24-17.9,151.73,151.73,0,0,1,9-17.89,100.65,100.65,0,0,1,11.66-16.1,80.06,80.06,0,0,1,14.06-12.54A47.07,47.07,0,0,1,333,672.54a44.8,44.8,0,0,1,5.06-.86,11.84,11.84,0,0,1,4.82.36,7,7,0,0,1,3.58,2.54A9.62,9.62,0,0,1,348,680l3.24-10.66Zm-42.49,21.9q-6.39,1.49-12.37,9.1a91.06,91.06,0,0,0-10.68,17.66,151.29,151.29,0,0,0-8,20.82,111.51,111.51,0,0,0-4.17,18.36q-.77,6.28-.07,9.39a8.77,8.77,0,0,0,2,4.38,3.82,3.82,0,0,0,3,1.21,16.58,16.58,0,0,0,3.06-.39,15.27,15.27,0,0,0,4.84-2.29,29.61,29.61,0,0,0,5.34-4.72,36.89,36.89,0,0,0,4.92-6.94,48.9,48.9,0,0,0,3.81-9L345,690.83a6.06,6.06,0,0,0-.22-2.16,7.63,7.63,0,0,0-1.07-2.38,5,5,0,0,0-2.12-1.72A6,6,0,0,0,337.78,684.5Z" transform="translate(0 -39.95)"/><path class="cls-3" d="M485.23,638.18l-32,105.23a60.78,60.78,0,0,0,16.33-13.71q6.71-8.09,12.61-23.16l8.4-2a114.6,114.6,0,0,1-9.27,19.65A84.47,84.47,0,0,1,471,738a67.49,67.49,0,0,1-10.65,9.32,82.9,82.9,0,0,1-10.06,6l-4.88,16.31A86.05,86.05,0,0,1,436.83,790a66.19,66.19,0,0,1-10.34,13.26,43.11,43.11,0,0,1-11,7.82A52.54,52.54,0,0,1,405,814.93q-9.21,2.13-15.17-1.53t-4.68-14.3a31,31,0,0,1,4.44-12.63,55.67,55.67,0,0,1,8.8-10.89,78.57,78.57,0,0,1,11.3-9.06q6.12-4.07,12-7.32l6-19.31a79.9,79.9,0,0,1-11.73,12.63,35.3,35.3,0,0,1-15.42,7.8,24.32,24.32,0,0,1-9.67.46,14.13,14.13,0,0,1-7.78-4q-3.3-3.24-4.7-9.34t-.22-15.86a99.19,99.19,0,0,1,3.2-15.19,135.84,135.84,0,0,1,6.13-16.91,138.73,138.73,0,0,1,8.86-17,96,96,0,0,1,11.57-15.34,79.41,79.41,0,0,1,14-12,49.38,49.38,0,0,1,16.31-7.06,44.42,44.42,0,0,1,5.06-.86,11.8,11.8,0,0,1,4.81.36,7.27,7.27,0,0,1,3.59,2.43q1.44,1.77,1.57,5.53l3.23-10.65ZM396.48,793.51a6.08,6.08,0,0,0,1.12,4.37c.94,1.33,2.55,1.73,4.81,1.2s4.46-2.58,7-6.26,4.84-8.92,7-15.74l2-6.57q-4,2.4-7.81,5.08a54.83,54.83,0,0,0-6.8,5.59,32.8,32.8,0,0,0-4.9,6A15.38,15.38,0,0,0,396.48,793.51Zm46.27-133.44q-6.4,1.5-12.32,8.67a85.28,85.28,0,0,0-10.54,16.47,132.82,132.82,0,0,0-7.78,19.3,98.27,98.27,0,0,0-4,17.16q-.76,6.3-.07,9.4a8.77,8.77,0,0,0,2,4.38,3.86,3.86,0,0,0,3,1.21,16.67,16.67,0,0,0,3.06-.4q4.4-1,10.48-7.07a38.54,38.54,0,0,0,9.22-16.06L450,666.19a10,10,0,0,0-1.29-4.54Q447.35,659,442.75,660.07Z" transform="translate(0 -39.95)"/><path class="cls-3" d="M586.6,614.59l-23.32,77.09a38.37,38.37,0,0,0-1.64,7.12q-.55,4.56,1.24,5.82t6,.3a13.48,13.48,0,0,0,4.5-1.89q-2.68,6.11-5.08,10.66a50.76,50.76,0,0,1-4.93,7.79,22.88,22.88,0,0,1-5.58,5.2,22.27,22.27,0,0,1-7.06,2.9q-8.19,1.9-12.65-2.22T533.57,714a103.45,103.45,0,0,1-6.09,8.59,66,66,0,0,1-7.49,8.06,53.58,53.58,0,0,1-8.64,6.44,34.48,34.48,0,0,1-10,4,24.5,24.5,0,0,1-9.67.46,14.13,14.13,0,0,1-7.78-4q-3.3-3.24-4.7-9.34T479,712.35a111.6,111.6,0,0,1,3.32-16.16,146.31,146.31,0,0,1,6.24-17.89,151.09,151.09,0,0,1,9-17.9,101.1,101.1,0,0,1,11.66-16.1,80.36,80.36,0,0,1,14.05-12.54,47.38,47.38,0,0,1,16.33-7.28,44.8,44.8,0,0,1,5.06-.86,11.84,11.84,0,0,1,4.82.36,7,7,0,0,1,3.58,2.54,9.62,9.62,0,0,1,1.57,5.43l3.24-10.66Zm-42.28,21.85q-6.41,1.48-12.38,9.1a91.06,91.06,0,0,0-10.68,17.66,151.29,151.29,0,0,0-8,20.82,111.51,111.51,0,0,0-4.17,18.36q-.76,6.29-.07,9.39a8.81,8.81,0,0,0,2,4.39,3.85,3.85,0,0,0,3,1.2,16.58,16.58,0,0,0,3.06-.39,14.84,14.84,0,0,0,4.84-2.29,29.61,29.61,0,0,0,5.34-4.72,36.89,36.89,0,0,0,4.92-6.94,48.9,48.9,0,0,0,3.81-9l15.52-51.24a6.09,6.09,0,0,0-.22-2.17,7.63,7.63,0,0,0-1.07-2.38,5,5,0,0,0-2.12-1.72A6,6,0,0,0,544.32,636.44Z" transform="translate(0 -39.95)"/><path class="cls-4" d="M155.56,677.56l-15.22,50.33,1.2-.28a29.14,29.14,0,0,0,11.59-5.86,59,59,0,0,0,10.09-10.36,63.41,63.41,0,0,0,7.57-12.72,44.84,44.84,0,0,0,3.79-12.89,22.8,22.8,0,0,0-.44-8.44,13,13,0,0,0-3.71-6.41,14,14,0,0,0-7.48-3.31q-4.78-.79-12,.89a67.7,67.7,0,0,0-18.14,7.38,80,80,0,0,0-31,32.62,70.39,70.39,0,0,0-7.34,24.36,38,38,0,0,0-.34,6.3c.08,1.6.2,2.9.35,3.92a8.94,8.94,0,0,0,.65,2.38,6.88,6.88,0,0,1,.56,1.45q-10,2.33-15.16-.79T76.7,732q1.36-11.28,8.61-23a109.26,109.26,0,0,1,18.31-22.07,131.71,131.71,0,0,1,24.74-18.19,103.23,103.23,0,0,1,27.87-11.12q11-2.57,18.64-1.49a26.41,26.41,0,0,1,12.37,4.6,17.87,17.87,0,0,1,6.47,9.14,29.33,29.33,0,0,1,.94,12.32q-1.18,9.76-7.41,20.27a69,69,0,0,1-16.76,18.87,19.53,19.53,0,0,1,10.33,2.12,16.32,16.32,0,0,1,6.33,6.33,25.06,25.06,0,0,1,2.84,9.46,50.58,50.58,0,0,1-.13,11.51,116.33,116.33,0,0,1-4.35,19,105.82,105.82,0,0,1-9.68,22.17,86.29,86.29,0,0,1-15.5,19.73,46.19,46.19,0,0,1-21.82,11.72,36.66,36.66,0,0,1-6.62.91,14.54,14.54,0,0,1-6.11-.9,8.21,8.21,0,0,1-4.21-3.76q-1.52-2.7-.91-7.69a48,48,0,0,1,4.12-13.19,16.37,16.37,0,0,0,6.16,4.47,11.11,11.11,0,0,0,6.29.23,18.73,18.73,0,0,0,9.66-5.94,47.11,47.11,0,0,0,7.35-11,70.57,70.57,0,0,0,4.92-13.37,102.88,102.88,0,0,0,2.59-13.36,57.57,57.57,0,0,0,.38-10.41,19.73,19.73,0,0,0-2-8.06,9.56,9.56,0,0,0-5.2-4.59c-2.29-.87-5.25-.89-8.85-.05-.81.19-2.08.52-3.83,1s-3.57,1.08-5.48,1.8l-26.49,86.89-28.87,6.71,44-144.28Z" transform="translate(0 -39.95)"/><path class="cls-4" d="M247.64,689l-4.45,14.31a130.68,130.68,0,0,1,13.35-13.22q6.82-5.8,12.82-7.2,6.79-1.57,9.7,2.59c1.92,2.79,2.64,6.27,2.13,10.47a22.45,22.45,0,0,1-1.58,5.84,24.68,24.68,0,0,1-3.32,5.73,22.91,22.91,0,0,1-4.94,4.73,18.22,18.22,0,0,1-6.47,2.88q-4.2,1-5.44-.85a9.44,9.44,0,0,1-1.53-4.17q-.3-2.36-.54-4.41c-.16-1.36-1-1.88-2.43-1.54a17.8,17.8,0,0,0-7.49,4.06,103.09,103.09,0,0,0-8.16,8l-26,86.14-28.79,6.7,34.32-113.37Z" transform="translate(0 -39.95)"/><path class="cls-4" d="M376.6,659l-23.52,77.14a38.37,38.37,0,0,0-1.64,7.12q-.56,4.56,1.24,5.82c1.19.85,3.19.95,6,.3q5.8-1.35,10.56-7.73a59.18,59.18,0,0,0,7.95-15.13l8.4-1.95a120.57,120.57,0,0,1-12,23.14,80.33,80.33,0,0,1-12.22,14.22A43.67,43.67,0,0,1,350,769.52a57,57,0,0,1-9.33,3.22q-8.21,1.9-12.72-1.68t-4.59-12.63a101.81,101.81,0,0,1-6.09,8.59,66,66,0,0,1-7.49,8.06,53.58,53.58,0,0,1-8.64,6.44,34.48,34.48,0,0,1-10,4,24.55,24.55,0,0,1-9.68.46,14.14,14.14,0,0,1-7.77-4q-3.3-3.24-4.7-9.34t-.22-15.86a111.6,111.6,0,0,1,3.32-16.16,146.31,146.31,0,0,1,6.24-17.89,151.09,151.09,0,0,1,9-17.9A101.1,101.1,0,0,1,299,688.76,80.36,80.36,0,0,1,313,676.22a47.2,47.2,0,0,1,16.33-7.28,44.8,44.8,0,0,1,5.06-.86,11.84,11.84,0,0,1,4.82.36,6.9,6.9,0,0,1,3.57,2.54,9.54,9.54,0,0,1,1.58,5.43l3.24-10.66Zm-42.49,21.9q-6.39,1.49-12.37,9.1a91.06,91.06,0,0,0-10.68,17.66,151.78,151.78,0,0,0-8,20.82,111.51,111.51,0,0,0-4.17,18.36q-.76,6.28-.07,9.39a8.81,8.81,0,0,0,2,4.39,3.85,3.85,0,0,0,3,1.2,16.7,16.7,0,0,0,3.06-.39,14.84,14.84,0,0,0,4.84-2.29,30,30,0,0,0,5.34-4.72,36.89,36.89,0,0,0,4.92-6.94,48.22,48.22,0,0,0,3.8-9l15.53-51.25a6.06,6.06,0,0,0-.22-2.16,7.63,7.63,0,0,0-1.07-2.38,5,5,0,0,0-2.13-1.72A6,6,0,0,0,334.11,680.9Z" transform="translate(0 -39.95)"/><path class="cls-4" d="M481.56,634.58l-32,105.23a60.93,60.93,0,0,0,16.33-13.7q6.7-8.1,12.61-23.17l8.4-2a115.09,115.09,0,0,1-9.27,19.66,84.37,84.37,0,0,1-10.32,13.78,67.49,67.49,0,0,1-10.65,9.32,82.9,82.9,0,0,1-10.06,6l-4.88,16.32a86.14,86.14,0,0,1-8.59,20.33,66.19,66.19,0,0,1-10.34,13.26,42.94,42.94,0,0,1-11,7.82,51.93,51.93,0,0,1-10.56,3.83q-9.21,2.14-15.17-1.53t-4.68-14.3a30.87,30.87,0,0,1,4.44-12.62,55.44,55.44,0,0,1,8.8-10.9,79.26,79.26,0,0,1,11.3-9.06q6.12-4.06,12-7.31l6-19.32a79.9,79.9,0,0,1-11.73,12.63,35.43,35.43,0,0,1-15.42,7.81,24.74,24.74,0,0,1-9.68.46,14.22,14.22,0,0,1-7.77-4q-3.3-3.24-4.7-9.34T374.46,728a98.83,98.83,0,0,1,3.2-15.18,135.38,135.38,0,0,1,6.13-16.92,138.73,138.73,0,0,1,8.86-17,96.5,96.5,0,0,1,11.57-15.34,79.41,79.41,0,0,1,14-12,49.38,49.38,0,0,1,16.31-7.06,44.42,44.42,0,0,1,5.06-.86,11.8,11.8,0,0,1,4.81.36A7.27,7.27,0,0,1,448,646.4q1.44,1.77,1.57,5.54l3.23-10.66ZM392.81,789.91a6.07,6.07,0,0,0,1.12,4.37c.94,1.33,2.55,1.73,4.81,1.2s4.46-2.58,7-6.26,4.84-8.92,7-15.74l2-6.57q-4,2.4-7.81,5.09a54.78,54.78,0,0,0-6.8,5.58,32.8,32.8,0,0,0-4.9,6A15.43,15.43,0,0,0,392.81,789.91Zm46.27-133.43q-6.4,1.49-12.32,8.66a85.28,85.28,0,0,0-10.54,16.47,132.82,132.82,0,0,0-7.78,19.3,98.48,98.48,0,0,0-4,17.16q-.76,6.3-.07,9.4a8.77,8.77,0,0,0,2,4.38,3.82,3.82,0,0,0,3,1.21,17.74,17.74,0,0,0,3.06-.39c2.93-.69,6.42-3,10.47-7.08a38.44,38.44,0,0,0,9.23-16.06l14.23-46.94a10,10,0,0,0-1.29-4.54C444.12,656.29,442.14,655.76,439.08,656.48Z" transform="translate(0 -39.95)"/><path class="cls-4" d="M582.93,611l-23.32,77.09A38.37,38.37,0,0,0,558,695.2q-.56,4.56,1.24,5.83c1.19.85,3.19.94,6,.29a13.37,13.37,0,0,0,4.5-1.89q-2.69,6.11-5.08,10.66a50.76,50.76,0,0,1-4.93,7.79,23.25,23.25,0,0,1-5.58,5.2,22,22,0,0,1-7.06,2.9q-8.19,1.92-12.65-2.22t-4.5-13.39a100.22,100.22,0,0,1-6.09,8.59,66,66,0,0,1-7.49,8.06,53.58,53.58,0,0,1-8.64,6.44,34.79,34.79,0,0,1-10,4,24.93,24.93,0,0,1-9.68.46,14.22,14.22,0,0,1-7.77-4q-3.3-3.24-4.7-9.34t-.22-15.86a111.87,111.87,0,0,1,3.32-16.16,144.74,144.74,0,0,1,6.25-17.89,149.5,149.5,0,0,1,9-17.9,100.56,100.56,0,0,1,11.66-16.09,80,80,0,0,1,14-12.55,47.17,47.17,0,0,1,16.33-7.27,44.77,44.77,0,0,1,5.06-.87,11.84,11.84,0,0,1,4.82.36,7,7,0,0,1,3.58,2.54,9.62,9.62,0,0,1,1.57,5.43l3.24-10.66Zm-42.29,21.85q-6.39,1.5-12.37,9.1a91.06,91.06,0,0,0-10.68,17.66,153.64,153.64,0,0,0-8,20.82,112.39,112.39,0,0,0-4.16,18.36q-.76,6.29-.07,9.39a8.77,8.77,0,0,0,2,4.39,3.85,3.85,0,0,0,3,1.2,15.87,15.87,0,0,0,3.06-.39,14.84,14.84,0,0,0,4.84-2.29,30,30,0,0,0,5.34-4.72,36.89,36.89,0,0,0,4.92-6.94,48.9,48.9,0,0,0,3.81-9l15.52-51.24a6.09,6.09,0,0,0-.22-2.17,7.63,7.63,0,0,0-1.07-2.38,5,5,0,0,0-2.13-1.72A6,6,0,0,0,540.64,632.84Z" transform="translate(0 -39.95)"/><path class="cls-3" d="M452.92,796.06a7.81,7.81,0,0,1,1.89-4.15,6.85,6.85,0,0,1,3.68-2.4,3.35,3.35,0,0,1,3.32.77,3.92,3.92,0,0,1,1,3.47,7.63,7.63,0,0,1-1.92,4.13,7,7,0,0,1-3.7,2.37,3.34,3.34,0,0,1-3.3-.74A3.92,3.92,0,0,1,452.92,796.06Z" transform="translate(0 -39.95)"/><path class="cls-3" d="M488.73,770a16.34,16.34,0,0,0,1.08-2.65,14,14,0,0,0,.55-2.28c.2-1.65-.28-2.34-1.45-2.07a6.46,6.46,0,0,0-3.35,2.74,32.24,32.24,0,0,0-3.22,5.6,55.26,55.26,0,0,0-2.57,6.74,37.13,37.13,0,0,0-1.43,6.29q-.4,3.43.69,4.29a3.93,3.93,0,0,0,3.35.33,12.86,12.86,0,0,0,3.43-1.32,18.62,18.62,0,0,0,3-2.1,25.38,25.38,0,0,0,2.75-2.74c.89-1,1.79-2.09,2.69-3.22l2.12-.49a60.81,60.81,0,0,1-3.54,5.28,40.64,40.64,0,0,1-4.28,4.87,30.2,30.2,0,0,1-5,3.92,18.78,18.78,0,0,1-5.79,2.4c-2.95.69-5.2.4-6.76-.85s-2.11-3.8-1.65-7.62a35.36,35.36,0,0,1,.91-4.55,44.48,44.48,0,0,1,1.81-5.4,46.87,46.87,0,0,1,2.71-5.65,31.72,31.72,0,0,1,3.69-5.29,24.32,24.32,0,0,1,4.72-4.25,16.85,16.85,0,0,1,5.78-2.52,9.17,9.17,0,0,1,3.33-.29,3.46,3.46,0,0,1,1.95.86,3,3,0,0,1,.86,1.67,6.94,6.94,0,0,1,.05,2.09,10.2,10.2,0,0,1-1.46,4.31,4.34,4.34,0,0,1-2.53,2.13,4.8,4.8,0,0,1-1.19.08A2.8,2.8,0,0,1,488.73,770Z" transform="translate(0 -39.95)"/><path class="cls-3" d="M513.07,753.85q7.84-1.83,6.68,8.74a2.47,2.47,0,0,0,.68-.09,11.79,11.79,0,0,0,2.38-.88,23.45,23.45,0,0,0,2.66-1.51c.89-.58,1.78-1.21,2.65-1.89s1.66-1.35,2.39-2l.34,1.69a25.18,25.18,0,0,1-5.13,4.64,33,33,0,0,1-6.51,3.51,43.23,43.23,0,0,1-2.71,8.9,35.59,35.59,0,0,1-4.08,7.22,24.16,24.16,0,0,1-5,5.14A15.25,15.25,0,0,1,501.8,790a12.74,12.74,0,0,1-3.95.36,5.06,5.06,0,0,1-2.92-1.13,5.52,5.52,0,0,1-1.65-2.83,12.9,12.9,0,0,1-.15-4.75,35.36,35.36,0,0,1,.91-4.55,45.36,45.36,0,0,1,1.84-5.44,48.2,48.2,0,0,1,2.78-5.7,32.2,32.2,0,0,1,3.76-5.3,24.47,24.47,0,0,1,4.78-4.27A17.28,17.28,0,0,1,513.07,753.85Zm-8,29.22a5.22,5.22,0,0,0,2.39-1.57,16.51,16.51,0,0,0,2.47-3.4,36.42,36.42,0,0,0,2.25-4.82,46.81,46.81,0,0,0,1.79-5.8,1.17,1.17,0,0,1-1.21-.73,3.73,3.73,0,0,1-.13-1.71,6.11,6.11,0,0,1,.81-2.45A4.69,4.69,0,0,1,515,761a5.46,5.46,0,0,0-.29-2.78c-.29-.48-.82-.63-1.61-.45a6.5,6.5,0,0,0-3.42,2.73,32.32,32.32,0,0,0-3.2,5.47,52.47,52.47,0,0,0-2.54,6.5,32.21,32.21,0,0,0-1.38,5.86,19.88,19.88,0,0,0-.17,2.7,3.34,3.34,0,0,0,.33,1.53,1.17,1.17,0,0,0,.89.61A3.9,3.9,0,0,0,505.06,783.07Z" transform="translate(0 -39.95)"/><path class="cls-3" d="M556.34,753.16q.42-3.45-1.82-2.92a5.58,5.58,0,0,0-3.15,2.5,20.93,20.93,0,0,0-2.46,4.84l-6.85,22.66-9,2.08L540.45,758a8,8,0,0,0,.4-1.73,4.28,4.28,0,0,0-.16-2q-.3-.81-1.35-.57a5.8,5.8,0,0,0-3.31,2.58,20.91,20.91,0,0,0-2.49,4.88l-6.86,22.65-9,2.09,10.68-35.29,9-2.09-1.11,3.67a15.88,15.88,0,0,1,4.36-4.07,14.36,14.36,0,0,1,3.69-1.54,5.4,5.4,0,0,1,4.05.33c1,.62,1.59,1.94,1.66,4a22.93,22.93,0,0,1,2.67-3.54,19,19,0,0,1,2.51-2.26,11.78,11.78,0,0,1,2.25-1.31,12,12,0,0,1,1.92-.64,5.5,5.5,0,0,1,4.73.63q1.74,1.34,1.26,5.39a29.16,29.16,0,0,1-1,4.6q-.76,2.57-1.62,5.1t-1.57,4.76a19.59,19.59,0,0,0-.9,3.65,2.9,2.9,0,0,0,.28,1.94c.29.43.91.54,1.87.32a5.09,5.09,0,0,0,2.1-.88,11.72,11.72,0,0,1-3,5.85,9.77,9.77,0,0,1-4.65,2.69,5.67,5.67,0,0,1-2.94.06,3,3,0,0,1-1.72-1.27,5.16,5.16,0,0,1-.73-2.22,11.37,11.37,0,0,1,0-2.73,25.1,25.1,0,0,1,.92-4.12q.72-2.43,1.53-4.92c.54-1.66,1.05-3.27,1.53-4.85A24.61,24.61,0,0,0,556.34,753.16Z" transform="translate(0 -39.95)"/><path class="cls-4" d="M451.77,794.94a7.76,7.76,0,0,1,1.9-4.15,6.83,6.83,0,0,1,3.67-2.4,3.37,3.37,0,0,1,3.33.77,3.93,3.93,0,0,1,1,3.48,7.63,7.63,0,0,1-1.92,4.12,7.07,7.07,0,0,1-3.7,2.37,3.34,3.34,0,0,1-3.3-.74A3.92,3.92,0,0,1,451.77,794.94Z" transform="translate(0 -39.95)"/><path class="cls-4" d="M487.59,768.89a18.36,18.36,0,0,0,1.08-2.65,13.75,13.75,0,0,0,.54-2.28q.3-2.48-1.44-2.07a6.43,6.43,0,0,0-3.35,2.74,31.61,31.61,0,0,0-3.22,5.6,53.81,53.81,0,0,0-2.57,6.75,35.9,35.9,0,0,0-1.43,6.28q-.42,3.43.69,4.29a3.92,3.92,0,0,0,3.35.33,12.47,12.47,0,0,0,3.42-1.32,18.7,18.7,0,0,0,3-2.1,26.31,26.31,0,0,0,2.75-2.74c.89-1,1.79-2.09,2.69-3.22l2.12-.49a62.66,62.66,0,0,1-3.55,5.29,39.59,39.59,0,0,1-4.28,4.86,30.31,30.31,0,0,1-5,3.93,19,19,0,0,1-5.79,2.39c-2.95.69-5.2.4-6.76-.85s-2.11-3.8-1.65-7.62a35.36,35.36,0,0,1,.91-4.55,46.15,46.15,0,0,1,1.8-5.4,48.43,48.43,0,0,1,2.71-5.65,32.38,32.38,0,0,1,3.7-5.29,24.32,24.32,0,0,1,4.72-4.25,16.77,16.77,0,0,1,5.78-2.52,9.17,9.17,0,0,1,3.33-.29,3.46,3.46,0,0,1,1.95.86,3,3,0,0,1,.86,1.67,6.94,6.94,0,0,1,.05,2.09,10.2,10.2,0,0,1-1.46,4.31,3.66,3.66,0,0,1-3.72,2.21A2.8,2.8,0,0,1,487.59,768.89Z" transform="translate(0 -39.95)"/><path class="cls-4" d="M511.93,752.73q7.84-1.83,6.68,8.74a2.47,2.47,0,0,0,.68-.09,11.73,11.73,0,0,0,2.37-.88,22.72,22.72,0,0,0,2.67-1.51c.89-.58,1.78-1.21,2.65-1.89s1.66-1.35,2.38-2l.34,1.69a24.67,24.67,0,0,1-5.13,4.64,32.66,32.66,0,0,1-6.5,3.51,43.23,43.23,0,0,1-2.71,8.9,36.56,36.56,0,0,1-4.08,7.22,23.93,23.93,0,0,1-5,5.14,15.32,15.32,0,0,1-5.58,2.68,12.74,12.74,0,0,1-4,.36,5,5,0,0,1-2.92-1.13,5.39,5.39,0,0,1-1.65-2.83,12.48,12.48,0,0,1-.15-4.75,34.92,34.92,0,0,1,.91-4.54,43.23,43.23,0,0,1,1.84-5.45,48.2,48.2,0,0,1,2.78-5.7,32.14,32.14,0,0,1,3.75-5.3,25.05,25.05,0,0,1,4.78-4.27A17.41,17.41,0,0,1,511.93,752.73Zm-8,29.22a5.19,5.19,0,0,0,2.4-1.57,16.89,16.89,0,0,0,2.47-3.4,36.42,36.42,0,0,0,2.25-4.82,46.29,46.29,0,0,0,1.79-5.8,1.17,1.17,0,0,1-1.21-.73,3.73,3.73,0,0,1-.13-1.71,5.82,5.82,0,0,1,.81-2.45,4.6,4.6,0,0,1,1.55-1.58,5.32,5.32,0,0,0-.3-2.78c-.28-.48-.82-.63-1.61-.45a6.48,6.48,0,0,0-3.41,2.73,31.41,31.41,0,0,0-3.2,5.47,52.47,52.47,0,0,0-2.54,6.5,32.21,32.21,0,0,0-1.38,5.86,19.88,19.88,0,0,0-.17,2.7,3.36,3.36,0,0,0,.32,1.53,1.18,1.18,0,0,0,.9.61A3.66,3.66,0,0,0,503.91,782Z" transform="translate(0 -39.95)"/><path class="cls-4" d="M555.2,752q.42-3.45-1.82-2.92a5.58,5.58,0,0,0-3.15,2.5,20.93,20.93,0,0,0-2.46,4.84l-6.86,22.66-9,2.08,7.36-24.35a8.65,8.65,0,0,0,.39-1.73,4.1,4.1,0,0,0-.15-2c-.2-.55-.65-.74-1.35-.58a5.77,5.77,0,0,0-3.31,2.58A20.91,20.91,0,0,0,532.4,760l-6.86,22.65-9,2.09,10.68-35.29,9-2.09-1.11,3.67a16,16,0,0,1,4.37-4.07,14.22,14.22,0,0,1,3.69-1.54,5.37,5.37,0,0,1,4,.33c1,.62,1.59,1.94,1.67,4a22.93,22.93,0,0,1,2.67-3.54,18.37,18.37,0,0,1,2.51-2.26,11.72,11.72,0,0,1,2.24-1.31,12.39,12.39,0,0,1,1.93-.64,5.43,5.43,0,0,1,4.73.64q1.74,1.33,1.25,5.38a28.08,28.08,0,0,1-1,4.6c-.51,1.71-1,3.41-1.61,5.1S560.5,761,560,762.5a20.26,20.26,0,0,0-.89,3.65,2.83,2.83,0,0,0,.28,1.94c.29.44.91.54,1.86.32a5.09,5.09,0,0,0,2.11-.88,11.67,11.67,0,0,1-3,5.85,9.77,9.77,0,0,1-4.65,2.69,5.79,5.79,0,0,1-2.94.07,3.05,3.05,0,0,1-1.72-1.28,5,5,0,0,1-.73-2.22,11.37,11.37,0,0,1,0-2.73,25.1,25.1,0,0,1,.92-4.12q.72-2.43,1.53-4.92t1.52-4.85A23.75,23.75,0,0,0,555.2,752Z" transform="translate(0 -39.95)"/></g></g></svg>