<?xml version="1.0" encoding="iso-8859-1"?>
<!-- Generator: Adobe Illustrator 16.0.0, SVG Export Plug-In . SVG Version: 6.00 Build 0)  -->
<!DOCTYPE svg PUBLIC "-//W3C//DTD SVG 1.1//EN" "http://www.w3.org/Graphics/SVG/1.1/DTD/svg11.dtd">
<svg version="1.1" id="Capa_1" xmlns="http://www.w3.org/2000/svg" xmlns:xlink="http://www.w3.org/1999/xlink" x="0px" y="0px"
	 width="391.758px" height="391.758px" viewBox="0 0 391.758 391.758" style="enable-background:new 0 0 391.758 391.758;"
	 xml:space="preserve">
<g>
	<path d="M264.564,225.057c-4.901,0-9.168,3.063-11.44,7.596v-0.69c0-9.494-6.735-17.189-15.048-17.189
		c-5.723,0-10.698,3.652-13.243,9.027c-2.545-5.375-7.519-9.027-13.243-9.027c-4.582,0-8.681,2.35-11.439,6.042v-53.316
		c0-9.494-6.736-17.19-15.046-17.19c-8.312,0-15.05,7.696-15.05,17.19v104.997l-7.008-14.611c-2.734-5.702-7.888-8.938-13.205-8.938
		c-2.444,0-4.927,0.688-7.221,2.12c-7.286,4.568-9.957,15.014-5.96,23.334l34.69,72.321c0.023,0.083,3.724,5.928,5.587,8.722
		c5.091,7.707,11.847,13.592,20.749,13.592h52.242c15.361,0,27.822-14.754,27.822-32.948v-95.964
		C277.75,231.8,271.846,225.057,264.564,225.057z"/>
	<path d="M368.16,22.724H23.6C10.586,22.724,0,33.313,0,46.32l0.001,229.647c0,13.016,10.585,23.597,23.6,23.597h102.222
		c0,0,6.422,0,4.963-4.644c-1.022-3.254-5.678-11.905-5.885-12.31c-1.905-3.719-6.909-3.327-6.909-3.327H42.968
		c-3.148,0-5.724-2.523-5.724-5.601V48.6c0-3.078,2.575-5.6,5.724-5.6h296.319c3.148,0,5.725,2.522,5.725,5.6v225.086
		c0,3.078-2.576,5.601-5.725,5.601h-39.41c0,0-7.953-0.809-7.953,6.004c0,2.067,0,6.205,0,8.272c0,6.003,8.447,6.003,8.447,6.003
		h67.789c13.01,0,23.598-10.581,23.598-23.598V46.32C391.758,33.313,381.17,22.724,368.16,22.724z M363.438,172.44
		c-6.352,0-11.5-5.149-11.5-11.5c0-6.352,5.148-11.5,11.5-11.5c6.35,0,11.5,5.148,11.5,11.5
		C374.938,167.292,369.787,172.44,363.438,172.44z"/>
</g>
<g>
</g>
<g>
</g>
<g>
</g>
<g>
</g>
<g>
</g>
<g>
</g>
<g>
</g>
<g>
</g>
<g>
</g>
<g>
</g>
<g>
</g>
<g>
</g>
<g>
</g>
<g>
</g>
<g>
</g>
</svg>
