<svg xmlns="http://www.w3.org/2000/svg" xmlns:xlink="http://www.w3.org/1999/xlink" viewBox="0 0 56.72 94.62"><defs><style>.cls-1{fill:none;}.cls-2{isolation:isolate;}.cls-11,.cls-3,.cls-9{fill:#4a4645;}.cls-10,.cls-12,.cls-4{fill:#fff;}.cls-5{fill:#991915;}.cls-6{fill:#f3f2f4;mix-blend-mode:soft-light;}.cls-7{clip-path:url(#clip-path);}.cls-8{fill:#6e6b6b;}.cls-10,.cls-9{font-size:18.9px;}.cls-10,.cls-11,.cls-12,.cls-9{font-family:LobsterTwo-BoldItalic, Lobster Two;font-weight:700;font-style:italic;}.cls-11,.cls-12{font-size:5.88px;}</style><clipPath id="clip-path" transform="translate(-12.71 -4.26)"><path class="cls-1" d="M57.92,3.88C58.79,4,90.13,8.61,90,14.51c-.06,2.4-2.93,36.63-10.57,40.84-7.09,3.91-19.06-22.14-17.6-21.08,1.1,6.27,3,18.5,3,23.2s.91,12.46-2.5,17.19C58.47,80,51.67,88.35,41.25,92.6h0c-11-4.38-18-13.27-21.29-17.87s-2.35-12.55-2.35-17.26,1.88-16.93,3-23.2c2.1-1.51-.18,18.17-7.36,15-5.89-2.62-16.76-28-16.86-30.62C-3.8,14,21.62,1.28,22.31,1.21Z"/></clipPath></defs><title>sb-logo</title><g class="cls-2"><g id="Layer_1" data-name="Layer 1"><g id="Badge"><path class="cls-3" d="M69.24,56.84c0-5.62-2.25-20.21-3.57-27.71-8.22-5.94-22.65-7.47-24.5-7.65H41c-1.84.18-16.28,1.71-24.5,7.65-1.31,7.5-3.56,22.09-3.56,27.71s-1.31,15,2.81,20.59S28.19,93.64,41.29,98.88h0C54.23,93.6,62.34,83,66.43,77.43S69.24,62.45,69.24,56.84Z" transform="translate(-12.71 -4.26)"/><path class="cls-4" d="M66.8,57.15c0-5.12-2-18.44-3.25-25.27-7.49-5.41-20.66-6.81-22.34-7v0H41v0c-1.69.16-14.85,1.56-22.35,7C17.49,38.71,15.43,52,15.43,57.15S14.24,70.8,18,75.92,29.37,90.71,41.31,95.49h0C53.11,90.67,60.51,81,64.24,75.92S66.8,62.27,66.8,57.15Z" transform="translate(-12.71 -4.26)"/><path class="cls-5" d="M64.67,57.38c0-4.71-1.88-16.94-3-23.21-6.89-5-19-6.27-20.53-6.41v0H41v0c-1.55.14-13.64,1.43-20.54,6.41-1.09,6.27-3,18.5-3,23.21s-1.1,12.54,2.35,17.25,10.45,13.59,21.42,18h0c10.84-4.42,17.64-13.3,21.07-18S64.67,62.08,64.67,57.38Z" transform="translate(-12.71 -4.26)"/><path class="cls-6" d="M64.67,57.37c0-4.7-1.88-16.93-3-23.2C54.88,29.25,43,27.93,41.25,27.76c0,0,0,64.84,0,64.84,10.84-4.42,17.64-13.3,21.07-18S64.67,62.08,64.67,57.37Z" transform="translate(-12.71 -4.26)"/></g><g class="cls-7"><path class="cls-8" d="M59.49,75.73c-.09-1.07-1.38-.93-2.53-1.54A5.22,5.22,0,0,1,56,73a27.71,27.71,0,0,1-2.58-7.37c-.45-2.86-1.38-3.89-2.34-6.22A24.76,24.76,0,0,1,50.4,57c-.35-1-.18-1.95-.59-3a13.77,13.77,0,0,0-.09-3.9c.17-1.76-.89-2.77-2.19-4-.84-.76-1.77-1.78-2.53-2.46-.32-1.16.73-.86.76-2.78a5,5,0,0,0,1.65-1.87c.76.08.13-.65.61-1.16s.79-1.67,0-1.49c.66-1.78,1.06-3.42.31-5.29-.51-1.52-.85-2.22-2.58-2.57-3.05-1.32-5.65,1.36-6.5,4-.23.75.06,1.15,0,1.88-.93,0-.77,1-.78,1.81.27.79.3,1.17.09,1s-.58-1.76-1.59-2c0-.6-.06-.63-.48-1.06a4.78,4.78,0,0,0-.82-1.54c-.35-.57.06-2.63-.63-5.08a9.54,9.54,0,0,0-1.44-3c-.23-.32-.05-.74-.1-1.49-.19-3-1.91-7.35-2.55-9.25a27.75,27.75,0,0,1-.8-3.64,3.56,3.56,0,0,1,0-1c.06-.17.26-.25.41-.39.32-.4.64-.81,1-1.2.49-1-.2-1-.24-1.91s-.29-1.45-1.17-1.18c-.32-.51-.91-.38-1.34,0-.54-.25-.73-.23-1.1.31-.63-.14-.78.14-1.09.71-.67.87-.13,2.48.17,3.75a2.48,2.48,0,0,1,.27.84s.22,3.05.42,4.55c.5,3.44.36,6.53,2.1,11a3.21,3.21,0,0,1,.14,1.09c0,.73,0,1.41,0,2.08a49.35,49.35,0,0,0,.36,5.86c-.2,1.19.15,1.28.36,2.92,0,1.32.4,2.65.4,3.77s-.34,1.9-.42,3.11a18.16,18.16,0,0,0-.73,6A9.34,9.34,0,0,0,29,54.14c-1.7,2.21-1.26,5.27-1.81,7.87,0,1.77.66.92,1.46,1.87a16.53,16.53,0,0,1,1,1.78,7.27,7.27,0,0,1-.2,2.35c-1.2,1-1,1.07-.67,2.64a2.26,2.26,0,0,0,0,1.31c0,.17-.05.35-.07.52-.23.84-.24,1,0,1.62l-.11.19A6.15,6.15,0,0,0,28,78.17,61,61,0,0,0,27.1,85c-.17,1-.06,1.08.58,1.93.07,1,.08,2,.07,3s.05,2.14,0,3.19a33.13,33.13,0,0,0,5.17,1.53c0-1.83,1-3,1.42-5.15.39-1.4.57-3.67,1.41-4.81,1.06.11,2.09.49,2.52-.77l.38-1.72c.33-1,.38-2.68.69-2.89.14-.09.21.35.6.93,1,1.41,1.68,1.63,3.27,2.37.85.49.81,1.75,1.61,1l.84,1.5c.76,1.21,1.8,3.43,2.64,4.73.62,1,1.09,1,1.4,1.94A10.24,10.24,0,0,1,50,93.86a33.53,33.53,0,0,0,5.53-2.29l-.31-.87a11.36,11.36,0,0,0-1-3.29,25.93,25.93,0,0,0-1.06-4.14c.43-.46-.23-1.63-.59-2.66a61.76,61.76,0,0,0-2.23-5.83c.39-.4.15-1.06-.27-1.71-.31-.39-.61-.74-.92-1.06l-.22-.54c.1-1.13-.85-.61-1.16-2.39l-.16-1c.12-1.19-.31-1.18-.73-1.53.17-.76-.28-1.33-.54-2.15a9.06,9.06,0,0,0,0-.93h-.15v-.35c-.13-1.53-.24-3-.51-4.55.36,1,1.33,2.58,1.42,3.53.15,1.65,1.33,3.67,2.72,5.55,1.1,1.5,2.36,3.56,3.23,4.82,1.08,1.73.27,2.06,1.31,3.38h0c.45.75.18,1.29.91,2.12a1.45,1.45,0,0,0,.64.49.82.82,0,0,0,1.22.18c.31,0,.6,0,.92-.31.63,0,.7-.09.87-.32.69.58,1.24,0,.88-.81C60.21,76.56,59.91,76.3,59.49,75.73Z" transform="translate(-12.71 -4.26)"/></g><path class="cls-3" d="M28.12,41.71a2.61,2.61,0,0,0-1-.08,6.35,6.35,0,0,0-.83.13,6.87,6.87,0,0,0-1.74.69,7.1,7.1,0,0,0-1.47,1.09,5.73,5.73,0,0,0-1.05,1.38,4.15,4.15,0,0,0-.51,1.56,2.76,2.76,0,0,0,.13,1.31,3.69,3.69,0,0,0,.58,1c.25.3.51.6.8.9a8,8,0,0,1,.8.94,3.59,3.59,0,0,1,.57,1.14,3.54,3.54,0,0,1,.1,1.52,3.92,3.92,0,0,1-.82,2.12,3,3,0,0,1-1.64,1.06,1.32,1.32,0,0,1-1.32-.2,1.39,1.39,0,0,1-.34-1.19,2.47,2.47,0,0,1,.31-1,3,3,0,0,1,.6-.74,3.15,3.15,0,0,1,.75-.52,4.07,4.07,0,0,1,.81-.31,1.26,1.26,0,0,0-.15-.6.84.84,0,0,0-.36-.32,1,1,0,0,0-.49-.09,2.22,2.22,0,0,0-.51.06,3.53,3.53,0,0,0-1,.45,4.51,4.51,0,0,0-1,.85,5.07,5.07,0,0,0-.76,1.21,4.74,4.74,0,0,0-.41,1.52,3,3,0,0,0,.14,1.52,1.74,1.74,0,0,0,.74.86,2.37,2.37,0,0,0,1.2.3,6,6,0,0,0,1.52-.18,8.47,8.47,0,0,0,2-.79A7.81,7.81,0,0,0,25.64,56,7,7,0,0,0,27,54.16a6.7,6.7,0,0,0,.7-2.35,4.59,4.59,0,0,0-.1-1.83A3.56,3.56,0,0,0,27,48.75a4.17,4.17,0,0,0-.9-.88,11.8,11.8,0,0,1-.91-.76,3.33,3.33,0,0,1-.66-.88A2.19,2.19,0,0,1,24.34,45a2.6,2.6,0,0,1,.63-1.5,2.45,2.45,0,0,1,1.31-.76c.53-.13.87-.08,1,.14a1.19,1.19,0,0,1,.2.87,3.19,3.19,0,0,1-.35,1.07,2.81,2.81,0,0,1-.7.9.77.77,0,0,0,.82.22,2,2,0,0,0,1.2-.86,3.35,3.35,0,0,0,.58-1.58,1.79,1.79,0,0,0-.2-1.25A1.33,1.33,0,0,0,28.12,41.71Z" transform="translate(-12.71 -4.26)"/><path class="cls-3" d="M46.39,42.49a1.11,1.11,0,0,0-.68-.36,2,2,0,0,0-.87,0,3.86,3.86,0,0,0-1.28.54,5.33,5.33,0,0,0-1,.87L43,42l-2.71.65L38,50.31h0a5.5,5.5,0,0,1-.74,1.43,1.72,1.72,0,0,1-1,.74.72.72,0,0,1-.56,0c-.12-.08-.16-.26-.12-.55a3,3,0,0,1,.15-.67L37.92,44l-2.71.65-2,6.88a5.48,5.48,0,0,1-.73,1.43,1.75,1.75,0,0,1-1,.74c-.21.05-.35,0-.41-.14a1.23,1.23,0,0,1-.06-.57,2.94,2.94,0,0,1,.13-.58l2.14-7.29-2.71.65-2,6.88a8.25,8.25,0,0,0-.3,1.37c-.09.86,0,1.44.37,1.73a1.45,1.45,0,0,0,1.37.24,4.16,4.16,0,0,0,.65-.22,4,4,0,0,0,.73-.45,5.48,5.48,0,0,0,.79-.76A8.46,8.46,0,0,0,33,53.33a1.63,1.63,0,0,0,.41,1.31,1.31,1.31,0,0,0,1.23.18,4.72,4.72,0,0,0,.88-.33,4.42,4.42,0,0,0,1.07-.77,6.78,6.78,0,0,0,.7-.77l-1.93,6.56,2.92-1.42,1.54-5.24a.82.82,0,0,0,.47.39,1.88,1.88,0,0,0,1,0A5.13,5.13,0,0,0,43,52.47a6.62,6.62,0,0,0,1.32-1.21,8.42,8.42,0,0,0,1-1.51,14.23,14.23,0,0,0,1.23-3.38c.11-.54.2-1,.25-1.51a4.84,4.84,0,0,0,0-1.49A1.79,1.79,0,0,0,46.39,42.49Zm-2.51,4.63A11.62,11.62,0,0,1,43.23,49a7.35,7.35,0,0,1-1,1.64,2.34,2.34,0,0,1-1.31.89.55.55,0,0,1-.47,0,.46.46,0,0,1-.19-.26l1.76-6a3.25,3.25,0,0,1,.7-.89,1.69,1.69,0,0,1,.71-.42,1.27,1.27,0,0,1,.28,0,.37.37,0,0,1,.28.14,1,1,0,0,1,.19.45,3.38,3.38,0,0,1,0,.91A15.25,15.25,0,0,1,43.88,47.12Z" transform="translate(-12.71 -4.26)"/><path class="cls-3" d="M61.78,38.55a.81.81,0,0,0-.92-.24,2.88,2.88,0,0,0-1.2.69,11.46,11.46,0,0,0-1.25,1.26l.4-1.35-2.71.65-2,6.92c-.26.33-.52.64-.78.94a8.18,8.18,0,0,1-.82.84,6.73,6.73,0,0,1-.9.64,3.83,3.83,0,0,1-1,.41,1.08,1.08,0,0,1-1-.09c-.2-.17-.27-.61-.19-1.3,0-.13,0-.26.06-.39s0-.29.07-.44a6.86,6.86,0,0,0,1.67-.79,7.61,7.61,0,0,0,1.48-1.24,6.72,6.72,0,0,0,1.1-1.55,4.62,4.62,0,0,0,.54-1.7,2.89,2.89,0,0,0,0-.72,1,1,0,0,0-.25-.55,1,1,0,0,0-.59-.28,2.68,2.68,0,0,0-1,.08,5.42,5.42,0,0,0-1.75.78,7.4,7.4,0,0,0-1.43,1.31A10.75,10.75,0,0,0,48.14,44a12,12,0,0,0-.8,1.72,14.09,14.09,0,0,0-.53,1.64,9.89,9.89,0,0,0-.26,1.38c-.13,1.16,0,1.93.52,2.3a2.34,2.34,0,0,0,2.07.24,5.88,5.88,0,0,0,1.75-.74,9,9,0,0,0,1.5-1.2A12.19,12.19,0,0,0,53.64,48L53,50.28l2.71-.65,2.39-8.15c.28-.3.53-.56.76-.76a1.77,1.77,0,0,1,.7-.39c.14,0,.22,0,.24.14s0,.27,0,.42a.84.84,0,0,0,.15.39c.08.12.25.14.51.08a1.79,1.79,0,0,0,.61-.28,2.18,2.18,0,0,0,.46-.45,2.43,2.43,0,0,0,.31-.54,2.06,2.06,0,0,0,.15-.55A1.44,1.44,0,0,0,61.78,38.55ZM50.3,44.49A11.34,11.34,0,0,1,51,43.05a6.77,6.77,0,0,1,.74-1.1,1.55,1.55,0,0,1,.74-.54c.18,0,.29,0,.34.14a1.27,1.27,0,0,1,0,.58,4.61,4.61,0,0,1-.35,1.25,5.56,5.56,0,0,1-1.67,2.12,3.53,3.53,0,0,1-1.08.57C49.9,45.55,50.09,45,50.3,44.49Z" transform="translate(-12.71 -4.26)"/><path class="cls-4" d="M27.78,41.31a2.8,2.8,0,0,0-1-.08,6.07,6.07,0,0,0-.84.14,6.32,6.32,0,0,0-1.74.69,7,7,0,0,0-1.47,1.09,5.86,5.86,0,0,0-1.05,1.38,4.08,4.08,0,0,0-.5,1.55,2.79,2.79,0,0,0,.12,1.32,3.74,3.74,0,0,0,.58,1,11.34,11.34,0,0,0,.81.9,9.13,9.13,0,0,1,.8.95,3.85,3.85,0,0,1,.56,1.13,3.7,3.7,0,0,1,.11,1.52A4,4,0,0,1,23.37,55a3,3,0,0,1-1.64,1.06,1.35,1.35,0,0,1-1.32-.2,1.38,1.38,0,0,1-.33-1.2,2.41,2.41,0,0,1,.31-1A3.05,3.05,0,0,1,21,53a3.53,3.53,0,0,1,.76-.52,3.42,3.42,0,0,1,.8-.3,1.26,1.26,0,0,0-.15-.6.82.82,0,0,0-.36-.33,1.24,1.24,0,0,0-.48-.09,2.09,2.09,0,0,0-.51.07,3.22,3.22,0,0,0-1,.45,4.48,4.48,0,0,0-1,.85,4.88,4.88,0,0,0-.76,1.21,5,5,0,0,0-.41,1.51A3,3,0,0,0,18,56.77a1.73,1.73,0,0,0,.74.87,2.55,2.55,0,0,0,1.21.3,6.43,6.43,0,0,0,1.51-.19,8,8,0,0,0,2-.78,7.88,7.88,0,0,0,1.8-1.34,7.55,7.55,0,0,0,1.36-1.87,6.78,6.78,0,0,0,.69-2.34,4.81,4.81,0,0,0-.09-1.83,3.89,3.89,0,0,0-.62-1.24,5,5,0,0,0-.9-.88,8.8,8.8,0,0,1-.92-.75,3.33,3.33,0,0,1-.66-.88A2.22,2.22,0,0,1,24,44.59a2.5,2.5,0,0,1,1.94-2.26c.53-.12.88-.08,1,.15a1.16,1.16,0,0,1,.19.87,3,3,0,0,1-.35,1.07,2.75,2.75,0,0,1-.69.89.72.72,0,0,0,.81.22,2,2,0,0,0,1.2-.85,3.43,3.43,0,0,0,.58-1.59,1.77,1.77,0,0,0-.2-1.24A1.36,1.36,0,0,0,27.78,41.31Z" transform="translate(-12.71 -4.26)"/><path class="cls-4" d="M46.05,42.1a1.05,1.05,0,0,0-.67-.37,2.44,2.44,0,0,0-.88.05,4.1,4.1,0,0,0-1.28.55,6,6,0,0,0-1,.86l.47-1.61L40,42.24,37.7,49.91h0A5.4,5.4,0,0,1,37,51.35a1.83,1.83,0,0,1-1,.74.73.73,0,0,1-.57,0c-.11-.08-.15-.26-.12-.55a3.15,3.15,0,0,1,.15-.67l2.14-7.29-2.71.65-2,6.89a5.81,5.81,0,0,1-.73,1.43,1.76,1.76,0,0,1-1,.73c-.22,0-.35,0-.42-.14a1.08,1.08,0,0,1,0-.56,3.86,3.86,0,0,1,.12-.59l2.14-7.29-2.71.66-2,6.88a8,8,0,0,0-.3,1.37c-.1.86,0,1.43.37,1.73a1.48,1.48,0,0,0,1.36.24,4.26,4.26,0,0,0,.65-.23,3.93,3.93,0,0,0,.73-.44,6.11,6.11,0,0,0,.79-.76,8.62,8.62,0,0,0,.84-1.19,1.67,1.67,0,0,0,.41,1.32,1.31,1.31,0,0,0,1.23.18,4.58,4.58,0,0,0,.88-.34,4.35,4.35,0,0,0,1.07-.76,7.77,7.77,0,0,0,.7-.77L35,59.11l2.92-1.42,1.55-5.23a.83.83,0,0,0,.46.39,1.94,1.94,0,0,0,1.06,0,4.78,4.78,0,0,0,1.64-.74A6.29,6.29,0,0,0,44,50.87a8.54,8.54,0,0,0,1-1.52,15.74,15.74,0,0,0,.74-1.69A14.26,14.26,0,0,0,46.18,46a14.09,14.09,0,0,0,.25-1.52,5.24,5.24,0,0,0,0-1.49A1.85,1.85,0,0,0,46.05,42.1Zm-2.51,4.63a10.65,10.65,0,0,1-.65,1.9,7.13,7.13,0,0,1-1,1.64,2.41,2.41,0,0,1-1.31.9.55.55,0,0,1-.47,0,.48.48,0,0,1-.19-.26l1.76-6a3.7,3.7,0,0,1,.7-.9,1.75,1.75,0,0,1,.71-.42,1.29,1.29,0,0,1,.29,0,.4.4,0,0,1,.28.14,1,1,0,0,1,.18.46,2.66,2.66,0,0,1,0,.9A13.37,13.37,0,0,1,43.54,46.73Z" transform="translate(-12.71 -4.26)"/><path class="cls-4" d="M61.44,38.16a.79.79,0,0,0-.92-.24,3,3,0,0,0-1.2.69,13.4,13.4,0,0,0-1.25,1.25l.41-1.35-2.71.66-2,6.91c-.26.33-.52.65-.77.94a9.44,9.44,0,0,1-.83.84,6.22,6.22,0,0,1-.9.65,4.26,4.26,0,0,1-1,.41,1.13,1.13,0,0,1-1-.1c-.2-.17-.26-.6-.18-1.3,0-.12,0-.25.05-.39s0-.28.08-.44a6.61,6.61,0,0,0,1.66-.79,7.62,7.62,0,0,0,1.48-1.23,7.32,7.32,0,0,0,1.11-1.55A5,5,0,0,0,54,41.41a3.37,3.37,0,0,0,0-.71,1.12,1.12,0,0,0-.25-.55,1.06,1.06,0,0,0-.6-.29,2.67,2.67,0,0,0-1,.09,5.07,5.07,0,0,0-1.76.78A7.65,7.65,0,0,0,48.92,42a10.47,10.47,0,0,0-1.11,1.61A13.62,13.62,0,0,0,46.48,47a9.2,9.2,0,0,0-.27,1.38c-.13,1.16,0,1.93.52,2.31a2.4,2.4,0,0,0,2.07.24,6,6,0,0,0,1.75-.74A9.65,9.65,0,0,0,52.06,49a12,12,0,0,0,1.24-1.42l-.68,2.33,2.71-.66,2.38-8.14a9.28,9.28,0,0,1,.77-.77,1.52,1.52,0,0,1,.7-.38c.14,0,.21,0,.23.14s0,.27.05.41a.92.92,0,0,0,.15.4c.08.11.25.14.51.07a1.61,1.61,0,0,0,.61-.27,2,2,0,0,0,.46-.45,2,2,0,0,0,.31-.55,2,2,0,0,0,.15-.55A1.42,1.42,0,0,0,61.44,38.16ZM50,44.1a11.5,11.5,0,0,1,.69-1.45,6.58,6.58,0,0,1,.75-1.1,1.4,1.4,0,0,1,.73-.53c.18-.05.29,0,.35.13a1.34,1.34,0,0,1,0,.59A4.21,4.21,0,0,1,52.16,43a5.61,5.61,0,0,1-.71,1.18,5.68,5.68,0,0,1-1,.94,3.56,3.56,0,0,1-1.08.58C49.57,45.15,49.75,44.62,50,44.1Z" transform="translate(-12.71 -4.26)"/><text class="cls-9" transform="matrix(0.92, -0.21, -0.12, 0.99, 4.87, 69.84)">Braga</text><text class="cls-10" transform="matrix(0.92, -0.21, -0.12, 0.99, 4.55, 69.53)">Braga</text><text class="cls-11" transform="matrix(0.92, -0.21, -0.12, 0.99, 39.18, 66.17)">.com</text><text class="cls-12" transform="matrix(0.92, -0.21, -0.12, 0.99, 39.09, 66.07)">.com</text></g></g></svg>