<?xml version="1.0" encoding="UTF-8" standalone="no"?>
<svg
   xmlns:dc="http://purl.org/dc/elements/1.1/"
   xmlns:cc="http://creativecommons.org/ns#"
   xmlns:rdf="http://www.w3.org/1999/02/22-rdf-syntax-ns#"
   xmlns:svg="http://www.w3.org/2000/svg"
   xmlns="http://www.w3.org/2000/svg"
   viewBox="0 0 538.75 625"
   height="625"
   width="538.75"
   xml:space="preserve"
   version="2"
   id="svg2"><metadata
     id="metadata8"><rdf:RDF><cc:Work
         rdf:about=""><dc:format>image/svg+xml</dc:format><dc:type
           rdf:resource="http://purl.org/dc/dcmitype/StillImage" /></cc:Work></rdf:RDF></metadata><defs
     id="defs6"><clipPath
       id="clipPath16"
       clipPathUnits="userSpaceOnUse"><path
         id="path18"
         d="M 0,500 431,500 431,0 0,0 0,500 Z" /></clipPath><clipPath
       id="clipPath40"
       clipPathUnits="userSpaceOnUse"><path
         id="path42"
         d="m 124.427,500 c -2.306,-23.485 13.405,-136.47 -19.078,-159.947 l 0,0 C 99.596,307.095 89.706,242.876 89.706,218.177 l 0,0 c 0,-24.719 -4.45,-65.904 13.933,-90.414 l 0,0 c 20.819,-27.76 57.094,-72.405 111.336,-93.992 l 0,0 c 56.92,23.226 93.033,69.093 111.032,93.635 l 0,0 c 18.088,24.712 11.538,66.052 11.538,90.771 l 0,0 c 0,21.01 -7.145,70.62 -12.843,105.256 l 0,0 c 1.617,-3.992 3.53,-8.356 5.565,-12.719 l 0,0 c 8.873,-19.027 20.061,-38.054 19.18,-26.264 l 0,0 c -2.055,27.533 19.338,98.739 8.379,150.857 l 0,0 c -8.031,38.196 -48.959,64.342 -51.3,64.562 l 0,0 -5.38,0.131 -176.719,0 z" /> </clipPath><clipPath
       id="clipPath52"
       clipPathUnits="userSpaceOnUse"><path
         id="path54"
         d="m 74.596,500 c -3.837,-3.733 -6.254,-8.438 -6.041,-14.36 l 0,0 c 1.087,-30.235 57.021,-130.614 37.019,-145.071 l 0,0 C 99.82,307.611 89.93,243.392 89.93,218.693 l 0,0 c 0,-24.72 -6.599,-63.448 11.633,-88.068 l 0,0 c 18.174,-24.54 55.765,-73.822 113.412,-96.854 l 0,0 c 56.92,23.226 93.319,69.521 111.318,94.063 l 0,0 c 18.088,24.712 11.477,66.139 11.477,90.859 l 0,0 c 0,24.699 -9.873,88.918 -15.665,121.876 l 0,0 c -15.881,11.487 -18.527,36.251 -17.957,60.516 l 0,0 c 0.713,30.308 2.649,95.63 -1.512,98.915 l 0,0 -228.04,0 z" /></clipPath><clipPath
       id="clipPath64"
       clipPathUnits="userSpaceOnUse"><path
         id="path66"
         d="M 94.066,500 C 67.832,480.409 22.881,444.526 0,419.018 l 0,0 0,-74.413 C 22.478,272.264 65.393,154.419 83.375,207.73 l 0,0 c 1.762,5.223 4.164,13.599 6.802,23.672 l 0,0 c -0.36,-4.91 -0.56,-9.223 -0.56,-12.737 l 0,0 c 0,-24.72 -4.551,-65.94 13.778,-90.49 l 0,0 c 17.987,-24.094 52.903,-70.098 111.58,-94.404 l 0,0 c 56.92,23.226 93.59,69.862 111.589,94.404 l 0,0 c 18.088,24.712 10.893,65.77 10.893,90.49 l 0,0 c 0,24.698 -9.873,88.917 -15.666,121.875 l 0,0 c -15.88,11.487 -19.214,36.28 -18.643,60.545 l 0,0 c 0.714,30.308 2.649,95.63 -1.512,98.915 l 0,0 -207.57,0 z" /></clipPath><clipPath
       id="clipPath76"
       clipPathUnits="userSpaceOnUse"><path
         id="path78"
         d="M 85.526,500 C 59.9,486.623 23.147,466.002 0,448.285 l 0,0 0,-82.506 C 19.553,322.788 48.009,270.271 66.8,261.888 l 0,0 c 12.155,-5.422 21.633,1.661 28.529,13.481 l 0,0 C 92.212,252.52 89.82,230.813 89.82,218.665 l 0,0 c 0,-24.72 -5.149,-64.831 12.96,-89.542 l 0,0 C 120.883,104.405 157.37,57.29 214.975,33.771 l 0,0 c 56.92,23.226 93.105,69.307 111.104,93.849 l 0,0 c 18.087,24.711 11.58,66.325 11.58,91.045 l 0,0 c 0,23.18 -8.696,81.171 -14.553,115.459 l 0,0 c 3.769,-9.996 13.307,-29.962 25.415,-49.927 l 0,0 c 19.764,-32.59 46.378,-65.182 65.931,-54.403 l 0,0 c 6.08,3.353 11.583,10.318 16.548,19.777 l 0,0 0,221.713 C 384.675,487.521 312.345,498.675 302.558,500 l 0,0 -217.032,0 z" /></clipPath><clipPath
       id="clipPath88"
       clipPathUnits="userSpaceOnUse"><path
         id="path90"
         d="M 87.254,500 C 61.3,486.487 23.372,465.257 0,447.189 l 0,0 0,-80.15 C 19.57,323.738 48.546,269.898 67.593,261.401 l 0,0 c 12.154,-5.422 21.632,1.661 28.528,13.481 l 0,0 c -3.116,-22.849 -5.508,-44.556 -5.508,-56.705 l 0,0 c 0,-24.719 -5.319,-65.284 12.782,-90.002 l 0,0 c 17.487,-23.879 54.19,-71.101 111.58,-94.404 l 0,0 c 54.712,22.331 90.785,66.017 110.889,93.635 l 0,0 c 18.024,24.759 12.589,66.052 12.589,90.771 l 0,0 c 0,23.181 -8.697,81.172 -14.554,115.46 l 0,0 c 3.769,-9.996 13.306,-29.962 25.413,-49.926 l 0,0 c 19.765,-32.592 46.38,-65.183 65.933,-54.404 l 0,0 c 5.757,3.174 10.999,9.595 15.755,18.297 l 0,0 0,223.47 c -48.811,16.941 -125.579,28.278 -128.661,28.566 l 0,0 -4.809,0.36 -210.276,0 z" /></clipPath><clipPath
       id="clipPath100"
       clipPathUnits="userSpaceOnUse"><path
         id="path102"
         d="m 173.04,500 c -5.884,-4.017 -11.858,-9.623 -18.356,-16.585 l 0,0 c -9.334,-10 -12.213,-59.522 -11.334,-84 l 0,0 c 1.087,-30.234 -34.666,-39.333 -37.607,-58.766 l 0,0 C 100.737,307.569 90.1,243.472 90.1,218.773 l 0,0 c 0,-24.72 -5.125,-64.326 12.621,-89.3 l 0,0 c 16.168,-22.75 54.607,-72.67 112.254,-95.702 l 0,0 c 56.92,23.226 93.127,69.221 111.125,93.763 l 0,0 c 18.088,24.712 11.84,66.519 11.84,91.239 l 0,0 c 0,24.699 -9.873,88.917 -15.665,121.876 l 0,0 c -15.881,11.486 -58.162,43.835 -57.591,68.1 l 0,0 c 0.73,30.996 -25.334,75.333 -34,81.999 l 0,0 c -4.873,3.749 -9.404,6.821 -13.66,9.252 l 0,0 -43.984,0 z" /></clipPath><clipPath
       id="clipPath112"
       clipPathUnits="userSpaceOnUse"><path
         id="path114"
         d="M 0,500 431,500 431,0 0,0 0,500 Z" /></clipPath></defs><g
     transform="matrix(1.25,0,0,-1.25,0,625)"
     id="g10"><g
       id="g12"><g
         clip-path="url(#clipPath16)"
         id="g14"><g
           transform="translate(361.7652,221.6968)"
           id="g20"><path
             id="path22"
             style="fill:#514d4c;fill-opacity:1;fill-rule:nonzero;stroke:none"
             d="m 0,0 c 0,29.482 -11.792,106.141 -18.711,145.482 -43.172,31.205 -117.867,39.262 -127.552,40.181 l -0.526,0.046 -0.529,-0.046 c -9.682,-0.919 -86.629,-8.976 -129.809,-40.181 -6.879,-39.341 -18.686,-116 -18.686,-145.482 0,-29.479 -6.872,-78.635 14.747,-108.133 21.619,-29.462 65.493,-85.15 134.277,-112.666 67.953,27.721 110.567,83.413 132.035,112.666 C 6.854,-78.635 0,-29.479 0,0" /></g><g
           transform="translate(336.6128,121.3609)"
           id="g24"><path
             id="path26"
             style="fill:#ffffff;fill-opacity:1;fill-rule:nonzero;stroke:none"
             d="M 0,0 C -19.598,-26.667 -59.651,-77.714 -121.637,-103.007 -184.358,-77.903 -223.156,-26.876 -242.874,0 c -19.715,26.907 -13.451,71.725 -13.451,98.603 0,26.889 10.777,96.814 17.033,132.691 39.385,28.449 108.34,35.803 117.175,36.637 l 0.48,0.045 0.478,-0.045 c 8.827,-0.834 78.185,-8.188 117.539,-36.637 C 2.691,195.417 13.427,125.492 13.427,98.603 13.427,71.725 19.706,26.907 0,0" /></g><g
           transform="translate(91.0596,218.773)"
           id="g28"><path
             id="path30"
             style="fill:#9a2926;fill-opacity:1;fill-rule:nonzero;stroke:none"
             d="m 0,0 c 0,24.696 9.865,88.917 15.665,121.876 35.727,25.84 98.904,32.821 108.25,33.717 0,0 0.049,-340.564 10e-4,-340.595 -56.931,23.241 -93.582,69.87 -111.581,94.404 C -5.753,-65.886 0,-24.719 0,0" /></g><g
           transform="translate(338.899,218.773)"
           id="g32"><path
             id="path34"
             style="fill:#b62a2a;fill-opacity:1;fill-rule:nonzero;stroke:none"
             d="m 0,0 c 0,24.696 -9.865,88.917 -15.665,121.876 -35.727,25.84 -98.904,32.821 -108.25,33.717 0,0 -0.049,-340.564 0,-340.595 56.931,23.241 93.581,69.87 111.58,94.404 C 5.753,-65.886 0,-24.719 0,0" /></g></g></g><g
       id="g36"><g
         clip-path="url(#clipPath40)"
         id="g38"><g
           transform="translate(335.0415,358.77)"
           id="g44"><path
             id="sb2"
             style="fill:#716e6e;fill-opacity:0;fill-rule:nonzero;stroke:none"
             d="m 0,0 c -0.806,0.243 -1.746,-1.187 -2.755,-2.344 -1.01,-1.158 -2.961,-3.263 -4.001,-4.208 -1.043,-0.947 -2.272,-1.716 -2.569,-1.994 -0.291,-0.295 -0.761,-0.295 -0.967,-0.22 -0.203,0.073 -0.513,0.52 -0.321,1.34 0.176,0.822 1.335,2.391 2.375,4.283 1.025,1.882 0.996,2.146 1.76,4.01 0.777,1.868 1.581,3.675 2.435,6.266 0.832,2.591 -1.059,3.046 -1.733,3.168 C -6.452,10.42 -6.713,9.769 -7.474,8.53 -8.238,7.299 -8.91,5.316 -9.747,3.775 c -0.836,-1.542 -2.391,-3.43 -2.83,-4.17 -0.457,-0.749 -1.337,-2.757 -1.703,-2.661 -0.352,0.088 -0.012,0.367 0.03,0.783 0.045,0.411 1.102,1.937 1.584,3.14 0.498,1.213 1.816,3.914 2.697,5.819 0.88,1.905 0.969,2.368 1.671,4.027 0.689,1.664 0.631,2.615 -0.278,3.494 -0.91,0.881 -2.082,0.162 -2.858,-0.754 -0.777,-0.924 -0.997,-2.001 -1.686,-3.141 -0.69,-1.133 -1.305,-1.966 -1.819,-2.911 -0.511,-0.943 -1.319,-2.123 -1.657,-2.873 -0.338,-0.754 -2.36,-5.062 -2.476,-5.209 -0.118,-0.146 -0.397,-0.278 -0.688,0.331 -0.309,0.615 0.173,1.297 0.558,2.41 0.364,1.119 0.685,2.661 1.009,3.783 0.322,1.122 0.47,3.103 0.731,4.127 0.266,1.022 0.883,3.531 0.5,4.41 -0.383,0.879 -2.067,0.736 -2.873,0.084 -0.808,-0.656 -1.628,-3.567 -2.216,-5.187 -0.57,-1.617 -1.994,-6.196 -2.49,-7.987 -0.482,-1.789 -1.628,-4.185 -2.33,-5.43 -0.704,-1.24 -2.92,-3.425 -3.975,-3.901 -1.039,-0.47 -1.596,-0.257 -2.683,0.381 -1.099,0.638 -0.865,0.77 -1.48,2.039 -0.603,1.268 -1.247,3.225 -1.465,4.09 -0.236,0.857 -0.706,1.854 -1.63,3.577 -0.939,1.723 -3.534,2.932 -4.37,3.016 -0.836,0.084 -1.449,-0.849 -1.507,-1.422 -0.06,-0.57 0.541,-1.315 1.085,-2.261 0.528,-0.946 0.937,-2.566 1.626,-5.103 0.69,-2.535 1.26,-6.214 1.348,-7.433 0.089,-1.215 0.954,-2.93 1.982,-4.713 1.027,-1.787 1.86,-5.966 1.817,-6.956 -0.027,-0.429 -0.215,-0.985 -0.461,-1.558 -0.326,-0.756 -0.766,-1.546 -1.184,-2.159 -0.73,-1.084 -2.694,-3.247 -2.694,-3.247 0,0 -0.266,-0.132 -0.545,-0.257 -0.276,-0.132 -2.696,-3.716 -2.696,-3.716 0,0 0,-0.529 -0.381,-0.747 -0.396,-0.221 -4.105,-4.782 -5.719,-6.613 -1.222,-1.402 -4.208,-4.065 -7.259,-6.338 -0.932,-0.695 -1.87,-1.358 -2.769,-1.931 -3.809,-2.441 -7.418,-5.329 -7.418,-5.329 0,0 -0.719,0.645 -1.072,0.842 -0.351,0.191 -0.614,0.161 -1.158,-0.043 -0.54,-0.205 -0.937,-1.533 -1.419,-2.163 -0.486,-0.629 -1.467,-1.428 -1.776,-1.343 -0.307,0.083 -1.537,0.265 -2.609,0.111 -1.071,-0.153 -1.379,-0.125 -1.804,-0.132 -0.411,-0.014 -1.1,0.477 -1.83,0.969 -0.736,0.498 -1.673,0.593 -1.923,0.725 -0.25,0.132 -1.186,0.278 -1.758,0.338 -0.574,0.059 -1.186,0.593 -2.523,1.406 -1.333,0.822 -1.376,0.455 -2.008,0.418 -0.631,-0.043 -1.498,0.309 -2.037,0.579 -0.558,0.264 -0.719,0.748 -1.087,1.84 -0.35,1.087 -0.278,1.342 -0.907,2.398 -0.631,1.062 -1.994,0.997 -2.544,1.262 -0.551,0.263 -0.756,0.857 -1.319,2.491 -0.574,1.634 -1.401,3.716 -2.075,4.888 -0.675,1.167 -2.721,3.213 -3.622,4.144 -0.902,0.93 -2.769,1.597 -3.269,1.963 -0.485,0.367 -2.817,1.652 -4.486,2.346 -1.657,0.688 -2.244,0.594 -2.919,0.66 -0.671,0.073 -2.784,0.446 -2.784,0.446 0,0 -0.85,0.456 -2.046,1.101 -1.195,0.645 -1.972,0.674 -1.972,0.674 0,0 -0.192,0.279 -0.291,0.762 -0.108,0.474 -0.293,1.162 -0.64,2.256 -0.007,0.025 -0.013,0.043 -0.021,0.068 -0.158,0.51 -0.436,0.968 -0.699,1.331 -0.317,0.445 -0.606,0.745 -0.606,0.745 l 1.966,4.946 0.782,0.441 c 0.784,0.447 0.607,0.359 2.119,2.31 1.509,1.941 2.536,3.731 3.799,5.754 1.245,2.022 2.168,2.823 2.902,4.793 0.718,1.973 1.269,5.806 1.269,5.806 l 0.151,-0.015 c 0.161,-0.021 0.997,0.471 1.512,1.419 0.52,0.942 0.064,0.622 0.321,2.12 0.267,1.493 1.1,2.562 1.886,4.059 0.784,1.496 1.118,2.248 1.633,5.239 0.512,2.993 0.5,3.888 -0.404,4.295 -0.901,0.408 -2.462,-1.013 -2.462,-1.013 l 0.096,0.413 c 0.088,0.409 0.147,1.505 0.19,1.871 0.037,0.363 0.101,0.513 0.219,1.131 0.119,0.618 -0.03,0.739 -0.034,1.211 0,0.474 -0.084,0.797 -0.03,1.262 0.052,0.468 0.191,1.345 0.225,1.708 0.038,0.366 0.087,1.36 0.059,1.622 -0.021,0.268 -0.3,1.662 -0.454,2.2 -0.16,0.543 0.043,1.517 -0.007,1.994 -0.058,0.481 -0.316,4.179 -0.347,4.394 -0.028,0.211 -0.329,0.873 -0.539,1.317 -0.221,0.441 -0.279,0.341 -0.619,0.637 -0.336,0.297 -0.392,0.829 -0.657,1.276 -0.271,0.447 -0.213,0.495 -0.618,1.217 -0.393,0.722 -0.558,0.684 -0.709,1.228 -0.152,0.543 -0.697,0.964 -0.87,1.298 -0.17,0.329 -0.618,0.585 -0.973,1.198 -0.364,0.616 -0.525,0.579 -0.657,0.75 -0.147,0.174 -0.25,0.658 -0.446,0.833 -0.194,0.176 -0.463,0.048 -0.934,0.148 -0.451,0.098 -1.933,0.615 -2.221,0.852 -0.284,0.243 -1.083,0.69 -1.377,0.928 -0.284,0.241 -1.547,0.738 -1.89,0.982 -0.345,0.245 -1.283,0.34 -1.739,0.44 -0.461,0.1 -1.127,0.272 -1.628,0.533 -0.497,0.264 -1.803,0.395 -2.323,0.395 -0.52,0 -1.325,-0.127 -1.897,-0.121 -0.572,0.006 -1.255,0.074 -1.496,0.256 -0.248,0.184 -1.167,-0.091 -1.585,-0.098 -0.425,-0.013 -1.297,-0.345 -1.676,-0.463 -0.375,-0.118 -1.079,-0.257 -1.402,-0.329 -0.322,-0.073 -2.271,-0.187 -2.654,-0.309 -0.38,-0.118 -1.259,-0.554 -1.751,-0.709 -0.493,-0.163 -1.869,-0.863 -2.308,-0.976 -0.427,-0.114 -0.94,-0.48 -1.467,-0.584 -0.542,-0.105 -1.276,-1.081 -1.555,-1.26 -0.279,-0.184 -1.276,-0.659 -1.81,-0.813 -0.543,-0.155 -0.915,-0.745 -1.151,-0.932 -0.221,-0.186 -0.836,-1.019 -1.061,-1.206 -0.229,-0.186 -0.389,-0.747 -0.523,-0.946 -0.124,-0.196 -0.192,-0.872 -0.263,-1.073 -0.072,-0.203 -0.747,-1.184 -0.926,-1.323 -0.168,-0.139 -0.461,-0.948 -0.482,-1.157 -0.014,-0.21 -0.872,-2.379 -0.872,-2.379 0,0 -0.052,-1.047 -0.082,-1.254 -0.013,-0.206 -0.452,-0.951 -0.527,-1.101 -0.056,-0.15 -0.527,-1.047 -0.527,-1.047 0,0 0.293,-1.29 0.217,-1.44 -0.055,-0.15 -0.312,-1.072 -0.378,-1.222 -0.074,-0.15 -0.222,-0.604 -0.314,-1.019 -0.097,-0.407 -0.305,-1.436 -0.305,-1.436 l -0.35,-0.806 -0.175,-0.767 c 0,0 0.117,-0.854 0.191,-1.175 0.074,-0.324 0.013,-0.895 -0.008,-1.104 -0.022,-0.205 -0.079,-0.828 -0.079,-0.828 l -0.213,-1.031 c 0,0 -1.313,0.554 -1.885,0.613 -0.571,0.059 -0.763,-0.345 -1.554,-1.944 -0.797,-1.598 -0.469,-2.993 -0.469,-4.097 -0.016,-1.099 0.991,-2.096 1.687,-3.533 0.688,-1.432 1.716,-4.79 1.948,-6.023 0.25,-1.235 1.833,-1.604 2.516,-1.674 0.673,-0.07 0.77,0.341 0.77,0.341 0,0 0,-0.523 0.087,-1.215 0.086,-0.691 0.133,-3.37 -0.082,-6.448 -0.211,-3.072 -2.426,-9.883 -2.63,-10.337 -0.205,-0.454 -1.321,-1.172 -2.017,-1.261 -0.695,-0.088 -1.399,0.139 -1.994,-0.008 -0.592,-0.153 -3.217,-0.196 -4.58,-0.637 -1.358,-0.44 -2.155,-0.095 -2.752,0.33 -0.582,0.433 -0.108,1.43 -0.194,2.127 -0.088,0.687 0.439,1.209 0.791,1.597 0.35,0.381 0.837,1.538 1.026,2.36 0.182,0.822 1.09,1.467 1.73,2.604 0.645,1.141 0.645,1.618 0.718,2.396 0.078,0.777 0.463,4.522 0.484,4.779 0.03,0.265 0.44,1.165 0.541,1.73 0.118,0.564 -0.05,1.004 -0.328,1.345 -0.279,0.345 -0.344,1.242 -0.301,2.235 0.051,0.994 -0.309,1.081 -0.418,1.566 -0.111,0.484 -0.403,1.195 -0.609,1.795 -0.191,0.599 -0.616,1.06 -1.201,1.591 -0.573,0.532 -1.438,1.826 -1.438,1.826 0,0 0.175,0.718 0.205,0.979 0.031,0.256 0.102,1.038 0.131,1.245 0.018,0.209 0.018,1.206 -0.161,1.593 -0.168,0.383 0.229,1.182 0.322,1.591 0.096,0.413 0.03,0.787 -0.204,1.073 -0.236,0.285 -0.461,0.621 -0.688,0.959 -0.227,0.342 -0.191,1.176 -0.706,2.382 -0.504,1.206 -0.279,0.818 -0.468,1.101 -0.175,0.278 -0.411,0.618 -0.411,0.618 l -0.915,1.247 c 0,0 0.461,2.946 1.173,6.393 0.718,3.441 1.868,9.095 1.767,15.25 -0.109,6.154 1.349,15.295 2.242,19.455 0.897,4.163 4.192,12.331 4.319,12.529 0.123,0.197 0.959,0.688 1.824,0.863 0.851,0.177 2.083,0.368 2.998,1.111 0.915,0.749 3.292,2.398 5.094,3.104 1.803,0.707 4.033,2.057 5.361,3.182 1.327,1.126 2.807,3.284 4.572,5.205 1.765,1.917 2.955,2.691 4.128,3.988 1.186,1.297 4.034,3.476 4.678,4.616 0.645,1.143 -0.204,2.696 -1.423,3.557 -1.233,0.858 -3.255,0.066 -4.992,-0.543 -1.744,-0.611 -4.251,-3.084 -4.875,-4.015 -0.618,-0.934 -3.151,-3.095 -3.773,-3.608 -0.633,-0.512 -2.691,-0.67 -3.148,-0.414 -0.44,0.252 -0.279,0.815 -0.262,1.547 0.029,0.736 0.497,2.786 0.519,5.039 0.021,2.258 0.597,7.345 0.786,8.219 0.19,0.871 0.659,2.868 0.938,4.573 0.279,1.704 1.127,7.495 1.306,9.211 0.174,1.715 0.483,6.825 0.304,7.686 -0.173,0.858 -1.529,1.939 -2.805,1.807 -1.269,-0.133 -1.826,-1.39 -2.252,-3.024 -0.423,-1.638 -0.922,-4.949 -1.656,-7.499 -0.731,-2.546 -1.606,-5.501 -1.864,-7.526 -0.261,-2.019 -1.626,-5.279 -1.626,-5.279 0,0 -0.922,25.384 -1.64,26.037 -0.718,0.652 -1.043,0.916 -2.083,1.129 -1.026,0.205 -1.846,-0.129 -2.391,-0.388 -0.447,-0.209 -0.636,-20.073 -1.158,-24.55 -0.118,-1.122 -0.945,-1.887 -1.054,-1.876 -0.513,0.049 -3.021,21.107 -4.222,21.228 -1.189,0.122 -2.346,0 -3.367,-1.694 -0.709,-1.175 1.081,-20.541 1.081,-20.541 0,0 -0.117,0.383 -0.368,0.983 -0.257,0.602 -0.777,2.228 -1.762,4.957 -0.979,2.723 -1.718,6.856 -2.154,8.319 -0.422,1.458 -1.53,2.466 -2.243,2.643 -0.718,0.18 -1.288,-0.737 -1.978,-1.823 -0.69,-1.085 -0.439,-1.978 -0.235,-3.048 0.207,-1.07 0.938,-5.051 1.407,-6.568 0.476,-1.517 0.887,-5.858 0.866,-6.063 0,0 0.015,-0.897 -0.029,-3.881 -0.04,-2.991 -1.349,-7.056 -1.919,-9.098 -0.575,-2.041 -0.647,-5.813 -0.647,-7.337 0.007,-1.522 -0.133,-3.866 -0.381,-6.414 -0.266,-2.548 -2.155,-11.807 -3.139,-15.324 -0.988,-3.523 -4.435,-14.144 -6.032,-20.069 -1.605,-5.927 -3.474,-17.071 -3.474,-17.071 l -0.507,-0.372 c 0,0 -0.629,-0.512 -0.908,-0.641 -0.279,-0.131 -0.638,-0.618 -0.822,-0.913 -0.191,-0.295 -0.361,-0.384 -0.704,-0.665 -0.345,-0.279 -0.322,-0.595 -0.586,-1.149 -0.263,-0.548 -0.293,-0.859 -0.761,-1.235 -0.456,-0.369 -0.536,-2.726 -0.659,-4.97 -0.127,-2.247 1.12,-4.471 1.12,-4.471 0,0 -1.23,-1.243 -2.016,-2.262 -0.789,-1.022 -1.334,-2.228 -2.183,-4.449 -0.858,-2.221 -1.101,-5.139 -1.108,-6.711 0,-1.576 -0.843,-4.743 -0.959,-5.836 -0.109,-1.092 0.731,-3.122 0.659,-3.849 -0.075,-0.725 -0.383,-3.738 -0.059,-6.186 0.338,-2.449 -0.654,-2.821 -1.124,-5.394 -0.313,-1.699 -0.543,-3.225 -0.629,-4.806 -0.047,-0.819 -0.064,-1.65 -0.007,-2.532 0.146,-2.587 0.286,-5.909 0.593,-8.042 0.02,-0.147 0.018,-0.335 0.031,-0.49 0.187,-2.125 -0.161,-5.105 0.536,-7.912 0.731,-3.018 2.154,-7.206 2.717,-8.832 0.565,-1.635 0.258,-5.226 0.608,-6.89 0.361,-1.658 0.661,-6.415 1.158,-9.774 0.5,-3.355 2.647,-16.808 3.43,-22.025 0.78,-5.229 0.427,-12.799 0.347,-14.105 -0.081,-1.306 0.123,-5.945 0.836,-10.372 0.702,-4.436 -0.829,-9.685 -1.093,-11.81 -0.279,-2.117 -0.629,-6.078 -0.754,-8.373 -0.125,-2.294 -0.067,-9.916 0.094,-10.93 0.161,-1.01 0.41,-7.284 0.997,-10.811 0.588,-3.519 -1.006,-6.299 -1.51,-9.134 -0.496,-2.836 -3.144,-7.242 -3.754,-8.489 -0.588,-1.251 0.149,-2.8 0.354,-3.819 0.213,-1.018 1.749,-3.43 2.659,-4.781 0.916,-1.356 2.542,-2.886 2.632,-3.047 0.089,-0.17 0.228,-0.866 0.604,-2.324 0.379,-1.453 -0.193,-3.967 -0.911,-6.892 -0.719,-2.918 -1.222,-5.807 -2.016,-8.45 -0.8,-2.648 -1.694,-11.428 -1.751,-14.575 -0.054,-3.146 1.947,-4.084 2.996,-5.66 1.05,-1.576 3.519,-5.13 4.376,-7.06 0.851,-1.919 1.167,-9.675 1.176,-11.138 0.003,-1.475 2.006,-6.036 2.387,-8.492 0.382,-2.449 0.207,-19.173 0.279,-22.49 0.089,-3.32 0.118,-12.818 0.734,-16.559 0.613,-3.737 3.131,-15.648 3.465,-16.462 0.332,-0.831 0.545,-3.415 -0.05,-6.663 -0.586,-3.248 -1.39,-16.29 -1.378,-16.613 0.031,-0.315 0.44,-3.982 0.22,-5.585 -0.072,-0.547 -0.075,-1.608 -0.037,-3.586 11.512,-2.573 23.414,-3.833 35.694,-4.074 0.199,1.833 0.354,2.155 0.424,2.675 0.191,1.399 1.217,4.176 1.424,6.261 0.218,2.08 -1.108,2.997 -2.143,5.672 -1.04,2.685 -1.127,5.001 -1.356,5.815 -0.232,0.805 -0.536,2.52 -0.511,5.816 0.022,3.308 -0.186,5.382 0.131,7.971 0.312,2.595 1.838,13.986 2.046,17.014 0.205,3.019 0.43,5.259 1.148,9.223 0.728,3.963 2.039,9.19 2.543,11.554 0.5,2.363 0.089,6.604 -0.086,8.404 -0.193,1.807 0.183,3.394 0.783,6.696 0.596,3.297 1.606,5.971 2.151,7.703 0.54,1.731 0.204,3.08 0.818,3.446 0.619,0.36 0.83,-1.672 1.307,-3.189 0.477,-1.517 1.685,-5.103 2.594,-7.03 0.901,-1.927 2.124,-2.793 2.691,-3.954 0.563,-1.157 3.05,-10.281 4.626,-15.426 1.569,-5.157 4.617,-13.915 6.346,-17.031 1.732,-3.114 4.825,-6.737 5.139,-8.871 0.303,-2.123 1.194,-8.255 2.009,-12.168 0.812,-3.913 4.18,-7.462 4.538,-8.496 0.372,-1.035 0.22,-7.74 0.629,-8.823 0.411,-1.094 1.1,-3.581 1.087,-5.366 -0.029,-1.774 0.3,-2.456 0.98,-3.94 0.052,-0.107 0.056,-0.207 0.095,-0.31 8.577,1.629 23.286,5.746 35.465,11.063 -0.458,1.74 -1.875,5.993 -2.102,7.736 -0.234,1.811 0.175,2.246 0.733,4.073 0.557,1.834 -0.279,5.543 -0.558,6.888 -0.293,1.34 -1.904,3.914 -1.672,6.363 0.25,2.439 -0.512,5.767 -0.997,9.182 -0.497,3.404 -2.198,13.975 -2.226,16.237 -0.047,2.26 -0.601,6.041 -1.069,10.131 -0.486,4.09 -2.92,14.736 -3.888,19.19 -0.955,4.451 -2.419,13.214 -3.518,16.841 -1.115,3.627 -1.1,6.305 -1.231,7.527 -0.147,1.224 -2.77,6.846 -2.992,7.236 -0.217,0.387 -1.072,1.416 -1.406,3.233 -0.338,1.823 -0.663,5.371 -0.954,6.084 -0.291,0.71 -0.263,1.555 -0.997,3.143 -0.731,1.601 -0.806,1.821 -0.659,2.751 0.146,0.93 -1.614,3.252 -1.569,3.621 0.029,0.365 0.191,0.921 0.535,1.731 0.344,0.805 0.426,0.534 0.741,0.606 0.321,0.075 1.569,0.368 2.594,0.682 1.028,0.315 1.467,-0.044 1.789,0.031 0.322,0.074 0.439,0.263 1.377,2.273 0.955,1.999 -0.643,4.47 -1.025,5.349 -0.383,0.879 -1.07,2.268 -1.436,3.3 -0.366,1.031 -0.353,1.82 -0.483,3.041 -0.148,1.227 -0.588,2.054 -1.044,4.305 -0.439,2.25 -2.33,9 -2.448,9.911 -0.117,0.901 -0.328,1.391 -0.468,2.616 -0.132,1.222 -0.564,2.16 -0.822,3.233 -0.264,1.077 -0.36,7.331 -0.36,8.855 -0.004,1.523 -0.211,2.124 -0.301,2.764 -0.085,0.637 -0.364,10.27 -0.613,11.398 -0.257,1.131 -0.279,0.922 -0.279,1.446 0,0.527 -0.03,0.79 -0.044,1.63 -0.014,0.837 -0.043,1.63 -0.176,2.436 -0.117,0.801 -0.556,3.731 -0.712,4.844 -0.145,1.124 0.139,2.353 0.288,2.863 0.161,0.504 -0.433,7.547 -0.411,7.813 0.028,0.254 0.059,1.09 -0.016,1.83 -0.088,0.751 -0.365,1.093 -0.639,2.01 -0.271,0.922 -0.05,1.585 0.069,2.721 0.118,1.149 0.071,1.251 0.071,2.259 0,0.993 -0.114,1.946 -0.028,2.782 0.087,0.831 0.053,3.615 -0.133,5.469 -0.175,1.855 0.468,2.001 0.66,2.824 0.19,0.812 0.052,6.714 0.147,7.125 0.097,0.409 0.616,0.929 1.816,1.333 1.197,0.404 2.173,-0.271 2.848,-0.345 0.672,-0.066 3.106,-1.465 4.162,-1.89 1.07,-0.426 3.003,-0.99 3.915,-0.822 0.909,0.177 2.594,0.316 3.841,0.139 1.247,-0.182 1.555,0.368 2.273,0.609 0.702,0.244 1.333,0.227 1.89,0.067 0.558,-0.163 1.833,-0.558 2.788,-0.492 0.951,0.059 1.111,0.615 1.669,0.983 0.572,0.366 1.025,0.265 1.98,0.374 0.952,0.116 2.097,-0.104 3.987,0.38 1.876,0.492 3.299,2.611 3.564,3.577 0.25,0.976 0.349,3.482 0.807,4.333 0.453,0.843 1.347,0.858 2.741,1.709 1.408,0.857 2.566,0.895 4.251,1.459 1.671,0.563 2.006,1.789 2.155,2.139 0.148,0.359 -0.06,1.006 -0.631,1.54 -0.572,0.527 -0.879,1.239 -0.982,1.722 -0.103,0.485 0.263,0.549 2.479,3.211 1.941,2.338 6.226,8.181 9.147,11.908 0.413,0.525 0.798,1.009 1.145,1.435 2.813,3.436 9.747,13.282 9.747,13.282 0,0 0.427,0.168 0.616,0.41 0.177,0.241 2.317,3.175 2.317,3.175 l 0.22,0.659 c 0,0 0.205,0.345 1.684,2.039 1.483,1.685 3.739,4.756 4.546,5.569 0.823,0.808 1.951,1.481 3.696,2.72 1.407,0.991 2.168,2.33 3.458,4.476 0.322,0.536 0.649,1.084 1.058,1.735 2.067,3.253 4.383,6.904 4.983,7.681 0.602,0.778 0.881,0.908 2.01,2.257 1.144,1.357 1.787,2.024 2.595,2.787 0.82,0.754 1.643,2.089 2.448,2.895 0.821,0.815 1.803,2.755 2.565,4.515 C 2.23,-0.754 0.824,-0.241 0,0" /></g></g></g><g
       id="g48"><g
         clip-path="url(#clipPath52)"
         id="g50"><g
           transform="translate(110.9395,442.1694)"
           id="g56"><path
             id="principal"
             style="fill:#716e6e;fill-opacity:1;fill-rule:evenodd;stroke:none"
             d="m 0,0 c 1.48,-3.699 9.618,-18.125 12.208,-21.454 2.589,-3.329 12.577,-17.355 15.166,-19.205 0,0 13.124,-13.737 15.71,-18.767 2.587,-5.029 9.628,-14.082 11.066,-16.957 l 1.293,-6.466 c 0,0 6.467,-8.344 8.191,-10.788 0,0 7.041,-12.063 7.041,-17.811 0,0 0.575,-17.531 0,-24.717 -0.575,-7.185 -0.574,-21.986 -1.15,-34.057 -0.575,-12.071 -4.454,-41.53 -5.029,-48.715 l -0.576,-7.185 11.497,-3.049 c 0,0 -5.173,-19.369 -5.892,-28.423 -0.719,-9.052 -2.156,-36.353 -1.006,-45.982 1.15,-9.628 1.438,-27.735 0.288,-33.483 -1.15,-5.748 -5.604,-22.418 -8.479,-32.045 -2.874,-9.627 -8.766,-25.004 -10.634,-37.793 -1.868,-12.79 -3.161,-27.735 -5.029,-36.789 -1.869,-9.053 -4.743,-12.501 -6.611,-15.232 -1.868,-2.73 -0.863,-6.035 -0.575,-7.903 0.288,-1.868 -0.144,-8.047 -0.144,-10.491 0,-2.443 -0.287,-14.082 -0.287,-14.082 0,0 15.664,-2.3 22.274,-2.012 6.61,0.289 7.76,1.295 9.484,4.743 1.724,3.449 0.718,6.035 0.287,7.328 -0.43,1.294 6.179,11.065 7.473,13.365 1.293,2.299 -0.575,6.323 -0.575,10.634 0,4.311 3.163,19.687 5.605,28.023 1.417,4.834 1.601,12.476 2.939,20.538 0.968,5.832 3.086,11.884 4.112,17.254 0,0 13.644,40.095 17.093,50.729 3.448,10.634 9.34,20.549 9.34,20.549 0,0 0.995,-17.963 3.726,-28.884 0,0 0.73,0.144 2.166,-14.227 1.436,-14.37 -1.437,-20.118 -2.3,-30.463 -0.863,-10.346 -2.587,-28.454 -2.587,-40.812 0,-12.358 -2.443,-26.443 -1.15,-38.369 1.294,-11.927 2.875,-17.963 5.174,-18.825 2.299,-0.862 22.561,-0.718 29.602,-0.431 7.041,0.287 20.694,-0.144 25.292,1.867 4.599,2.012 9.197,5.461 8.909,8.909 -0.288,3.45 -2.011,7.329 -6.753,7.041 -4.743,-0.287 -16.958,-0.717 -20.981,-0.287 -4.023,0.431 -5.604,2.3 -5.604,2.3 0,0 -2.3,20.26 -1.293,29.169 1.006,8.91 4.169,20.984 6.179,32.479 2.012,11.496 6.036,43.252 7.041,53.742 1.007,10.49 2.73,40.667 3.018,51.588 0.289,10.922 -1.292,48.716 -1.292,48.716 0,0 0.144,5.6 0.144,9.337 0,3.738 -3.161,7.934 -4.024,13.078 -0.862,5.144 -7.615,26.442 -8.478,33.628 -0.863,7.185 0.575,25.004 0.863,32.188 0.287,7.185 1.428,13.652 -1.159,26.297 0,0 -2.722,11.352 -6.745,17.101 -4.023,5.748 -5.747,5.748 -5.604,10.49 0.144,4.742 0.861,6.754 0.861,6.754 0,0 7.329,10.635 8.766,14.801 1.437,4.167 1.006,8.478 4.168,8.622 3.161,0.143 5.173,4.31 5.173,7.04 0,2.731 -2.012,6.323 -2.012,6.323 0,0 1.007,8.624 0.432,13.079 -0.575,4.455 -4.166,8.478 -6.322,11.208 -2.157,2.731 -6.325,7.041 -9.486,7.617 -3.161,0.575 -8.19,0.717 -11.496,0 -3.305,-0.719 -8.91,-4.023 -11.496,-8.047 -2.586,-4.025 -6.322,-6.899 -7.041,-12.215 -0.719,-5.317 -0.145,-9.483 -0.862,-11.496 -0.719,-2.013 -1.869,-5.891 -1.294,-7.76 0.575,-1.869 5.03,-3.736 5.03,-3.736 l -0.432,-11.785 c 0,0 -16.095,15.81 -24.429,21.701 -8.334,5.89 -19.544,17.387 -22.993,20.548 -3.448,3.162 -12.645,12.356 -18.537,21.123 -5.892,8.766 -17.101,22.706 -20.981,26.585 -3.879,3.879 -13.363,15.516 -17.674,21.121 -4.311,5.605 -6.323,9.34 -6.18,12.502 0,0 2.587,7.041 2.012,12.358 -0.575,5.318 -1.437,7.474 -3.593,9.485 -2.155,2.012 -5.892,3.305 -8.335,2.156 l -0.43,-1.725 c 0,0 -3.069,0.677 -3.88,0.144 -0.58,-0.381 -1.006,-2.587 -1.006,-2.587 0,0 -3.161,-0.042 -3.88,-0.718 -0.756,-0.711 -1.006,-4.024 -1.006,-4.024 0,0 -3.448,-1.149 -3.448,-2.299 0,-1.15 0.431,-3.449 1.58,-4.599 1.15,-1.149 1.581,-1.868 1.581,-4.023 0,-2.155 -0.144,-6.466 1.293,-8.191 1.437,-1.726 3.162,-3.882 7.042,-9.629 C -5.771,9.975 0,0 0,0" /></g></g></g><g
       id="g60"><g
         clip-path="url(#clipPath64)"
         id="g62"><g
           transform="translate(281.5318,422.8203)"
           id="g68"><path
             id="cachecol2"
             style="fill:#716e6e;fill-opacity:0;fill-rule:evenodd;stroke:none"
             d="m 0,0 c 0.292,3.382 0.609,4.155 -1.298,6.916 -1.241,3.885 -1.327,3.496 -5.328,4.381 -1.502,2.005 -2.322,2.46 -4.802,2.521 -1.915,2.399 -1.651,2.506 -4.635,1.86 -1.678,6.223 -4.932,3.917 -6.366,-0.285 l -1.184,0.473 c -1.966,10.593 0.142,12.296 -10.604,13.529 -1.826,15.963 0.943,16.697 -14.965,19.15 -15.356,25.396 -17.139,12.496 -35.859,22.309 -3.656,1.916 -10.18,-6.635 -7.455,-17.579 0.917,-3.674 -5.503,4.066 -10.472,3.013 -18.028,-3.887 -13.9,-22.988 4.906,-16.285 2.644,0.937 9.225,-9.53 2.863,-17.35 -2.013,-2.449 2.501,-4.839 9.077,-3.52 6.599,1.318 15.253,6.351 21.079,-1.088 l 10.816,-1.198 c 7.809,-0.503 10.868,-1.323 17.736,-5.065 l 4.161,-2.304 c 2.254,-1.214 4.039,-1.486 6.567,-1.93 -2.426,-9.874 3.947,-12.633 9.457,-18.632 2.01,-2.319 2.067,-1.912 -0.642,-3.384 l -1.115,-0.974 c -7.842,3.078 -8.366,0.865 -9.172,-6.316 0.022,-3.076 -3.382,-6.451 -1.158,-9.05 4.266,-4.97 -4.011,-8.658 8.973,-4.952 l 5.128,2.827 c 3.184,2.153 4.099,0.683 7.381,0.454 l 0.978,-4.622 c 3.264,-12.373 2.177,-19.488 5.03,-29.107 0.835,-2.826 -5.048,-6.433 -7.668,-9.276 -4.588,-5.337 -9.408,-12.133 -14.138,-15.485 -6.694,-4.737 -13.284,-5.623 -19.409,-11.995 -1.844,-2.147 -3.224,-3.595 -4.204,-6.225 -2.664,0.499 -3.365,1.769 -6.403,1.631 0.327,3.443 0.546,6.826 0.635,10.287 l 0.077,3.121 c 5.645,3.636 6.098,5.908 6.746,11.972 -0.172,3.856 -0.639,7.114 -1.457,10.896 -0.202,8.865 -3.28,14.951 -9.87,20.399 -12.035,6.08 -21.511,4.411 -29.525,-6.605 -2.487,-5.29 -3.484,-8.746 -3.226,-14.464 -0.412,-3.206 -0.988,-5.775 -0.222,-8.912 0.811,-5.919 -0.304,-7.575 5.817,-13.209 2.043,-2.727 1.808,-4.272 2.017,-7.675 l 0.253,-4.528 c -0.097,-3.81 -1.105,-3.257 -4.635,-4.657 -5.84,-3.257 -6.771,-5.41 -12.953,-2.786 -8.485,2.534 -14.928,-0.76 -22.267,-4.314 l -10.627,-5.441 c -5.649,-4.091 -15.503,-2.36 -26.293,-5.937 -5.722,-0.673 -7.793,-0.548 -13.198,1.436 -10.982,3.085 -22.05,4.34 -32.914,8.015 -7.951,3.534 -19.114,5.849 -23.283,14.033 -1.056,2.791 -2.192,5.294 -3.763,7.811 l -2.031,2.643 c -1.151,1.983 -2.492,2.737 -4.368,4.064 -4.54,6.515 -5.547,2.019 -2.247,-3.253 -3.389,1.84 -4.58,3.718 -8.441,4.255 -2.754,0.165 -8.309,0.421 -7.77,-3.383 -3.207,-0.314 -4.65,0.012 -4.043,-3.481 -0.14,-0.311 -0.274,-0.614 -0.399,-0.895 -1.748,-4.211 -0.328,-4.485 5.435,-5.122 l 2.736,-1.257 c 1.894,-1.105 2.846,-1.638 5.016,-1.88 1.943,-3.133 -1.939,-2.107 -3.736,-1.93 -3.362,0.308 -9.938,3.117 -11.023,0.183 0.213,-2.743 4.186,-3.092 6.296,-3.654 l 4.759,-0.757 c 2.499,-0.76 3.491,-1.152 5.398,-2.903 5.31,-4.284 10.463,-7.895 17.273,-8.065 12.463,-7.006 24.313,-14.822 36.972,-21.373 6.279,-2.823 11.634,-5.649 18.539,-5.835 5.477,-2.241 9.269,-1.611 15.232,-1.303 13.621,-1.137 26.594,0.15 39.778,5.147 3.583,1.185 5.804,3.273 7.346,2.625 2.123,-0.905 3.051,-5.33 4.993,-9.461 2.75,-8.26 5.246,-13.531 6.735,-24.185 2.143,-10.051 2.034,-17.896 1.653,-27.634 -0.342,-8.885 0.544,-19.318 -1.808,-28.57 -0.876,-1.266 -0.856,-2.029 -1.006,-3.579 -1.635,-1.948 -1.512,-2.816 -1.708,-5.378 -2.265,-1.952 -2.901,-2.005 -2.976,-4.977 -2.933,-3.927 -2.755,-5.68 -1.733,-10.162 -1.035,-1.531 -1.624,-2.48 -2.022,-3.72 -0.417,-0.822 -0.612,-1.752 -0.678,-2.727 -0.822,-1.841 -0.908,-3.293 -0.994,-5.234 -0.816,-1.545 -1.328,-1.997 -2.064,-4.905 -0.512,-3.529 -0.673,-7.849 -3.357,-13.844 -1.525,-3.996 -2.723,-6.965 -2.988,-11.178 -1.174,-3.483 -1.536,-5.534 -1.457,-9.191 -2.734,-9.815 -3.404,-20.016 -4.759,-30.085 -1.187,-5.038 -2.12,-10.128 -2.333,-15.284 -0.152,-3.615 -0.521,-6.705 -1.117,-8.442 -1.402,-2.66 -3.405,-5.927 -2.814,-9.041 -4.49,-2.245 -5.701,-11.091 -6.585,-16.279 -4.698,-8.671 -6.145,-17.057 -6.248,-26.622 -0.063,-5.869 -3.076,-10.989 -3.135,-18.79 -2.584,-8.538 -4.825,-15.459 -3.796,-24.057 1.368,-4.343 2.444,-8.325 0.317,-12.742 -1.174,-2.979 -2.449,-3.575 0.254,-5.54 3.637,-1.619 3.348,-2.758 2.077,-6.641 -1.038,-3.327 -1.602,-6.35 -2.082,-9.779 1.891,-15.918 9.138,-15.45 16.709,-14.815 3.957,0.29 6.374,1.988 8.431,7.042 1.137,4.286 1.233,7.816 -0.679,12.068 0.416,1.051 1.431,3.599 1.542,4.646 0.306,2.662 -0.727,3.754 0.644,6.293 1.904,2.161 2.838,3.488 3.86,6.144 1.547,2.31 2.177,3.879 2.897,6.564 1.418,6.501 4.417,10.169 0.129,13.231 0.426,2.769 -0.793,2.661 -1.416,4.628 1.772,2.491 3.616,5.227 4.062,8.319 2.082,3.821 0.039,5.05 1.4,10.685 0.99,2.877 2.508,7.569 4.841,12.833 2.392,4.85 3.248,6.694 3.3,15.266 0.524,3.239 1.271,5.557 2.583,8.592 1.522,3.697 2.145,7.081 2.883,11.001 1.446,3.007 2.291,3.385 2.635,6.662 1.198,1.882 3.137,4.546 3.941,6.956 2.114,4.465 4.189,8.928 6.239,13.406 4.809,11.573 9.211,21.928 16.34,33.812 1.884,2.197 2.129,3.538 2.799,6.322 0.551,0.216 2.223,0.093 2.268,1.062 0.075,2.617 0.935,2.787 1.27,2.769 0.907,-0.073 1.204,-2.873 4.842,-3.718 0.915,-3.146 2.028,-5.683 3.509,-8.598 l 6.388,-12.011 c 2.673,-5.358 3.099,-8.053 4.784,-13.733 1.862,-5.289 3.931,-9.41 5.181,-15.249 0.791,-3.659 2.449,-2.988 4.535,-11.843 0.449,-1.826 0.868,-3.959 1.744,-6.687 0.245,-3.227 0.818,-4.875 2.223,-7.815 -0.141,-1.731 -0.243,-2.599 0.371,-4.201 -0.333,-7.099 0.49,-16.101 3.86,-22.458 0.766,-5.237 0.721,-8.714 4.585,-14.955 -1.803,-6.916 -0.136,-9.561 -0.168,-15.51 -0.566,-7.621 -3.397,-11.982 2.832,-23.507 0.963,-4.567 2.566,-8.2 5.651,-11.725 -0.685,-2.519 -0.029,-4.542 0.653,-7.043 -1.937,-4.669 -2.337,-8.751 -0.48,-13.646 0.951,-2.854 3.358,-4.028 6.019,-5.315 6.384,-3.057 15.22,-1.311 17.948,5.004 2.527,6.244 1.327,12.63 -0.911,18.848 -1.065,3.524 0.815,2.961 1.801,3.486 1.318,0.687 2.56,1.248 1.045,5.272 1.329,4.41 -1.382,3.764 -0.386,8.38 2.678,9.869 0.827,23.241 -0.19,35.937 0.011,3.303 -0.066,6.221 -0.632,9.469 0.353,5.482 -0.215,11.154 -3.04,16.07 -0.172,3.11 -0.426,5.203 -1.527,8.157 -0.224,2.537 -0.473,4.391 -1.361,6.81 0.213,2.304 -0.22,3.391 -1.04,5.616 -0.354,2.646 -0.759,3.839 -2.161,6.148 -0.986,6.082 -3.119,12.35 -6.778,17.459 0.285,4.652 0,9.359 -1.04,13.919 -0.881,3.926 -0.473,10.842 -0.514,15.048 -0.014,4.495 -0.464,6.278 -0.917,10.602 0.099,3.242 0.09,6.167 -0.286,9.388 -0.337,4.806 -2.039,9.688 -1.9,16.602 l 0.19,0 c -0.03,0.539 -0.075,1.039 -0.127,1.526 0.02,0.363 0.041,0.723 0.075,1.092 0.551,2.916 0.473,4.511 -0.066,7.462 -0.641,3.396 -1.464,5.34 -3.002,7.74 -0.434,5.524 -0.824,7.462 -2.801,10.482 -0.166,2.544 -0.239,2.954 -0.92,3.656 0.175,2.681 -0.069,4.939 -0.46,7.838 0.319,5.539 -0.795,7.812 -4.592,11.518 -0.647,2.722 -1.499,5.094 -2.546,7.708 l -1.133,2.682 c -4.109,16.988 -4.553,34.632 -3.361,51.972 2.161,7.41 3.117,14.906 3.986,22.524 4.978,14.362 3.824,20.363 4.832,31.155 0.825,2.938 2.59,5.414 4.533,7.806 15.79,11.238 29.078,27.052 36.668,44.946 4.318,7.038 2.499,7.448 1.144,12.848 l -1.998,7.598 c -1.607,5.162 -3.325,9.421 -5.801,14.242 -4.664,8.959 -9.693,17.717 -14.024,26.846 C 4.937,-3.511 0.611,-4.805 0,0" /></g></g></g><g
       id="g72"><g
         clip-path="url(#clipPath76)"
         id="g74"><g
           transform="translate(360.6997,465.6138)"
           id="g80"><path
             id="cachecol"
             style="fill:#716e6e;fill-opacity:0;fill-rule:nonzero;stroke:none"
             d="M 0,0 C 0.383,0.273 0.762,0.684 1.096,1.193 0.797,0.639 0.414,0.234 0,0 m -2.148,2.637 c -0.008,-1.53 0.261,-2.346 0.66,-2.727 -0.586,0.342 -0.944,1.221 -0.66,2.727 m -2.78,2.693 c 0.201,-0.773 0.326,-1.328 0.455,-1.74 -0.195,0.465 -0.343,1.015 -0.455,1.74 m -1.92,0.289 C -6.445,5.488 -5.865,5.455 -4.951,5.4 -5.795,5.32 -6.363,5.42 -6.848,5.619 m -1.429,3.006 c -1.657,-0.236 -2.637,-0.064 -3.239,0.557 0.598,-0.522 1.571,-0.756 3.239,-0.557 0.361,-1.484 0.554,-2.232 0.898,-2.643 -0.516,0.491 -0.797,1.289 -0.898,2.643 m -3.993,2.57 c -0.011,0.102 -0.039,0.155 -0.043,0.266 0.059,0.252 0.075,0.475 0.108,0.709 -0.025,-0.33 -0.07,-0.674 -0.065,-0.975 m -23.988,-50.136 c -8.789,-8.602 -17.117,-18 -23.594,-28.514 -1.093,-5.215 -2.105,-7.363 -6.582,-10.955 -1.201,-0.588 -2.382,-1.494 -3.574,-2.59 -4.652,-4.262 -9.545,-12.295 -17.082,-24.137 -1.861,-0.748 -2.289,-1.381 -3.539,-2.986 -2.529,0.012 -2.324,0.082 -3.406,-2.221 -1.613,-0.406 -2.231,-0.088 -2.246,-3 -1.471,-0.664 -1.588,-1.021 -2.36,-2.463 -4.464,0.612 -4.593,1.471 -6.554,-2.589 -3.467,0.158 -3.233,0.201 -5.118,-2.729 -0.632,-0.088 -2.097,-0.498 -3.13,-1.266 -1.178,-0.863 -1.934,-2.082 -2.975,-1.795 -2.453,0.729 -5.172,0.961 -4.643,-2.502 0.34,-1.837 -0.83,-5.564 -1.767,-6.169 -0.574,-0.356 -0.742,0.664 -1.326,3.107 -0.354,1.441 -4.627,-0.471 -6.475,-0.172 0.281,3.785 -1.084,8.619 0.891,11.129 3.908,4.955 7.531,6.832 6.554,15.369 -0.304,2.723 0.098,6.317 -0.484,6.762 -0.182,8.072 0.676,13.773 -2.004,20.219 -1.676,11.673 -21.656,17.152 -33.429,11.92 -2.742,-2.106 -2.682,-2.264 -6.022,-1.42 -2.22,1.015 -2.806,1.004 -5.226,0.685 -12.389,-2.195 -14.713,-13.881 -10.58,-25.066 2.695,-4.278 5.023,-5.983 6.176,-9.25 1.121,-3.194 1.078,-7.957 2.394,-12.834 0.477,-2.59 0.481,-3.668 3.746,-2.49 0.09,-2.418 1.465,-4.973 2.684,-7.03 1.064,-1.886 0.75,-2.267 1.053,-4.447 0.07,-1.971 0.255,-3.248 -0.399,-3.615 -0.842,-0.469 -2.541,0.457 -2.221,2.027 0.297,1.43 -2.9,1.838 -2.918,1.949 -0.183,1.535 -1.027,3.657 -2.367,4.098 -1.008,0.344 -2.019,-0.82 -3.242,-0.781 -2.33,0.088 -1.254,3.463 -7.898,5.574 -2.426,3.48 -2.176,3.543 -6.397,3.432 -1.664,3.644 -2.553,1.06 -4.959,1.976 -0.527,4.17 -3.195,4.076 -6.514,4.483 -7.138,12.064 -13.736,21.691 -24.974,30.58 -0.408,1.125 -0.91,2.232 -1.379,3.343 -5.695,13.485 -15.766,25.924 -24.891,37.256 2.235,0.069 4.672,0.457 7.332,1.299 43.973,6.172 187.01,-1.131 210.107,-3.894 -0.234,-0.096 -0.416,-0.196 -0.662,-0.293 m -233.993,8.759 c 0,0.012 0,0.018 -0.002,0.03 l 0.002,0 0,-0.03 z m -19.711,38.061 c 0.048,-0.027 0.076,-0.004 0.123,-0.027 0.05,-0.077 0.097,-0.147 0.148,-0.231 -0.096,0.094 -0.18,0.166 -0.271,0.258 m 322.548,-117.397 -3.047,5.625 -2.898,13.588 -5.184,7.774 2.758,10.664 -0.879,7.736 -3.774,9.592 1.543,6.883 -2.625,11.006 -5.144,9.832 -2.549,9.814 -1.072,6.539 C 8.547,-6.604 7.152,-2.814 5.328,0.791 3.113,3.51 4.219,4.371 1.281,1.457 1.27,1.453 1.262,1.441 1.262,1.441 c 0.148,0.235 0.3,0.487 0.429,0.748 0.354,0.721 1.254,0.95 1.629,1.477 1.746,-0.797 3.319,-5.5 4.086,-7.451 0.641,-1.711 1.94,5.939 0.539,10.111 -0.777,2.93 -0.439,3.529 -3.254,4.59 0.014,3.023 -1.398,5.895 -4.755,4.16 0.103,3.299 -1.864,4.623 -5.221,3.035 -2.25,5.162 -5.957,2.309 -6.629,-3.58 -0.063,-0.457 -0.125,-0.902 -0.186,-1.33 0.073,2.672 -1.431,4.041 -3.677,4.863 0.117,-0.025 0.222,-0.052 0.336,-0.078 0.257,1.383 1.877,8.871 -1.782,9.153 -0.513,0.043 -0.91,-1.428 -0.877,-3.545 -0.363,-1.858 -0.697,-2.91 -1.642,-4.541 0.008,0.002 0.012,-0.01 0.019,-0.012 -1.183,0.205 -2.396,0.383 -3.603,0.594 -48.035,0.332 -96.106,-0.785 -144.107,0.386 -33,0.809 -66.899,2.883 -99.875,4.594 -2.416,0.121 -3.777,-0.336 -4.402,-1.924 -0.379,-0.32 -0.918,-0.724 -1.366,-1.171 -1.078,2.386 -4.744,2.39 -5.894,-1.448 -2.379,2.657 -3.92,1.66 -5.19,-1.439 -3.25,2.174 -5.627,0.674 -5.215,-3.522 -1.582,-0.029 -2.652,0.475 -3.433,-0.968 -0.274,-1.44 -0.281,-2.858 -0.203,-4.293 -1.172,-0.639 -2.406,-2.748 -3.957,-4.664 -2.586,-3.182 -7.039,-10.155 -7.832,-12.182 -2.106,-5.109 2.156,-9.311 0.836,-15.691 -6.821,-9.559 -5.873,-14.581 -6,-26.516 -4.161,-16.926 -17.121,-30.203 -11.711,-47.432 0.914,-6.051 3.109,-3.949 0.342,-9.416 -1.417,-3.314 -3.375,-4.498 -0.159,-6.527 11.91,1.711 9.815,0.908 12.77,-10.656 0.314,-0.885 1.215,-2.012 2.389,-3.09 3.492,-3.203 9.408,-5.942 9.568,-0.35 0.793,28.141 13.203,-9.844 12.074,11.649 4.574,9.697 16.363,-1.577 16.385,5.748 0.01,3.621 -1.826,8.273 -4.092,12.695 -3.572,6.969 -8.223,13.361 -8.449,14.193 -3.617,13.43 0.48,28.073 -9.492,32.836 13.009,4.733 12.623,-3.322 8.281,9.891 6.277,-2.449 0.299,0.387 6.426,3.644 5.246,-16.869 12.976,-31.875 24.119,-45.755 0.271,-0.627 0.533,-1.151 0.799,-1.653 0.935,-1.763 1.922,-2.929 3.621,-4.648 10.066,-17.643 11.599,-25.293 30.115,-49.451 l 2.346,-3.137 c 4.945,-5.781 7.48,-10.231 10.652,-17.18 2.799,-5.347 3.41,-8.043 2.213,-13.207 -1.275,-5.459 -1.346,-13.392 -1.182,-19.492 1.567,-9.797 3.887,-22.168 4.676,-37.174 0.523,-8.398 -0.672,-16.736 -0.67,-25.9 -0.017,-3.024 -0.068,-7.324 -0.525,-10.196 -0.422,-2.595 -1.84,-4.207 -1.617,-6.521 -1.467,-4.512 -1.165,-8.906 -1.889,-13.6 -0.752,-5.672 0.088,-5.062 3.092,-4.974 0.015,-0.006 0.035,-0.006 0.047,-0.006 -0.77,-1.828 -1.393,-3.803 -1.782,-6.123 -5.203,-1.916 -2.824,-3.51 -4.25,-8.854 -9.449,-11.121 -11.603,-21.463 -13.625,-35.238 -4.789,-9.029 -4.871,-16.629 -5.996,-26.848 -4.09,-11.853 -6.092,-21.966 -6.222,-34.4 -4.053,-5.83 -3.887,-9.164 -4.461,-16.336 -6.836,-7.635 -11.252,-14.543 -14.395,-22.389 12.682,-6.627 26.147,-11.941 40.233,-15.755 0.103,1.13 0.201,2.261 0.248,3.357 0.523,11.203 13.39,28.728 18.457,39.498 l 11.089,19.617 c 7.793,12.533 13.844,31.102 28.637,35.362 2.192,-4.53 4.123,-6.967 7.633,-10.6 3.099,-11.555 6.257,-21.639 12.39,-31.852 0.012,-8.297 1.828,-15.369 3.641,-23.513 0.425,-5.426 0.73,-8.432 3.113,-13.301 l 2.633,-21.147 c -0.035,-0.416 -0.063,-0.796 -0.092,-1.195 13.582,2.432 26.689,6.223 39.186,11.244 -0.411,6.323 1.308,11.186 -1.465,17.655 0.929,6.386 0.963,11.695 0.629,18.181 1.095,15.428 1.371,29.842 0.671,45.317 1.59,9.427 -0.683,16.06 -2.224,25.81 -0.174,1.365 -0.338,2.719 -0.504,4.055 -0.199,7.64 -1.252,15.287 -2.701,22.787 0.5,3.029 0.461,4.453 -1.067,7.031 -0.461,2.59 -0.931,4.401 -1.599,5.889 -0.035,2.73 -0.651,3.832 -2.869,6.387 -0.682,2.39 -1.512,3.134 3.464,1.74 3.606,-0.34 0.202,1.857 0.293,6.404 -0.736,4.418 -1.609,8.584 -3.472,12.703 1.429,6.815 -0.756,12.99 -0.059,16.09 1.035,4.289 0.703,6.475 -0.094,10.846 -0.839,6.445 -1.294,12.322 -0.298,18.584 1.289,6.689 2.332,13.394 3.361,20.127 2.309,14.373 0.914,23.717 2.258,37.523 1.129,12.059 3.433,13.002 6.886,18.768 1.649,2.74 2.614,5.32 4.481,8.133 2.619,1.193 3.16,1.714 4.797,4.099 0.351,3.551 4.582,7.342 6.898,11.801 3.008,5.824 6.289,10.945 9.106,15.91 l 5.008,9.906 c 1.402,2.844 2.793,5.328 4.335,7.766 1.157,1.828 2.391,3.633 3.821,5.529 2.058,1.553 2.369,1.66 2.531,4.192 11.223,10.617 19.469,26.629 25.356,40.541 1.808,-0.27 3.511,-0.541 5.015,-0.91 12.027,-4.375 3.988,-2.542 3.498,-7.727 0.096,-1.981 6.877,-3.494 7.104,-5.082 0.586,-4.047 -4.617,-7.383 -0.143,-11.025 1.205,-0.979 -4.705,-4.26 -5.232,-6.264 l -0.418,-6.018 c 0.211,-4.9 3.435,-9.509 3.084,-14.408 0.342,-5.58 -7.08,-14.08 -6.526,-18.348 0.629,-4.839 9.243,-5.277 9.555,-8.746 0.404,-2.873 -1.879,-2.287 -2.492,-5.273 -0.375,-1.752 0.496,-7.02 1.09,-8.75 0.613,-0.772 1.222,-1.551 1.83,-2.33 0.515,0.556 1.076,1.24 1.678,2.162 1.105,1.715 3.976,1.178 6.97,0.967 l 23.35,8.254 -2.547,7.425 2.625,10.166 z" /></g></g></g><g
       id="g84"><g
         clip-path="url(#clipPath88)"
         id="g86"><g
           transform="translate(310.5718,122.3286)"
           id="g92"><path
             id="sb1"
             style="fill:#716e6e;fill-opacity:0;fill-rule:nonzero;stroke:none"
             d="m 0,0 c -0.45,5.601 -7.265,4.861 -13.302,8.069 -1.691,1.625 -3.359,3.549 -4.796,6.035 -6.525,12.83 -10.658,24.502 -13.585,38.684 -2.347,15.052 -7.217,20.443 -12.287,32.68 -1.881,4.522 -2.307,7.989 -3.744,12.678 -1.846,5.25 -0.954,10.202 -3.099,15.533 0.692,7.529 0.703,13.027 -0.474,20.489 0.86,9.205 -4.702,14.551 -11.522,20.754 -4.384,3.965 -9.318,9.325 -13.307,12.878 -1.661,6.107 3.873,4.546 4.033,14.606 4.66,2.666 5.933,5.986 8.637,9.855 3.981,-0.463 0.691,3.403 3.208,6.092 2.95,3.138 4.158,8.734 0.146,7.78 3.471,9.366 5.601,17.994 1.619,27.8 -2.639,8.004 -4.438,11.655 -13.537,13.515 -16.017,6.922 -29.67,-7.138 -34.114,-21.137 -1.23,-3.92 0.331,-6.034 0.223,-9.879 -4.925,-0.173 -4.086,-5.374 -4.103,-9.477 1.428,-4.153 1.538,-6.151 0.442,-5.144 -1.821,1.651 -3.023,9.23 -8.318,10.462 -0.105,3.103 -0.345,3.288 -2.524,5.52 -0.857,3.41 -2.43,5.117 -4.294,8.098 -1.853,2.995 0.279,13.799 -3.347,26.664 -1.428,5.064 -3.722,10.44 -7.544,15.8 -1.212,1.684 -0.294,3.845 -0.543,7.811 -0.973,15.562 -9.996,38.59 -13.386,48.558 -1.461,6.167 -3.551,12.737 -4.212,19.11 0,0 -0.346,3.565 0.132,5.094 0.292,0.937 1.342,1.32 2.117,2.072 1.682,2.123 3.396,4.225 5.108,6.318 2.593,5.345 -1.061,5.052 -1.245,10.013 0.08,4.145 -1.54,7.638 -6.154,6.219 -1.676,2.677 -4.794,1.949 -7.041,0.167 -2.84,1.348 -3.815,1.214 -5.783,-1.621 -3.307,0.759 -4.058,-0.732 -5.701,-3.702 -3.529,-4.581 -0.707,-13.03 0.889,-19.69 0.814,-1.591 1.218,-3.015 1.423,-4.436 0,0 1.167,-15.991 2.201,-23.902 2.604,-18.038 1.906,-34.259 11.01,-57.473 0.759,-1.893 0.682,-3.941 0.741,-5.768 -0.141,-3.828 -0.219,-7.389 -0.223,-10.898 -0.007,-9.29 0.523,-18.215 1.9,-30.774 -1.033,-6.272 0.786,-6.715 1.924,-15.316 -0.093,-6.971 2.088,-13.943 2.097,-19.825 0.011,-5.886 -1.825,-9.986 -2.234,-16.317 -3.401,-10.792 -3.897,-19.999 -3.805,-31.377 -2.79,-7.154 -3.309,-11.532 -3.53,-19.234 -8.91,-11.61 -6.619,-27.719 -9.527,-41.363 -0.098,-9.301 3.496,-4.839 7.659,-9.835 2.127,-2.548 3.259,-6.235 5.192,-9.328 0.178,-4.297 0.007,-8.527 -1.066,-12.315 -6.322,-5.423 -5.089,-5.632 -3.538,-13.868 -0.871,-2.541 -0.616,-4.765 -0.153,-6.924 -0.136,-0.894 -0.254,-1.792 -0.37,-2.71 -1.176,-4.43 -1.258,-5.497 0.213,-8.527 -0.176,-0.316 -0.343,-0.64 -0.552,-0.985 -4.042,-7.996 -3.845,-11.326 -3.502,-20.372 -2.434,-12.126 -3.472,-23.73 -4.533,-36.048 -0.903,-5.434 -0.315,-5.668 3.004,-10.119 0.408,-5.31 0.456,-10.432 0.39,-15.76 -0.069,-5.627 0.274,-11.213 -0.076,-16.754 8.759,-3.36 17.832,-6.077 27.186,-8.033 -0.191,9.641 4.974,15.529 7.471,27.075 2.022,7.313 2.988,19.277 7.366,25.222 5.604,-0.549 11.013,-2.569 13.252,4.056 l 1.992,9.048 c 1.735,5.001 2.012,14.063 3.605,15.15 0.742,0.489 1.132,-1.825 3.15,-4.869 5.331,-7.397 8.852,-8.547 17.197,-12.451 4.443,-2.557 4.266,-9.158 8.47,-5.094 l 4.382,-7.867 c 3.991,-6.372 9.479,-18.008 13.897,-24.827 3.237,-4.991 5.728,-5.045 7.355,-10.184 1.014,-3.204 1.399,-6.899 1.796,-10.954 10.106,3.157 19.804,7.231 29.054,12.049 -0.517,1.489 -1.018,2.963 -1.625,4.544 -1.06,6.688 -2.638,11.089 -5.441,17.281 -1.24,7.687 -3.179,14.343 -5.601,21.766 2.264,2.384 -1.212,8.555 -3.073,13.938 -3.217,10.375 -7.419,20.516 -11.743,30.619 2.065,2.097 0.833,5.564 -1.386,8.976 -1.658,2.061 -3.225,3.893 -4.82,5.614 -0.397,0.941 -0.796,1.877 -1.181,2.814 0.526,5.934 -4.463,3.214 -6.061,12.568 l -0.852,5.483 c 0.616,6.269 -1.661,6.235 -3.866,8.056 0.935,3.984 -1.432,6.992 -2.811,11.265 0.027,1.865 -0.015,3.495 -0.115,4.916 l -0.773,-0.089 c -0.024,0.591 -0.026,1.202 0.014,1.838 -0.698,8.042 -1.264,15.945 -2.692,23.913 1.856,-5.22 6.979,-13.559 7.45,-18.554 0.797,-8.63 6.958,-19.235 14.258,-29.147 5.796,-7.865 12.395,-18.664 16.96,-25.313 5.689,-9.054 1.461,-10.804 6.894,-17.756 l 0.065,0.004 c 2.345,-3.935 0.938,-6.774 4.765,-11.137 1.195,-1.342 1.735,-1.865 3.371,-2.547 2.056,-2.328 3.651,-2.494 6.406,-0.961 1.652,0.2 3.136,-0.197 4.816,1.64 3.309,-0.146 3.699,0.485 4.569,1.674 3.62,-3.019 6.548,-0.232 4.647,4.274 C 3.791,-4.391 2.192,-3.026 0,0" /></g></g></g><g
       id="g96"><g
         clip-path="url(#clipPath100)"
         id="g98"><g
           transform="translate(143.5713,211.1724)"
           id="g104"><path
             id="melinha"
             style="fill:#716e6e;fill-opacity:0;fill-rule:nonzero;stroke:none"
             d="m 0,0 c -1.412,-7.532 -2.354,-32.484 -2.354,-32.484 0,0 -0.235,32.25 -1.413,39.546 -1.176,7.297 -2.118,12.947 -2.118,12.947 0,0 4.708,15.536 5.885,21.186 1.177,5.649 3.06,9.416 3.06,9.416 L 3.532,12.24 C 3.532,12.24 1.412,7.533 0,0 m 166.966,-22.872 c -2.829,12.023 -3.889,26.758 -5.186,35.834 -1.296,9.076 -5.069,28.878 -6.719,33.004 -1.649,4.125 -8.133,15.677 -9.665,23.103 -1.532,7.426 -4.361,27.464 -6.719,37.601 -2.357,10.137 -6.719,24.164 -6.6,28.289 0.117,4.126 0.117,7.427 -2.948,9.548 -3.064,2.122 -27.15,12.78 -32.573,15.138 -5.422,2.357 -10.953,3.584 -11.747,3.84 -0.793,0.256 2.594,9.665 2.358,12.259 -0.236,2.593 4.479,4.597 4.007,8.84 -0.471,4.244 -2.121,8.84 -2.357,13.084 -0.017,0.301 -0.008,0.572 0.016,0.826 0.299,3.338 3.831,3.036 6.349,7.307 2.711,4.597 5.422,12.73 4.833,18.978 -0.59,6.247 -3.89,12.376 -8.369,17.327 -4.479,4.951 -8.251,9.901 -8.251,9.901 l -1.65,2.24 c 0,0 3.772,5.893 1.532,10.019 -2.239,4.126 -2.358,4.479 -4.243,4.833 -1.886,0.353 -3.183,0.471 -3.183,0.471 0,0 -1.179,5.069 -4.479,7.544 -3.301,2.475 -5.304,3.301 -8.841,3.182 -3.536,-0.117 -6.718,-2.946 -6.718,-2.946 0,0 -1.769,3.418 -5.305,4.361 -3.536,0.943 -10.255,-0.118 -14.027,-2.593 -3.771,-2.475 -10.019,-6.13 -11.315,-7.544 -1.297,-1.414 -4.361,-6.601 -5.187,-10.962 -0.825,-4.362 -2.593,-8.369 -4.125,-13.202 -1.532,-4.833 -3.418,-6.719 -3.536,-8.015 -0.118,-1.297 0.589,-3.772 0.589,-3.772 0,0 -2.24,-0.236 -2.947,-4.597 -0.707,-4.361 -2.003,-8.251 0.118,-13.32 0,0 2.947,-7.426 4.951,-10.608 2.004,-3.183 5.068,-8.134 6.836,-9.312 0.798,-0.532 1.786,-1.758 2.75,-3.107 1.175,-1.642 2.314,-3.467 3.026,-4.437 1.297,-1.768 3.065,-4.951 3.065,-4.951 0,0 -0.825,-1.65 -0.707,-5.068 0.118,-3.419 3.418,-6.012 3.89,-6.719 0.471,-0.707 4.479,-3.183 4.95,-4.597 0.472,-1.414 0.472,-4.833 0.472,-4.833 0,0 -10.138,-6.601 -15.795,-9.665 -5.658,-3.065 -16.385,-7.662 -24.4,-10.963 -8.015,-3.3 -11.669,-5.068 -11.669,-6.6 0,-1.533 2.711,-4.951 3.418,-5.423 0.707,-0.471 -0.59,-2.711 -0.59,-2.711 0,0 -12.14,-30.293 -14.144,-37.483 -2.004,-7.19 -3.065,-13.202 -4.126,-21.571 -1.061,-8.368 -1.65,-12.494 -3.418,-19.213 -1.768,-6.718 -4.126,-20.746 -4.361,-31.59 -0.236,-10.844 0.589,-21.571 3.418,-33.358 2.829,-11.787 8.84,-35.951 10.491,-45.734 1.65,-9.784 3.654,-17.799 4.243,-28.408 0.589,-10.608 1.061,-17.091 2.711,-18.034 1.65,-0.943 4.362,-0.59 4.362,-0.59 0,0 -0.354,-1.885 1.532,-3.064 1.886,-1.179 4.008,-0.472 4.008,-0.472 0,0 0.235,-3.536 3.418,-3.182 3.182,0.353 4.597,1.885 4.597,1.885 0,0 1.296,-13.554 3.418,-25.341 1.6,-8.892 3.401,-21.537 4.696,-32.527 17.912,-5.64 36.963,-8.688 56.713,-8.688 26.168,0 51.112,5.345 73.799,14.994 -0.182,6.348 -0.326,11.783 -0.362,14.315 -0.117,8.37 -2.946,92.766 -2.946,92.766 0,0 1.297,16.148 0.707,24.518 -0.59,8.369 -6.012,58.818 -6.012,58.818 0,0 11.316,-30.529 12.141,-37.366 0.825,-6.836 1.297,-7.308 2.122,-14.145 0.825,-6.836 1.65,-11.787 -0.354,-21.335 -2.004,-9.548 -2.475,-12.494 -2.947,-20.745 -0.471,-8.251 -1.296,-10.845 -1.532,-15.441 -0.236,-4.598 0.353,-6.837 3.419,-3.89 3.064,2.946 5.893,6.247 6.365,9.43 0.471,3.182 1.767,10.018 1.767,10.018 0,0 3.183,-6.129 3.183,-10.49 0,-4.361 0.118,-4.715 -2.357,-8.604 -2.476,-3.89 -4.597,-6.366 -4.008,-7.309 0.59,-0.942 3.064,-1.061 6.012,0.353 2.946,1.416 9.311,7.309 10.843,13.438 1.534,6.13 4.244,13.909 4.362,25.461 0,0 -2.24,18.977 -5.069,31" /></g></g></g><g
       id="g108"><g
         clip-path="url(#clipPath112)"
         id="g110"><g
           transform="translate(145.8125,300.981)"
           id="g116"><path
             id="path118"
             style="fill:#514d4c;fill-opacity:1;fill-rule:nonzero;stroke:none"
             d="M 0,0 C -1.625,0.447 -3.306,0.58 -5.058,0.403 -6.81,0.224 -8.279,-0.003 -9.46,-0.292 c -3.165,-0.762 -6.209,-1.969 -9.112,-3.609 -2.917,-1.646 -5.488,-3.557 -7.719,-5.732 -2.235,-2.179 -4.078,-4.593 -5.536,-7.246 -1.454,-2.653 -2.334,-5.376 -2.652,-8.173 -0.297,-2.653 -0.079,-4.958 0.665,-6.904 0.746,-1.949 1.758,-3.727 3.05,-5.332 1.296,-1.607 2.703,-3.182 4.228,-4.737 1.522,-1.548 2.927,-3.197 4.205,-4.949 1.274,-1.749 2.269,-3.739 2.979,-5.976 0.707,-2.235 0.889,-4.897 0.542,-7.976 -0.509,-4.519 -1.955,-8.235 -4.337,-11.14 -2.381,-2.915 -5.25,-4.773 -8.614,-5.582 -3.165,-0.766 -5.482,-0.418 -6.951,1.042 -1.47,1.457 -2.05,3.55 -1.744,6.277 0.207,1.86 0.754,3.544 1.629,5.046 0.874,1.504 1.919,2.8 3.132,3.898 1.214,1.092 2.535,2.002 3.966,2.729 1.425,0.73 2.832,1.261 4.219,1.593 -0.044,1.316 -0.312,2.367 -0.801,3.156 -0.489,0.789 -1.113,1.354 -1.876,1.693 -0.765,0.341 -1.61,0.503 -2.54,0.485 -0.933,-0.014 -1.831,-0.126 -2.683,-0.333 -1.716,-0.415 -3.491,-1.207 -5.319,-2.381 -1.835,-1.171 -3.524,-2.664 -5.073,-4.466 -1.554,-1.802 -2.883,-3.922 -3.989,-6.348 -1.107,-2.429 -1.823,-5.081 -2.149,-7.946 -0.369,-3.3 -0.128,-5.962 0.735,-7.984 0.86,-2.026 2.164,-3.542 3.914,-4.552 1.742,-1.01 3.844,-1.529 6.314,-1.561 2.465,-0.035 5.112,0.289 7.946,0.972 3.563,0.859 7.084,2.234 10.564,4.119 3.486,1.887 6.636,4.228 9.453,7.036 2.819,2.809 5.192,6.069 7.114,9.775 1.925,3.707 3.144,7.82 3.654,12.336 0.435,3.874 0.267,7.074 -0.501,9.606 -0.771,2.538 -1.86,4.699 -3.259,6.489 -1.401,1.79 -2.976,3.33 -4.723,4.616 -1.745,1.287 -3.348,2.609 -4.793,3.972 -1.448,1.358 -2.605,2.889 -3.471,4.602 -0.865,1.708 -1.145,3.892 -0.848,6.542 0.365,3.227 1.46,5.847 3.292,7.855 1.831,2.014 4.131,3.353 6.895,4.022 2.773,0.668 4.602,0.406 5.494,-0.772 0.892,-1.178 1.237,-2.7 1.021,-4.563 -0.2,-1.793 -0.813,-3.666 -1.834,-5.623 -1.021,-1.955 -2.24,-3.522 -3.659,-4.703 1.018,-1.215 2.449,-1.604 4.295,-1.159 2.506,0.603 4.599,2.105 6.28,4.498 1.678,2.391 2.703,5.164 3.053,8.318 C 5.329,-6.418 4.981,-4.24 3.96,-2.809 2.932,-1.381 1.613,-0.445 0,0" /></g><g
           transform="translate(228.5806,272.5552)"
           id="g120"><path
             id="path122"
             style="fill:#514d4c;fill-opacity:1;fill-rule:nonzero;stroke:none"
             d="m 0,0 c -0.839,-3.448 -1.967,-6.789 -3.392,-10.028 -1.421,-3.238 -3.144,-6.112 -5.158,-8.62 -2.013,-2.509 -4.304,-4.069 -6.877,-4.693 -1.118,-0.268 -1.946,-0.206 -2.479,0.191 -0.532,0.389 -0.865,0.848 -0.998,1.378 l 9.233,31.52 c 1.118,1.946 2.352,3.518 3.709,4.713 1.352,1.199 2.588,1.938 3.71,2.206 0.459,0.109 0.963,0.162 1.504,0.153 C -0.2,16.811 0.285,16.561 0.709,16.072 1.134,15.581 1.463,14.789 1.693,13.69 1.92,12.595 1.92,11.008 1.684,8.93 1.398,6.418 0.836,3.445 0,0 m 13.184,24.31 c -0.94,1.063 -2.12,1.705 -3.536,1.919 C 8.231,26.444 6.695,26.356 5.05,25.958 2.544,25.355 0.307,24.395 -1.672,23.085 -3.645,21.772 -5.437,20.256 -7.039,18.542 l 2.49,8.45 -14.24,-3.433 -11.853,-40.317 -0.006,0 c -1.034,-2.9 -2.326,-5.408 -3.877,-7.525 -1.555,-2.123 -3.289,-3.409 -5.203,-3.868 -1.383,-0.333 -2.373,-0.298 -2.964,0.12 -0.599,0.409 -0.807,1.372 -0.637,2.88 0.121,1.077 0.383,2.255 0.784,3.538 l 11.25,38.283 -14.239,-3.43 -10.622,-36.148 c -1.034,-2.901 -2.311,-5.405 -3.83,-7.514 -1.522,-2.113 -3.239,-3.397 -5.15,-3.859 -1.125,-0.268 -1.846,-0.027 -2.178,0.73 -0.333,0.756 -0.424,1.745 -0.289,2.967 0.103,0.931 0.318,1.955 0.639,3.08 L -55.72,10.781 -69.955,7.346 -80.581,-28.8 c -0.836,-2.852 -1.36,-5.243 -1.578,-7.178 -0.509,-4.515 0.139,-7.554 1.955,-9.102 1.811,-1.552 4.199,-1.973 7.166,-1.255 1.054,0.257 2.191,0.651 3.404,1.19 1.213,0.536 2.49,1.313 3.823,2.332 1.332,1.018 2.719,2.346 4.152,3.986 1.437,1.634 2.904,3.716 4.41,6.238 -0.052,-3.291 0.663,-5.594 2.153,-6.906 1.487,-1.319 3.642,-1.635 6.483,-0.951 1.316,0.317 2.856,0.897 4.616,1.743 1.764,0.845 3.63,2.182 5.602,4.018 1.208,1.128 2.433,2.485 3.672,4.063 l -10.131,-34.443 15.366,7.472 8.102,27.481 c 0.415,-0.878 1.219,-1.552 2.421,-2.034 1.192,-0.478 3.044,-0.416 5.546,0.188 3.165,0.762 6.053,2.052 8.664,3.868 2.606,1.817 4.914,3.925 6.916,6.327 2.002,2.396 3.76,5.052 5.274,7.964 1.515,2.911 2.811,5.873 3.891,8.888 1.078,3.015 1.92,5.956 2.535,8.827 0.613,2.87 1.06,5.52 1.33,7.958 0.369,3.227 0.357,5.841 -0.026,7.84 -0.386,1.999 -1.045,3.53 -1.981,4.596" /></g><g
           transform="translate(262.3111,286.3516)"
           id="g124"><path
             id="path126"
             style="fill:#514d4c;fill-opacity:1;fill-rule:nonzero;stroke:none"
             d="m 0,0 c 1.11,2.764 2.314,5.293 3.599,7.581 1.283,2.288 2.59,4.219 3.924,5.785 1.331,1.572 2.623,2.511 3.874,2.812 0.925,0.221 1.519,-0.015 1.796,-0.716 0.274,-0.694 0.336,-1.725 0.183,-3.076 C 13.131,10.246 12.52,8.064 11.529,5.85 10.543,3.63 9.301,1.583 7.806,-0.306 6.307,-2.193 4.629,-3.848 2.773,-5.264 0.913,-6.687 -0.982,-7.702 -2.908,-8.306 -2.084,-5.535 -1.115,-2.771 0,0 m 60.273,31.205 c -0.968,1.369 -2.57,1.787 -4.816,1.248 -1.977,-0.48 -4.084,-1.687 -6.322,-3.616 -2.24,-1.94 -4.428,-4.142 -6.565,-6.606 l 2.149,7.107 -14.235,-3.433 -10.678,-36.316 c -1.372,-1.737 -2.732,-3.391 -4.087,-4.961 -1.401,-1.628 -2.847,-3.094 -4.339,-4.392 -1.493,-1.304 -3.062,-2.429 -4.714,-3.383 -1.643,-0.963 -3.456,-1.675 -5.432,-2.152 -2.376,-0.572 -4.087,-0.412 -5.14,0.486 -1.051,0.9 -1.375,3.176 -0.963,6.83 0.074,0.648 0.168,1.331 0.279,2.055 0.118,0.727 0.251,1.493 0.406,2.297 2.981,0.924 5.895,2.311 8.75,4.151 2.86,1.84 5.451,3.998 7.774,6.477 2.322,2.476 4.257,5.193 5.803,8.146 1.544,2.953 2.487,5.939 2.829,8.947 0.156,1.364 0.153,2.618 -0.006,3.766 -0.159,1.148 -0.598,2.108 -1.314,2.876 -0.715,0.769 -1.748,1.269 -3.096,1.499 -1.355,0.232 -3.118,0.088 -5.294,-0.439 -3.36,-0.809 -6.436,-2.178 -9.215,-4.104 -2.782,-1.925 -5.285,-4.204 -7.505,-6.83 -2.223,-2.629 -4.172,-5.456 -5.861,-8.48 -1.691,-3.017 -3.104,-6.029 -4.244,-9.02 -1.138,-2.997 -2.057,-5.871 -2.749,-8.621 -0.695,-2.743 -1.163,-5.158 -1.399,-7.239 -0.685,-6.095 0.227,-10.131 2.75,-12.101 2.521,-1.975 6.133,-2.393 10.847,-1.257 3.294,0.795 6.356,2.093 9.188,3.889 2.832,1.802 5.477,3.901 7.926,6.31 2.364,2.314 4.537,4.816 6.524,7.498 l -3.598,-12.235 14.241,3.433 12.524,42.778 c 1.461,1.604 2.8,2.938 4.007,4.001 1.214,1.057 2.441,1.74 3.696,2.04 0.727,0.177 1.133,-0.079 1.215,-0.75 0.082,-0.681 0.177,-1.408 0.28,-2.185 0.109,-0.774 0.365,-1.463 0.78,-2.061 0.415,-0.598 1.313,-0.73 2.694,-0.398 1.19,0.289 2.252,0.769 3.198,1.452 0.939,0.683 1.749,1.469 2.428,2.367 0.681,0.892 1.216,1.843 1.619,2.847 0.401,1.004 0.658,1.97 0.76,2.903 0.236,2.081 -0.13,3.804 -1.095,5.176" /></g><g
           transform="translate(144.0367,303.0566)"
           id="g128"><path
             id="path130"
             style="fill:#ffffff;fill-opacity:1;fill-rule:nonzero;stroke:none"
             d="m 0,0 c -1.616,0.444 -3.3,0.58 -5.051,0.403 -1.752,-0.179 -3.221,-0.409 -4.408,-0.697 -3.165,-0.763 -6.2,-1.967 -9.109,-3.61 -2.912,-1.643 -5.488,-3.554 -7.72,-5.732 -2.234,-2.179 -4.077,-4.593 -5.526,-7.246 -1.457,-2.65 -2.341,-5.376 -2.655,-8.173 -0.303,-2.653 -0.083,-4.952 0.659,-6.901 0.745,-1.949 1.758,-3.727 3.053,-5.332 1.293,-1.61 2.702,-3.182 4.225,-4.734 1.528,-1.552 2.927,-3.203 4.204,-4.952 1.277,-1.752 2.269,-3.739 2.98,-5.977 0.712,-2.234 0.892,-4.895 0.541,-7.978 -0.509,-4.516 -1.954,-8.232 -4.333,-11.144 -2.382,-2.908 -5.253,-4.769 -8.615,-5.579 -3.165,-0.765 -5.482,-0.415 -6.951,1.042 -1.47,1.461 -2.055,3.554 -1.746,6.277 0.212,1.867 0.754,3.548 1.628,5.046 0.875,1.505 1.917,2.8 3.133,3.899 1.215,1.092 2.535,2.005 3.965,2.732 1.429,0.73 2.833,1.26 4.22,1.593 -0.045,1.315 -0.313,2.367 -0.799,3.153 -0.485,0.792 -1.115,1.357 -1.878,1.696 -0.765,0.338 -1.61,0.5 -2.541,0.485 -0.933,-0.015 -1.825,-0.129 -2.682,-0.335 -1.716,-0.413 -3.489,-1.207 -5.32,-2.379 -1.829,-1.175 -3.524,-2.662 -5.072,-4.464 -1.549,-1.807 -2.88,-3.924 -3.987,-6.353 -1.107,-2.429 -1.825,-5.078 -2.149,-7.946 -0.371,-3.297 -0.129,-5.959 0.733,-7.985 0.866,-2.025 2.163,-3.538 3.913,-4.548 1.743,-1.01 3.848,-1.528 6.315,-1.563 2.464,-0.036 5.114,0.291 7.952,0.974 3.554,0.86 7.078,2.232 10.563,4.119 3.481,1.884 6.631,4.231 9.449,7.04 2.82,2.805 5.19,6.061 7.115,9.774 1.926,3.703 3.144,7.813 3.654,12.33 0.435,3.874 0.271,7.077 -0.504,9.612 -0.771,2.535 -1.857,4.693 -3.258,6.486 -1.402,1.787 -2.974,3.327 -4.72,4.613 -1.749,1.29 -3.344,2.609 -4.793,3.975 -1.448,1.36 -2.609,2.888 -3.471,4.602 -0.866,1.708 -1.152,3.889 -0.851,6.545 0.365,3.227 1.463,5.844 3.292,7.852 1.831,2.01 4.127,3.353 6.9,4.019 2.768,0.665 4.597,0.409 5.491,-0.769 0.893,-1.178 1.234,-2.7 1.025,-4.563 -0.203,-1.796 -0.819,-3.669 -1.84,-5.624 -1.022,-1.954 -2.238,-3.521 -3.651,-4.699 1.013,-1.221 2.444,-1.61 4.29,-1.162 2.499,0.603 4.592,2.102 6.277,4.495 1.678,2.391 2.699,5.167 3.055,8.323 C 5.335,-6.424 4.987,-4.24 3.96,-2.809 2.936,-1.384 1.616,-0.448 0,0" /></g><g
           transform="translate(226.8111,274.6279)"
           id="g132"><path
             id="path134"
             style="fill:#ffffff;fill-opacity:1;fill-rule:nonzero;stroke:none"
             d="m 0,0 c -0.839,-3.448 -1.97,-6.79 -3.392,-10.025 -1.424,-3.235 -3.147,-6.115 -5.158,-8.618 -2.013,-2.511 -4.306,-4.074 -6.874,-4.695 -1.124,-0.271 -1.949,-0.206 -2.479,0.188 -0.533,0.392 -0.868,0.851 -1.001,1.381 l 9.236,31.523 c 1.115,1.943 2.353,3.512 3.703,4.71 1.352,1.196 2.594,1.932 3.713,2.205 0.462,0.11 0.963,0.16 1.508,0.151 0.541,-0.009 1.027,-0.257 1.454,-0.748 0.424,-0.486 0.751,-1.28 0.983,-2.376 C 1.92,12.598 1.917,11.014 1.678,8.933 1.401,6.421 0.836,3.444 0,0 m 13.182,24.312 c -0.937,1.066 -2.115,1.705 -3.535,1.92 -1.418,0.215 -2.952,0.127 -4.6,-0.271 -2.503,-0.6 -4.746,-1.563 -6.722,-2.876 -1.975,-1.313 -3.765,-2.827 -5.367,-4.54 l 2.49,8.45 -14.234,-3.433 -11.86,-40.314 -0.005,0 c -1.033,-2.906 -2.323,-5.412 -3.878,-7.531 -1.554,-2.117 -3.288,-3.407 -5.199,-3.869 -1.38,-0.333 -2.376,-0.291 -2.968,0.121 -0.592,0.418 -0.806,1.378 -0.635,2.882 0.123,1.078 0.382,2.255 0.783,3.539 l 11.252,38.282 -14.241,-3.432 -10.619,-36.149 c -1.036,-2.897 -2.315,-5.402 -3.833,-7.512 -1.522,-2.112 -3.239,-3.395 -5.149,-3.855 -1.12,-0.27 -1.846,-0.029 -2.179,0.728 -0.333,0.757 -0.427,1.746 -0.288,2.965 0.103,0.933 0.317,1.958 0.635,3.084 l 11.253,38.28 -14.244,-3.432 -10.62,-36.142 c -0.836,-2.856 -1.363,-5.247 -1.581,-7.184 -0.512,-4.517 0.139,-7.552 1.955,-9.101 1.808,-1.554 4.202,-1.969 7.166,-1.254 1.054,0.256 2.194,0.651 3.407,1.187 1.216,0.535 2.488,1.312 3.821,2.337 1.334,1.017 2.717,2.341 4.151,3.98 1.437,1.638 2.91,3.716 4.411,6.243 -0.05,-3.292 0.668,-5.594 2.151,-6.911 1.488,-1.316 3.649,-1.63 6.484,-0.948 1.316,0.319 2.853,0.902 4.622,1.74 1.761,0.845 3.624,2.185 5.597,4.022 1.213,1.125 2.435,2.485 3.671,4.063 l -10.13,-34.446 15.365,7.472 8.108,27.483 c 0.41,-0.88 1.219,-1.557 2.415,-2.034 1.195,-0.477 3.043,-0.415 5.552,0.188 3.159,0.763 6.047,2.052 8.658,3.869 2.606,1.814 4.914,3.921 6.913,6.324 2.005,2.399 3.763,5.055 5.282,7.964 1.51,2.914 2.809,5.873 3.889,8.891 1.078,3.015 1.926,5.956 2.538,8.824 0.607,2.87 1.054,5.52 1.325,7.96 0.366,3.225 0.356,5.839 -0.027,7.841 -0.383,1.999 -1.045,3.53 -1.98,4.595" /></g><g
           transform="translate(260.5396,288.4243)"
           id="g136"><path
             id="path138"
             style="fill:#ffffff;fill-opacity:1;fill-rule:nonzero;stroke:none"
             d="m 0,0 c 1.115,2.767 2.314,5.296 3.601,7.584 1.28,2.288 2.59,4.216 3.924,5.788 1.33,1.566 2.621,2.505 3.877,2.809 0.918,0.22 1.52,-0.018 1.793,-0.716 0.268,-0.697 0.333,-1.725 0.18,-3.076 C 13.134,10.245 12.518,8.067 11.529,5.85 10.539,3.636 9.303,1.583 7.805,-0.307 6.309,-2.194 4.631,-3.845 2.77,-5.265 0.912,-6.687 -0.983,-7.696 -2.906,-8.303 -2.082,-5.535 -1.116,-2.765 0,0 m 60.275,31.21 c -0.971,1.37 -2.576,1.785 -4.814,1.243 C 53.482,31.976 51.375,30.772 49.138,28.837 46.9,26.9 44.709,24.698 42.572,22.231 l 2.149,7.11 -14.238,-3.436 -10.678,-36.313 c -1.369,-1.737 -2.733,-3.391 -4.08,-4.958 -1.405,-1.634 -2.854,-3.094 -4.346,-4.398 -1.496,-1.298 -3.065,-2.429 -4.708,-3.383 -1.649,-0.96 -3.462,-1.675 -5.438,-2.152 -2.373,-0.569 -4.087,-0.409 -5.14,0.491 -1.051,0.895 -1.375,3.171 -0.957,6.828 0.071,0.645 0.162,1.331 0.28,2.055 0.111,0.724 0.247,1.489 0.4,2.296 2.979,0.928 5.894,2.309 8.75,4.149 2.859,1.84 5.45,3.998 7.773,6.48 2.319,2.476 4.257,5.19 5.806,8.146 1.544,2.953 2.49,5.936 2.826,8.947 0.156,1.361 0.153,2.618 -0.003,3.763 -0.159,1.151 -0.595,2.108 -1.31,2.879 -0.719,0.766 -1.749,1.269 -3.103,1.502 -1.355,0.226 -3.118,0.085 -5.294,-0.442 -3.359,-0.81 -6.43,-2.175 -9.212,-4.104 -2.785,-1.925 -5.287,-4.201 -7.508,-6.83 -2.22,-2.63 -4.172,-5.456 -5.861,-8.48 -1.684,-3.02 -3.104,-6.029 -4.243,-9.023 -1.139,-2.997 -2.055,-5.868 -2.749,-8.615 -0.696,-2.75 -1.164,-5.164 -1.393,-7.243 -0.69,-6.094 0.226,-10.13 2.744,-12.1 2.523,-1.978 6.138,-2.393 10.846,-1.257 3.297,0.792 6.359,2.093 9.191,3.889 2.83,1.799 5.473,3.901 7.926,6.307 2.361,2.317 4.534,4.816 6.524,7.498 l -3.594,-12.235 14.231,3.432 12.53,42.779 c 1.463,1.61 2.797,2.941 4.014,4.004 1.203,1.057 2.438,1.737 3.689,2.043 0.723,0.174 1.127,-0.08 1.212,-0.756 0.083,-0.678 0.18,-1.405 0.283,-2.179 0.103,-0.78 0.365,-1.467 0.777,-2.067 0.416,-0.595 1.313,-0.73 2.7,-0.395 1.184,0.286 2.249,0.769 3.189,1.452 0.945,0.68 1.752,1.469 2.431,2.364 0.68,0.895 1.217,1.843 1.623,2.85 0.401,1.001 0.657,1.97 0.759,2.903 0.235,2.078 -0.132,3.803 -1.095,5.178" /></g><g
           transform="translate(137.2735,204.6069)"
           id="g140"><path
             id="path142"
             style="fill:#514d4c;fill-opacity:1;fill-rule:nonzero;stroke:none"
             d="m 0,0 -6.918,-22.873 0.544,0.127 c 1.818,0.423 3.573,1.31 5.269,2.662 1.693,1.353 3.222,2.92 4.586,4.707 1.364,1.786 2.509,3.712 3.436,5.78 0.927,2.067 1.503,4.021 1.726,5.861 0.167,1.38 0.099,2.658 -0.202,3.832 C 8.14,1.271 7.579,2.242 6.757,3.009 5.936,3.775 4.801,4.277 3.356,4.516 1.908,4.753 0.092,4.618 -2.094,4.109 -4.766,3.487 -7.514,2.37 -10.335,0.755 c -2.822,-1.613 -5.444,-3.66 -7.87,-6.141 -2.424,-2.479 -4.502,-5.374 -6.229,-8.68 -1.73,-3.31 -2.839,-6.999 -3.332,-11.073 -0.143,-1.182 -0.197,-2.137 -0.158,-2.861 0.037,-0.728 0.091,-1.32 0.163,-1.781 0.071,-0.464 0.169,-0.823 0.296,-1.081 0.125,-0.258 0.208,-0.478 0.251,-0.661 -3.03,-0.706 -5.326,-0.584 -6.889,0.361 -1.563,0.944 -2.142,3.093 -1.736,6.444 0.413,3.416 1.718,6.897 3.913,10.44 2.194,3.543 4.968,6.886 8.322,10.03 3.351,3.143 7.099,5.897 11.243,8.268 4.141,2.367 8.363,4.052 12.664,5.052 3.331,0.776 6.154,1.003 8.47,0.679 2.315,-0.323 4.188,-1.022 5.619,-2.093 1.43,-1.072 2.411,-2.455 2.942,-4.151 0.529,-1.697 0.672,-3.565 0.426,-5.601 -0.358,-2.956 -1.481,-6.028 -3.367,-9.212 -1.887,-3.184 -4.426,-6.043 -7.617,-8.572 1.891,0.057 3.457,-0.266 4.696,-0.967 1.24,-0.702 2.196,-1.659 2.875,-2.874 0.677,-1.217 1.106,-2.648 1.29,-4.297 0.183,-1.65 0.163,-3.396 -0.059,-5.235 -0.286,-2.364 -0.944,-5.246 -1.974,-8.647 -1.028,-3.401 -2.496,-6.759 -4.398,-10.075 -1.902,-3.315 -4.25,-6.304 -7.046,-8.966 -2.793,-2.663 -6.099,-4.437 -9.916,-5.325 -0.969,-0.225 -1.971,-0.362 -3.007,-0.412 -1.037,-0.051 -1.963,0.087 -2.776,0.407 -0.815,0.322 -1.452,0.891 -1.912,1.71 -0.461,0.818 -0.599,1.984 -0.416,3.495 0.199,1.642 0.823,3.64 1.872,5.991 0.992,-1.047 1.925,-1.724 2.801,-2.031 0.876,-0.307 1.827,-0.34 2.858,-0.1 1.635,0.381 3.098,1.278 4.388,2.697 1.29,1.417 2.404,3.081 3.342,4.992 0.937,1.909 1.681,3.936 2.236,6.076 0.553,2.139 0.945,4.161 1.176,6.068 0.207,1.707 0.263,3.285 0.174,4.733 -0.091,1.447 -0.402,2.668 -0.93,3.663 -0.528,0.994 -1.314,1.69 -2.36,2.084 -1.044,0.396 -2.385,0.403 -4.025,0.022 -0.365,-0.085 -0.943,-0.236 -1.736,-0.452 -0.794,-0.218 -1.624,-0.49 -2.491,-0.819 L -20.601,-67.625 -33.72,-70.678 -13.732,-5.111 0,0 Z" /></g><g
           transform="translate(179.1148,199.4009)"
           id="g144"><path
             id="path146"
             style="fill:#514d4c;fill-opacity:1;fill-rule:nonzero;stroke:none"
             d="m 0,0 -2.023,-6.504 c 1.979,2.247 4.002,4.25 6.07,6.009 2.067,1.759 4.009,2.849 5.827,3.272 2.058,0.479 3.526,0.085 4.404,-1.177 0.876,-1.267 1.2,-2.851 0.97,-4.755 -0.104,-0.856 -0.343,-1.741 -0.719,-2.658 -0.377,-0.919 -0.879,-1.786 -1.508,-2.602 -0.628,-0.816 -1.376,-1.533 -2.247,-2.15 -0.87,-0.62 -1.849,-1.053 -2.94,-1.307 -1.271,-0.296 -2.094,-0.17 -2.469,0.382 -0.375,0.551 -0.608,1.183 -0.698,1.897 -0.09,0.712 -0.172,1.38 -0.243,2.004 -0.072,0.619 -0.442,0.854 -1.108,0.698 -1.151,-0.267 -2.284,-0.882 -3.401,-1.844 -1.119,-0.964 -2.353,-2.175 -3.708,-3.64 L -15.594,-51.518 -28.677,-54.563 -13.083,-3.045 0,0 Z" /></g><g
           transform="translate(218.4126,203.0855)"
           id="g148"><path
             id="path150"
             style="fill:#514d4c;fill-opacity:1;fill-rule:nonzero;stroke:none"
             d="m 0,0 c -1.939,-0.451 -3.814,-1.829 -5.623,-4.133 -1.81,-2.304 -3.428,-4.98 -4.856,-8.026 -1.428,-3.047 -2.636,-6.201 -3.618,-9.462 -0.984,-3.262 -1.613,-6.043 -1.892,-8.342 -0.231,-1.907 -0.241,-3.329 -0.031,-4.268 0.209,-0.943 0.512,-1.606 0.907,-1.993 0.394,-0.387 0.843,-0.569 1.346,-0.549 0.502,0.021 0.966,0.082 1.39,0.18 0.666,0.155 1.399,0.5 2.201,1.039 0.801,0.536 1.608,1.251 2.424,2.144 0.814,0.891 1.559,1.943 2.236,3.155 0.676,1.211 1.251,2.572 1.73,4.09 l 7.057,23.287 c 0.032,0.262 -0.003,0.59 -0.102,0.983 -0.1,0.391 -0.262,0.752 -0.487,1.083 C 2.457,-0.481 2.136,-0.22 1.717,-0.03 1.299,0.159 0.727,0.17 0,0 M 19.305,9.952 8.617,-25.099 c -0.378,-1.174 -0.626,-2.253 -0.745,-3.238 -0.167,-1.38 0.02,-2.263 0.563,-2.646 0.541,-0.387 1.448,-0.43 2.72,-0.134 1.756,0.408 3.356,1.578 4.796,3.511 1.44,1.929 2.645,4.221 3.613,6.875 l 3.817,0.887 c -1.758,-4.303 -3.581,-7.81 -5.467,-10.513 -1.889,-2.708 -3.738,-4.864 -5.551,-6.465 -1.813,-1.604 -3.526,-2.752 -5.141,-3.448 -1.616,-0.696 -3.029,-1.183 -4.239,-1.465 -2.484,-0.578 -4.41,-0.324 -5.779,0.762 -1.37,1.085 -2.066,2.998 -2.087,5.741 -0.803,-1.273 -1.723,-2.573 -2.768,-3.901 -1.043,-1.329 -2.178,-2.551 -3.402,-3.665 -1.224,-1.115 -2.534,-2.091 -3.93,-2.926 -1.396,-0.835 -2.912,-1.443 -4.547,-1.824 -1.575,-0.366 -3.041,-0.435 -4.396,-0.209 -1.357,0.226 -2.534,0.83 -3.533,1.812 -1,0.979 -1.713,2.394 -2.135,4.245 -0.426,1.847 -0.458,4.251 -0.1,7.208 0.27,2.233 0.772,4.68 1.507,7.342 0.733,2.66 1.679,5.37 2.838,8.13 1.158,2.76 2.516,5.471 4.074,8.133 1.559,2.66 3.325,5.098 5.301,7.315 1.975,2.216 4.103,4.115 6.386,5.7 2.279,1.584 4.754,2.686 7.42,3.308 0.726,0.168 1.492,0.298 2.299,0.39 C 0.936,5.918 1.665,5.862 2.318,5.665 2.97,5.465 3.512,5.081 3.944,4.511 4.375,3.94 4.614,3.118 4.661,2.044 l 1.47,4.842 13.174,3.066 z" /></g><g
           transform="translate(266.1099,214.1851)"
           id="g152"><path
             id="path154"
             style="fill:#514d4c;fill-opacity:1;fill-rule:nonzero;stroke:none"
             d="m 0,0 c -1.939,-0.451 -3.805,-1.764 -5.597,-3.936 -1.795,-2.174 -3.39,-4.668 -4.792,-7.483 -1.4,-2.816 -2.579,-5.741 -3.533,-8.772 -0.956,-3.035 -1.564,-5.633 -1.827,-7.801 -0.23,-1.906 -0.242,-3.329 -0.031,-4.27 0.208,-0.941 0.511,-1.605 0.907,-1.991 0.394,-0.387 0.842,-0.57 1.346,-0.549 0.503,0.022 0.966,0.081 1.39,0.181 1.332,0.309 2.918,1.38 4.76,3.214 1.84,1.832 3.238,4.264 4.193,7.297 l 6.469,21.332 c 0.01,0.576 -0.187,1.263 -0.59,2.065 C 2.291,0.086 1.393,0.324 0,0 m -21.024,-60.635 c -0.087,-0.722 0.082,-1.385 0.509,-1.988 0.427,-0.603 1.156,-0.785 2.187,-0.546 0.968,0.226 2.025,1.176 3.169,2.846 1.143,1.671 2.198,4.055 3.161,7.152 l 0.892,2.985 c -1.207,-0.726 -2.389,-1.497 -3.547,-2.309 -1.159,-0.812 -2.189,-1.659 -3.088,-2.538 -0.903,-0.881 -1.645,-1.787 -2.229,-2.723 -0.585,-0.932 -0.935,-1.893 -1.054,-2.879 M 19.306,9.951 4.777,-37.869 c 2.912,1.698 5.387,3.775 7.42,6.226 2.032,2.453 3.945,5.963 5.734,10.531 l 3.816,0.887 c -1.307,-3.498 -2.713,-6.473 -4.216,-8.929 -1.504,-2.458 -3.066,-4.546 -4.686,-6.264 -1.622,-1.718 -3.237,-3.132 -4.841,-4.239 -1.607,-1.109 -3.129,-2.022 -4.569,-2.739 L 1.213,-49.81 c -1.097,-3.703 -2.397,-6.783 -3.901,-9.24 -1.504,-2.457 -3.071,-4.465 -4.703,-6.027 -1.631,-1.561 -3.29,-2.743 -4.976,-3.552 -1.687,-0.807 -3.289,-1.389 -4.803,-1.741 -2.786,-0.649 -5.083,-0.415 -6.892,0.696 -1.807,1.111 -2.516,3.278 -2.126,6.497 0.247,2.037 0.918,3.948 2.019,5.738 1.099,1.788 2.431,3.437 3.999,4.953 1.565,1.513 3.275,2.885 5.133,4.116 1.855,1.23 3.668,2.337 5.435,3.322 l 2.74,8.78 c -1.547,-2.085 -3.325,-3.999 -5.33,-5.743 -2.007,-1.744 -4.343,-2.926 -7.007,-3.546 -1.576,-0.366 -3.042,-0.435 -4.397,-0.208 -1.356,0.226 -2.534,0.831 -3.533,1.813 -1.001,0.977 -1.712,2.393 -2.136,4.243 -0.424,1.848 -0.456,4.252 -0.098,7.209 0.255,2.102 0.738,4.399 1.453,6.898 0.714,2.496 1.64,5.059 2.785,7.688 1.142,2.627 2.484,5.207 4.026,7.737 1.541,2.529 3.295,4.852 5.259,6.97 1.963,2.117 4.08,3.935 6.355,5.454 2.273,1.519 4.743,2.589 7.409,3.209 0.726,0.169 1.493,0.299 2.299,0.391 C 1.027,5.939 1.756,5.883 2.41,5.686 3.062,5.485 3.606,5.116 4.043,4.58 4.478,4.043 4.715,3.205 4.754,2.064 l 1.469,4.843 13.083,3.044 z" /></g><g
           transform="translate(312.2661,224.9253)"
           id="g156"><path
             id="path158"
             style="fill:#514d4c;fill-opacity:1;fill-rule:nonzero;stroke:none"
             d="m 0,0 c -1.939,-0.451 -3.814,-1.83 -5.623,-4.134 -1.811,-2.303 -3.428,-4.98 -4.856,-8.025 -1.427,-3.047 -2.635,-6.202 -3.619,-9.463 -0.982,-3.261 -1.613,-6.042 -1.891,-8.341 -0.231,-1.907 -0.241,-3.33 -0.031,-4.269 0.208,-0.943 0.512,-1.606 0.907,-1.993 0.394,-0.386 0.843,-0.569 1.345,-0.548 0.502,0.02 0.967,0.081 1.391,0.179 0.666,0.156 1.398,0.5 2.201,1.039 0.801,0.536 1.608,1.251 2.424,2.145 0.814,0.891 1.558,1.942 2.235,3.154 0.676,1.211 1.252,2.573 1.732,4.09 L 3.271,-2.879 C 3.303,-2.617 3.268,-2.289 3.17,-1.896 3.07,-1.505 2.906,-1.143 2.683,-0.812 2.457,-0.481 2.136,-0.221 1.717,-0.03 1.299,0.159 0.727,0.169 0,0 M 19.214,9.93 8.617,-25.099 c -0.377,-1.174 -0.626,-2.254 -0.745,-3.239 -0.167,-1.38 0.021,-2.263 0.563,-2.646 0.542,-0.386 1.449,-0.429 2.72,-0.133 0.787,0.182 1.47,0.469 2.047,0.858 -0.813,-1.85 -1.583,-3.466 -2.307,-4.845 -0.728,-1.384 -1.474,-2.563 -2.239,-3.539 -0.767,-0.978 -1.613,-1.764 -2.538,-2.363 -0.927,-0.599 -1.995,-1.039 -3.206,-1.32 -2.484,-0.578 -4.4,-0.243 -5.75,1.009 -1.349,1.249 -2.031,3.277 -2.045,6.084 -0.803,-1.273 -1.724,-2.573 -2.768,-3.901 -1.043,-1.328 -2.178,-2.551 -3.401,-3.665 -1.225,-1.114 -2.535,-2.09 -3.931,-2.926 -1.396,-0.834 -2.912,-1.443 -4.546,-1.823 -1.576,-0.367 -3.042,-0.435 -4.398,-0.209 -1.356,0.225 -2.534,0.83 -3.532,1.812 -1.001,0.978 -1.713,2.394 -2.136,4.244 -0.426,1.847 -0.456,4.251 -0.098,7.208 0.27,2.233 0.771,4.681 1.506,7.343 0.734,2.66 1.679,5.37 2.838,8.129 1.159,2.76 2.517,5.472 4.075,8.133 1.557,2.66 3.325,5.099 5.3,7.315 1.976,2.216 4.103,4.115 6.385,5.7 2.281,1.585 4.755,2.687 7.421,3.308 0.727,0.169 1.493,0.298 2.298,0.39 C 0.936,5.918 1.664,5.861 2.318,5.664 2.97,5.464 3.513,5.08 3.945,4.51 4.375,3.94 4.615,3.117 4.662,2.043 L 6.131,6.886 19.214,9.93 Z" /></g><g
           transform="translate(135.6045,206.2427)"
           id="g160"><path
             id="path162"
             style="fill:#ffffff;fill-opacity:1;fill-rule:nonzero;stroke:none"
             d="m 0,0 -6.918,-22.874 0.544,0.127 c 1.819,0.423 3.573,1.311 5.269,2.663 1.693,1.353 3.222,2.92 4.586,4.707 1.365,1.785 2.509,3.711 3.437,5.78 0.927,2.067 1.502,4.021 1.725,5.861 0.167,1.381 0.1,2.657 -0.202,3.831 C 8.142,1.271 7.58,2.242 6.757,3.008 5.936,3.775 4.802,4.277 3.356,4.516 1.909,4.754 0.093,4.618 -2.093,4.109 -4.765,3.488 -7.512,2.369 -10.334,0.755 c -2.822,-1.614 -5.444,-3.661 -7.871,-6.141 -2.424,-2.479 -4.501,-5.374 -6.229,-8.681 -1.728,-3.308 -2.839,-6.998 -3.332,-11.071 -0.143,-1.183 -0.196,-2.138 -0.157,-2.863 0.038,-0.726 0.091,-1.318 0.162,-1.781 0.072,-0.463 0.17,-0.822 0.296,-1.081 0.126,-0.258 0.21,-0.478 0.251,-0.659 -3.029,-0.706 -5.325,-0.585 -6.889,0.36 -1.563,0.944 -2.141,3.093 -1.735,6.444 0.413,3.415 1.717,6.897 3.912,10.441 2.195,3.542 4.968,6.885 8.322,10.028 3.352,3.143 7.1,5.898 11.243,8.269 4.142,2.367 8.363,4.052 12.665,5.053 3.331,0.776 6.154,1.001 8.471,0.679 2.313,-0.324 4.187,-1.023 5.618,-2.094 1.429,-1.071 2.41,-2.456 2.941,-4.151 0.53,-1.697 0.672,-3.565 0.426,-5.601 -0.358,-2.957 -1.48,-6.028 -3.366,-9.212 -1.887,-3.184 -4.426,-6.044 -7.617,-8.572 1.891,0.057 3.457,-0.266 4.695,-0.967 1.24,-0.702 2.198,-1.66 2.877,-2.875 0.676,-1.216 1.105,-2.648 1.289,-4.297 0.183,-1.65 0.163,-3.394 -0.059,-5.234 -0.287,-2.364 -0.945,-5.247 -1.974,-8.647 -1.029,-3.401 -2.496,-6.759 -4.398,-10.075 -1.903,-3.316 -4.251,-6.304 -7.046,-8.966 -2.793,-2.662 -6.099,-4.437 -9.916,-5.325 -0.97,-0.225 -1.972,-0.362 -3.008,-0.413 -1.037,-0.049 -1.962,0.087 -2.775,0.408 -0.816,0.321 -1.452,0.891 -1.913,1.71 -0.461,0.818 -0.598,1.983 -0.415,3.495 0.199,1.642 0.822,3.639 1.872,5.991 0.991,-1.047 1.925,-1.723 2.801,-2.03 0.875,-0.308 1.827,-0.34 2.857,-0.101 1.636,0.381 3.098,1.278 4.389,2.697 1.289,1.416 2.404,3.08 3.342,4.991 0.937,1.91 1.681,3.936 2.236,6.077 0.553,2.139 0.944,4.161 1.175,6.068 0.207,1.707 0.264,3.284 0.174,4.733 -0.09,1.448 -0.401,2.667 -0.929,3.662 -0.529,0.995 -1.314,1.69 -2.36,2.085 -1.045,0.395 -2.386,0.404 -4.025,0.022 -0.365,-0.085 -0.943,-0.236 -1.737,-0.452 -0.793,-0.218 -1.624,-0.491 -2.49,-0.819 L -20.6,-67.624 -33.719,-70.678 -13.731,-5.111 0,0 Z" /></g><g
           transform="translate(177.4473,201.0366)"
           id="g164"><path
             id="path166"
             style="fill:#ffffff;fill-opacity:1;fill-rule:nonzero;stroke:none"
             d="m 0,0 -2.023,-6.505 c 1.978,2.248 4.001,4.251 6.068,6.011 2.068,1.758 4.01,2.848 5.827,3.27 2.059,0.48 3.526,0.087 4.404,-1.177 0.877,-1.266 1.202,-2.851 0.971,-4.755 -0.103,-0.855 -0.343,-1.74 -0.72,-2.656 -0.376,-0.919 -0.877,-1.787 -1.506,-2.603 -0.628,-0.816 -1.378,-1.534 -2.247,-2.151 -0.87,-0.619 -1.85,-1.053 -2.94,-1.307 -1.272,-0.296 -2.096,-0.168 -2.47,0.383 -0.375,0.551 -0.607,1.183 -0.697,1.897 -0.09,0.712 -0.174,1.38 -0.245,2.003 -0.07,0.62 -0.44,0.855 -1.106,0.7 -1.151,-0.268 -2.286,-0.883 -3.402,-1.845 -1.119,-0.964 -2.353,-2.176 -3.709,-3.641 L -15.596,-51.518 -28.679,-54.562 -13.083,-3.044 0,0 Z" /></g><g
           transform="translate(216.7437,204.7222)"
           id="g168"><path
             id="path170"
             style="fill:#ffffff;fill-opacity:1;fill-rule:nonzero;stroke:none"
             d="m 0,0 c -1.939,-0.451 -3.814,-1.831 -5.623,-4.134 -1.809,-2.304 -3.427,-4.98 -4.855,-8.026 -1.428,-3.047 -2.636,-6.202 -3.619,-9.462 -0.983,-3.262 -1.613,-6.043 -1.892,-8.342 -0.231,-1.906 -0.24,-3.329 -0.03,-4.269 0.208,-0.942 0.512,-1.606 0.906,-1.993 0.395,-0.385 0.844,-0.569 1.346,-0.547 0.502,0.02 0.967,0.081 1.391,0.179 0.666,0.156 1.398,0.5 2.201,1.039 0.8,0.535 1.608,1.25 2.424,2.145 0.814,0.89 1.558,1.942 2.235,3.153 0.677,1.211 1.252,2.574 1.731,4.09 L 3.271,-2.879 C 3.303,-2.617 3.268,-2.29 3.17,-1.896 3.07,-1.505 2.908,-1.143 2.684,-0.812 2.457,-0.481 2.136,-0.222 1.718,-0.031 1.299,0.159 0.727,0.169 0,0 M 19.306,9.951 8.617,-25.1 c -0.377,-1.174 -0.626,-2.254 -0.745,-3.238 -0.167,-1.38 0.021,-2.264 0.563,-2.647 0.542,-0.385 1.45,-0.429 2.721,-0.132 1.755,0.408 3.355,1.577 4.796,3.509 1.439,1.93 2.644,4.222 3.613,6.875 l 3.816,0.888 c -1.758,-4.304 -3.58,-7.81 -5.466,-10.514 -1.89,-2.707 -3.738,-4.862 -5.551,-6.464 -1.814,-1.605 -3.526,-2.752 -5.141,-3.448 -1.616,-0.696 -3.029,-1.183 -4.24,-1.464 -2.484,-0.578 -4.409,-0.326 -5.779,0.761 -1.369,1.085 -2.065,2.999 -2.086,5.741 -0.803,-1.274 -1.724,-2.573 -2.769,-3.901 -1.043,-1.329 -2.177,-2.551 -3.4,-3.665 -1.226,-1.115 -2.535,-2.091 -3.932,-2.927 -1.395,-0.834 -2.912,-1.443 -4.546,-1.824 -1.576,-0.366 -3.042,-0.434 -4.397,-0.208 -1.356,0.226 -2.534,0.83 -3.532,1.813 -1.001,0.977 -1.713,2.393 -2.136,4.243 -0.426,1.848 -0.457,4.252 -0.099,7.209 0.271,2.232 0.772,4.68 1.506,7.342 0.734,2.66 1.679,5.371 2.839,8.13 1.158,2.76 2.516,5.471 4.075,8.132 1.557,2.661 3.324,5.099 5.3,7.316 1.975,2.215 4.102,4.114 6.385,5.699 2.281,1.585 4.755,2.687 7.421,3.308 0.726,0.169 1.493,0.299 2.298,0.39 C 0.937,5.917 1.665,5.861 2.318,5.663 2.97,5.463 3.513,5.079 3.945,4.509 4.375,3.939 4.615,3.116 4.662,2.042 l 1.469,4.844 13.175,3.065 z" /></g><g
           transform="translate(264.4419,215.8208)"
           id="g172"><path
             id="path174"
             style="fill:#ffffff;fill-opacity:1;fill-rule:nonzero;stroke:none"
             d="m 0,0 c -1.939,-0.451 -3.805,-1.763 -5.597,-3.936 -1.795,-2.174 -3.391,-4.668 -4.792,-7.484 -1.4,-2.816 -2.579,-5.741 -3.533,-8.772 -0.957,-3.033 -1.565,-5.631 -1.828,-7.799 -0.23,-1.907 -0.241,-3.33 -0.03,-4.27 0.208,-0.942 0.511,-1.605 0.906,-1.993 0.395,-0.387 0.843,-0.57 1.347,-0.549 0.503,0.023 0.966,0.082 1.39,0.181 1.332,0.309 2.918,1.381 4.759,3.215 1.84,1.831 3.238,4.263 4.194,7.296 L 3.284,-2.779 C 3.294,-2.202 3.097,-1.515 2.695,-0.714 2.291,0.086 1.393,0.324 0,0 m -21.024,-60.635 c -0.087,-0.721 0.082,-1.385 0.51,-1.988 0.425,-0.603 1.154,-0.786 2.185,-0.546 0.969,0.226 2.025,1.176 3.17,2.846 1.142,1.67 2.198,4.054 3.161,7.152 l 0.891,2.985 c -1.206,-0.727 -2.389,-1.497 -3.546,-2.31 -1.159,-0.812 -2.189,-1.658 -3.089,-2.538 -0.902,-0.88 -1.644,-1.786 -2.228,-2.722 -0.585,-0.933 -0.935,-1.892 -1.054,-2.879 M 19.306,9.951 4.777,-37.87 c 2.912,1.699 5.386,3.775 7.42,6.228 2.032,2.452 3.945,5.961 5.734,10.529 l 3.815,0.887 c -1.307,-3.496 -2.712,-6.473 -4.215,-8.929 -1.504,-2.458 -3.067,-4.544 -4.687,-6.263 -1.621,-1.719 -3.236,-3.133 -4.84,-4.238 -1.608,-1.109 -3.13,-2.023 -4.57,-2.74 l -2.221,-7.413 c -1.097,-3.704 -2.397,-6.784 -3.901,-9.24 -1.504,-2.458 -3.072,-4.466 -4.703,-6.028 -1.632,-1.56 -3.29,-2.743 -4.976,-3.552 -1.688,-0.808 -3.289,-1.389 -4.803,-1.74 -2.787,-0.649 -5.083,-0.416 -6.892,0.694 -1.807,1.112 -2.517,3.279 -2.127,6.497 0.247,2.037 0.919,3.949 2.019,5.739 1.099,1.787 2.431,3.438 3.999,4.952 1.565,1.513 3.277,2.886 5.134,4.117 1.855,1.229 3.668,2.337 5.434,3.323 l 2.741,8.778 c -1.548,-2.084 -3.325,-3.998 -5.331,-5.741 -2.007,-1.745 -4.342,-2.926 -7.006,-3.546 -1.576,-0.367 -3.042,-0.437 -4.397,-0.21 -1.356,0.227 -2.534,0.831 -3.533,1.813 -1.001,0.979 -1.712,2.394 -2.136,4.245 -0.425,1.847 -0.457,4.25 -0.099,7.207 0.255,2.102 0.737,4.401 1.454,6.899 0.713,2.497 1.64,5.059 2.785,7.689 1.141,2.626 2.483,5.205 4.026,7.735 1.542,2.53 3.294,4.853 5.258,6.971 1.963,2.116 4.081,3.935 6.357,5.454 2.271,1.518 4.741,2.588 7.407,3.208 0.727,0.169 1.493,0.301 2.3,0.391 C 1.027,5.938 1.757,5.884 2.41,5.686 3.062,5.484 3.605,5.117 4.042,4.581 4.477,4.043 4.715,3.205 4.754,2.064 l 1.469,4.843 13.083,3.044 z" /></g><g
           transform="translate(310.5982,226.5611)"
           id="g176"><path
             id="path178"
             style="fill:#ffffff;fill-opacity:1;fill-rule:nonzero;stroke:none"
             d="m 0,0 c -1.939,-0.451 -3.814,-1.83 -5.623,-4.133 -1.811,-2.305 -3.429,-4.98 -4.856,-8.026 -1.428,-3.048 -2.636,-6.202 -3.618,-9.462 -0.984,-3.263 -1.614,-6.044 -1.892,-8.343 -0.231,-1.906 -0.241,-3.328 -0.031,-4.269 0.208,-0.941 0.512,-1.605 0.907,-1.992 0.394,-0.386 0.842,-0.57 1.346,-0.548 0.501,0.021 0.965,0.082 1.389,0.18 0.666,0.155 1.4,0.5 2.202,1.038 0.8,0.536 1.608,1.251 2.423,2.145 0.814,0.89 1.56,1.943 2.236,3.154 0.676,1.211 1.251,2.573 1.731,4.09 L 3.271,-2.878 C 3.303,-2.616 3.268,-2.29 3.169,-1.896 3.069,-1.504 2.906,-1.143 2.682,-0.812 2.457,-0.481 2.136,-0.221 1.717,-0.031 1.299,0.159 0.727,0.169 0,0 M 19.214,9.931 8.617,-25.1 c -0.379,-1.174 -0.626,-2.254 -0.745,-3.238 -0.167,-1.38 0.02,-2.263 0.563,-2.646 0.541,-0.386 1.448,-0.429 2.72,-0.133 0.786,0.182 1.47,0.47 2.047,0.858 -0.813,-1.849 -1.583,-3.466 -2.309,-4.846 -0.727,-1.383 -1.473,-2.563 -2.238,-3.539 -0.766,-0.978 -1.612,-1.763 -2.537,-2.362 -0.927,-0.598 -1.997,-1.039 -3.206,-1.321 -2.484,-0.578 -4.4,-0.242 -5.75,1.01 -1.35,1.249 -2.032,3.276 -2.045,6.085 -0.804,-1.274 -1.724,-2.574 -2.768,-3.901 -1.043,-1.33 -2.179,-2.552 -3.402,-3.666 -1.224,-1.115 -2.535,-2.091 -3.93,-2.926 -1.397,-0.835 -2.912,-1.443 -4.548,-1.824 -1.574,-0.367 -3.04,-0.435 -4.396,-0.209 -1.357,0.227 -2.534,0.83 -3.533,1.813 -1,0.978 -1.712,2.393 -2.135,4.244 -0.426,1.847 -0.457,4.251 -0.099,7.208 0.27,2.232 0.771,4.681 1.507,7.342 0.733,2.661 1.679,5.371 2.837,8.131 1.159,2.76 2.517,5.47 4.075,8.131 1.558,2.661 3.325,5.099 5.3,7.317 1.976,2.214 4.104,4.114 6.386,5.698 2.28,1.585 4.754,2.687 7.42,3.308 0.727,0.17 1.493,0.3 2.3,0.391 C 0.936,5.917 1.665,5.862 2.318,5.664 2.97,5.463 3.512,5.08 3.943,4.51 4.375,3.939 4.614,3.116 4.661,2.043 l 1.47,4.843 13.083,3.045 z" /></g><g
           transform="translate(270.73,152.3902)"
           id="g180"><path
             id="path182"
             style="fill:#514d4c;fill-opacity:1;fill-rule:nonzero;stroke:none"
             d="M 0,0 C 0.082,0.676 0.37,1.304 0.86,1.886 1.354,2.467 1.91,2.83 2.533,2.975 3.155,3.119 3.658,3.003 4.043,2.627 4.428,2.248 4.58,1.723 4.498,1.047 4.417,0.372 4.125,-0.253 3.625,-0.826 3.125,-1.399 2.564,-1.759 1.942,-1.903 1.319,-2.048 0.82,-1.936 0.442,-1.567 0.067,-1.197 -0.081,-0.675 0,0" /></g><g
           transform="translate(287.0074,164.2261)"
           id="g184"><path
             id="path186"
             style="fill:#514d4c;fill-opacity:1;fill-rule:nonzero;stroke:none"
             d="M 0,0 C 0.191,0.379 0.355,0.781 0.489,1.207 0.623,1.633 0.706,1.979 0.738,2.242 0.829,2.991 0.609,3.306 0.083,3.183 -0.408,3.068 -0.916,2.653 -1.442,1.936 -1.97,1.218 -2.456,0.371 -2.904,-0.605 c -0.45,-0.977 -0.838,-1.999 -1.169,-3.068 -0.331,-1.068 -0.547,-2.021 -0.649,-2.856 -0.126,-1.041 -0.021,-1.692 0.315,-1.95 0.334,-0.258 0.843,-0.309 1.52,-0.152 0.567,0.132 1.085,0.331 1.557,0.602 0.473,0.268 0.924,0.587 1.353,0.956 0.43,0.368 0.846,0.783 1.251,1.245 0.404,0.462 0.811,0.949 1.221,1.462 l 0.962,0.224 c -0.482,-0.809 -1.019,-1.61 -1.61,-2.403 -0.591,-0.793 -1.24,-1.53 -1.945,-2.211 -0.706,-0.682 -1.464,-1.275 -2.278,-1.783 -0.812,-0.507 -1.69,-0.87 -2.633,-1.09 -1.34,-0.311 -2.363,-0.183 -3.072,0.389 -0.71,0.569 -0.961,1.724 -0.75,3.464 0.072,0.592 0.21,1.28 0.415,2.064 0.205,0.782 0.479,1.602 0.819,2.456 0.342,0.856 0.753,1.711 1.233,2.569 0.479,0.856 1.039,1.658 1.677,2.402 0.642,0.746 1.356,1.389 2.145,1.931 0.79,0.541 1.665,0.922 2.626,1.147 C 0.707,4.937 1.212,4.98 1.599,4.922 1.985,4.863 2.281,4.733 2.486,4.531 2.69,4.33 2.82,4.079 2.875,3.772 2.931,3.468 2.937,3.151 2.897,2.824 2.806,2.067 2.585,1.414 2.234,0.865 1.884,0.317 1.501,-0.006 1.086,-0.102 0.936,-0.138 0.756,-0.15 0.547,-0.14 0.336,-0.13 0.155,-0.083 0,0" /></g><g
           transform="translate(294.4253,158.2925)"
           id="g188"><path
             id="path190"
             style="fill:#514d4c;fill-opacity:1;fill-rule:nonzero;stroke:none"
             d="m 0,0 c 0.34,0.079 0.702,0.316 1.09,0.715 0.388,0.398 0.762,0.912 1.121,1.543 0.36,0.631 0.701,1.36 1.021,2.19 0.321,0.83 0.592,1.708 0.814,2.635 C 3.754,7.095 3.57,7.207 3.495,7.418 3.42,7.628 3.4,7.888 3.438,8.194 3.489,8.624 3.613,8.995 3.807,9.309 4,9.622 4.235,9.86 4.512,10.024 4.551,10.649 4.505,11.071 4.377,11.29 4.246,11.509 4.003,11.576 3.645,11.492 3.136,11.374 2.618,10.96 2.093,10.252 1.567,9.543 1.083,8.715 0.638,7.767 0.193,6.818 -0.192,5.834 -0.518,4.813 -0.842,3.794 -1.05,2.905 -1.142,2.148 -1.204,1.638 -1.23,1.229 -1.221,0.923 -1.213,0.616 -1.164,0.385 -1.072,0.227 -0.981,0.068 -0.846,-0.024 -0.666,-0.051 -0.486,-0.08 -0.264,-0.062 0,0 m 3.641,13.28 c 2.376,0.553 3.388,-0.772 3.038,-3.974 0.073,-0.003 0.175,0.01 0.308,0.041 0.321,0.075 0.68,0.209 1.079,0.401 0.398,0.191 0.801,0.419 1.209,0.684 0.409,0.264 0.809,0.55 1.204,0.862 0.396,0.31 0.757,0.612 1.086,0.908 l 0.154,-0.768 C 11.095,10.672 10.319,9.97 9.389,9.325 8.459,8.681 7.474,8.148 6.434,7.729 6.146,6.27 5.736,4.922 5.201,3.686 4.666,2.446 4.049,1.355 3.348,0.406 2.646,-0.542 1.884,-1.321 1.058,-1.931 0.232,-2.54 -0.613,-2.946 -1.481,-3.148 c -0.661,-0.154 -1.257,-0.207 -1.792,-0.164 -0.537,0.044 -0.978,0.215 -1.328,0.511 -0.348,0.297 -0.597,0.726 -0.75,1.287 -0.152,0.561 -0.175,1.282 -0.069,2.16 0.072,0.594 0.211,1.282 0.415,2.065 0.205,0.782 0.484,1.607 0.836,2.476 0.352,0.866 0.773,1.73 1.262,2.589 0.489,0.86 1.057,1.662 1.707,2.41 0.65,0.749 1.373,1.393 2.173,1.937 0.798,0.544 1.687,0.929 2.668,1.157" /></g><g
           transform="translate(317.732,171.8853)"
           id="g192"><path
             id="path194"
             style="fill:#514d4c;fill-opacity:1;fill-rule:nonzero;stroke:none"
             d="M 0,0 C 0.126,1.043 -0.15,1.485 -0.829,1.327 -1.339,1.209 -1.815,0.829 -2.259,0.189 -2.703,-0.45 -3.076,-1.184 -3.377,-2.009 l -3.116,-10.296 -4.072,-0.947 3.345,11.065 c 0.086,0.258 0.146,0.521 0.178,0.787 0.042,0.347 0.019,0.645 -0.07,0.892 -0.091,0.248 -0.295,0.335 -0.616,0.261 -0.547,-0.128 -1.047,-0.519 -1.501,-1.171 -0.456,-0.652 -0.834,-1.392 -1.134,-2.216 l -3.116,-10.296 -4.073,-0.948 4.855,16.037 4.073,0.948 -0.504,-1.667 c 0.692,0.876 1.353,1.493 1.982,1.848 0.629,0.356 1.189,0.589 1.68,0.703 0.754,0.176 1.367,0.125 1.836,-0.153 0.471,-0.278 0.724,-0.881 0.758,-1.807 0.409,0.652 0.812,1.188 1.212,1.61 0.399,0.42 0.78,0.761 1.142,1.025 0.36,0.263 0.702,0.462 1.019,0.595 C 0.82,4.396 1.112,4.492 1.375,4.554 2.281,4.765 2.997,4.667 3.526,4.264 4.055,3.859 4.244,3.045 4.096,1.817 4.021,1.204 3.868,0.507 3.636,-0.272 3.405,-1.052 3.159,-1.824 2.902,-2.589 2.645,-3.355 2.406,-4.076 2.188,-4.755 1.968,-5.432 1.832,-5.984 1.78,-6.414 1.733,-6.803 1.774,-7.096 1.907,-7.294 2.039,-7.492 2.321,-7.54 2.755,-7.439 3.207,-7.334 3.526,-7.2 3.711,-7.037 3.445,-8.174 2.985,-9.061 2.331,-9.7 c -0.656,-0.64 -1.36,-1.047 -2.114,-1.223 -0.548,-0.127 -0.992,-0.137 -1.336,-0.027 -0.344,0.109 -0.606,0.302 -0.782,0.578 -0.178,0.277 -0.288,0.614 -0.331,1.012 -0.045,0.397 -0.04,0.811 0.011,1.24 0.062,0.512 0.202,1.135 0.419,1.872 0.218,0.735 0.45,1.48 0.698,2.234 0.246,0.752 0.477,1.487 0.692,2.203 C -0.197,-1.095 -0.06,-0.49 0,0" /></g><g
           transform="translate(270.2124,152.8989)"
           id="g196"><path
             id="path198"
             style="fill:#ffffff;fill-opacity:1;fill-rule:nonzero;stroke:none"
             d="M 0,0 C 0.081,0.676 0.369,1.304 0.86,1.886 1.352,2.466 1.908,2.829 2.531,2.975 3.153,3.119 3.657,3.003 4.043,2.626 4.427,2.248 4.579,1.723 4.498,1.047 4.416,0.372 4.124,-0.253 3.625,-0.826 3.124,-1.399 2.563,-1.759 1.94,-1.903 1.317,-2.049 0.818,-1.937 0.442,-1.566 0.066,-1.197 -0.082,-0.675 0,0" /></g><g
           transform="translate(286.4888,164.7349)"
           id="g200"><path
             id="path202"
             style="fill:#ffffff;fill-opacity:1;fill-rule:nonzero;stroke:none"
             d="M 0,0 C 0.192,0.379 0.354,0.782 0.488,1.208 0.624,1.633 0.706,1.978 0.738,2.241 0.829,2.99 0.609,3.306 0.082,3.184 -0.408,3.069 -0.916,2.652 -1.442,1.937 -1.97,1.218 -2.457,0.37 -2.905,-0.605 c -0.448,-0.977 -0.838,-2 -1.169,-3.068 -0.33,-1.067 -0.547,-2.021 -0.649,-2.856 -0.126,-1.041 -0.021,-1.691 0.316,-1.95 0.335,-0.259 0.842,-0.31 1.52,-0.152 0.566,0.132 1.084,0.332 1.558,0.602 0.472,0.268 0.923,0.587 1.351,0.955 0.43,0.369 0.847,0.784 1.251,1.246 0.404,0.461 0.811,0.949 1.222,1.462 l 0.961,0.223 C 2.974,-4.951 2.438,-5.751 1.847,-6.544 1.255,-7.338 0.606,-8.076 -0.098,-8.756 c -0.707,-0.682 -1.464,-1.276 -2.278,-1.783 -0.812,-0.507 -1.69,-0.871 -2.633,-1.09 -1.339,-0.311 -2.363,-0.182 -3.073,0.389 -0.71,0.569 -0.959,1.723 -0.749,3.463 0.072,0.593 0.209,1.281 0.414,2.065 0.205,0.782 0.479,1.601 0.819,2.456 0.343,0.855 0.753,1.711 1.234,2.569 0.478,0.856 1.039,1.657 1.677,2.402 0.641,0.746 1.356,1.389 2.145,1.93 0.789,0.542 1.665,0.923 2.627,1.147 C 0.708,4.937 1.212,4.98 1.598,4.922 1.984,4.862 2.281,4.733 2.485,4.532 2.69,4.331 2.819,4.078 2.876,3.772 2.93,3.468 2.938,3.15 2.897,2.823 2.806,2.066 2.586,1.414 2.234,0.865 1.884,0.316 1.501,-0.006 1.087,-0.103 0.936,-0.138 0.755,-0.151 0.546,-0.14 0.337,-0.129 0.154,-0.083 0,0" /></g><g
           transform="translate(293.9068,158.8013)"
           id="g204"><path
             id="path206"
             style="fill:#ffffff;fill-opacity:1;fill-rule:nonzero;stroke:none"
             d="m 0,0 c 0.339,0.079 0.702,0.316 1.089,0.715 0.388,0.398 0.762,0.913 1.122,1.543 0.359,0.63 0.7,1.36 1.021,2.19 C 3.553,5.279 3.823,6.155 4.045,7.083 3.753,7.094 3.57,7.206 3.495,7.417 3.419,7.628 3.4,7.887 3.438,8.193 3.489,8.623 3.613,8.995 3.806,9.309 4,9.622 4.234,9.86 4.512,10.023 4.55,10.648 4.505,11.071 4.376,11.29 4.246,11.508 4.003,11.576 3.645,11.492 3.136,11.374 2.617,10.959 2.093,10.252 1.567,9.543 1.082,8.714 0.638,7.766 0.192,6.818 -0.192,5.833 -0.518,4.813 -0.843,3.793 -1.051,2.906 -1.143,2.148 -1.204,1.638 -1.23,1.228 -1.222,0.924 -1.213,0.616 -1.163,0.385 -1.072,0.227 -0.981,0.069 -0.847,-0.023 -0.667,-0.051 -0.487,-0.079 -0.265,-0.062 0,0 m 3.641,13.279 c 2.376,0.553 3.388,-0.771 3.038,-3.973 0.072,-0.003 0.175,0.01 0.307,0.041 0.321,0.075 0.68,0.209 1.079,0.401 0.399,0.192 0.803,0.42 1.209,0.684 0.41,0.263 0.81,0.55 1.205,0.862 0.395,0.31 0.756,0.612 1.086,0.908 l 0.154,-0.768 C 11.096,10.671 10.318,9.97 9.389,9.325 8.458,8.681 7.474,8.149 6.433,7.728 6.146,6.27 5.736,4.922 5.201,3.685 4.667,2.446 4.049,1.354 3.348,0.405 2.646,-0.542 1.883,-1.322 1.058,-1.931 0.231,-2.54 -0.613,-2.946 -1.48,-3.148 c -0.661,-0.154 -1.259,-0.207 -1.793,-0.165 -0.536,0.045 -0.978,0.215 -1.327,0.512 -0.349,0.297 -0.599,0.725 -0.752,1.286 -0.152,0.562 -0.175,1.283 -0.069,2.161 0.072,0.594 0.212,1.282 0.416,2.065 0.205,0.782 0.484,1.608 0.836,2.476 0.352,0.866 0.773,1.731 1.261,2.589 0.489,0.859 1.058,1.662 1.708,2.41 0.649,0.748 1.373,1.392 2.173,1.936 0.798,0.545 1.687,0.93 2.668,1.157" /></g><g
           transform="translate(317.2124,172.3931)"
           id="g208"><path
             id="path210"
             style="fill:#ffffff;fill-opacity:1;fill-rule:nonzero;stroke:none"
             d="M 0,0 C 0.126,1.043 -0.15,1.486 -0.828,1.328 -1.338,1.209 -1.814,0.83 -2.259,0.191 -2.702,-0.449 -3.076,-1.182 -3.377,-2.008 l -3.114,-10.296 -4.073,-0.948 3.345,11.065 c 0.086,0.259 0.145,0.522 0.177,0.788 0.042,0.348 0.019,0.645 -0.07,0.892 -0.089,0.247 -0.293,0.335 -0.614,0.26 -0.547,-0.127 -1.048,-0.518 -1.503,-1.17 -0.456,-0.651 -0.833,-1.391 -1.134,-2.217 l -3.115,-10.296 -4.073,-0.947 4.855,16.037 4.073,0.948 -0.505,-1.668 c 0.692,0.877 1.353,1.494 1.983,1.849 0.628,0.355 1.189,0.589 1.68,0.703 0.754,0.175 1.366,0.125 1.836,-0.153 0.471,-0.278 0.723,-0.881 0.758,-1.807 0.409,0.652 0.811,1.188 1.212,1.609 0.399,0.421 0.779,0.762 1.141,1.026 0.362,0.263 0.702,0.462 1.019,0.595 0.32,0.134 0.611,0.232 0.875,0.294 0.905,0.21 1.621,0.113 2.15,-0.29 C 4.055,3.861 4.244,3.046 4.096,1.818 4.021,1.205 3.869,0.508 3.637,-0.271 3.406,-1.051 3.16,-1.823 2.903,-2.589 2.646,-3.354 2.407,-4.075 2.188,-4.753 1.968,-5.431 1.832,-5.984 1.78,-6.413 1.733,-6.803 1.775,-7.096 1.907,-7.292 2.039,-7.491 2.322,-7.54 2.756,-7.438 c 0.453,0.105 0.77,0.239 0.956,0.401 -0.267,-1.136 -0.727,-2.024 -1.381,-2.662 -0.654,-0.64 -1.359,-1.047 -2.112,-1.223 -0.548,-0.127 -0.993,-0.136 -1.338,-0.027 -0.344,0.109 -0.606,0.302 -0.782,0.578 -0.178,0.276 -0.287,0.613 -0.33,1.012 -0.045,0.396 -0.04,0.81 0.011,1.239 0.063,0.512 0.201,1.136 0.419,1.872 0.218,0.737 0.45,1.481 0.697,2.235 0.247,0.753 0.477,1.487 0.692,2.202 C -0.196,-1.094 -0.06,-0.49 0,0" /></g></g></g></g>

             </svg>

