<svg xmlns="http://www.w3.org/2000/svg" xmlns:xlink="http://www.w3.org/1999/xlink" viewBox="0 0 297.88 496.91"><defs><style>.cls-1{fill:none;}.cls-2{isolation:isolate;}.cls-11,.cls-3,.cls-9{fill:#4a4645;}.cls-10,.cls-12,.cls-4{fill:#fff;}.cls-5{fill:#991915;}.cls-6{fill:#f3f2f4;mix-blend-mode:soft-light;}.cls-7{clip-path:url(#clip-path);}.cls-8{fill:#6e6b6b;}.cls-10,.cls-9{font-size:99.27px;}.cls-10,.cls-11,.cls-12,.cls-9{font-family:LobsterTwo-BoldItalic, Lobster Two;font-weight:700;font-style:italic;}.cls-11,.cls-12{font-size:30.9px;}</style><clipPath id="clip-path" transform="translate(-64.91 -2.36)"><path class="cls-1" d="M302.34.36c4.54.43,169.13,24.85,168.4,55.84-.29,12.59-15.36,192.36-55.5,214.49C378,291.22,315.14,154.42,322.79,160c5.79,33,15.66,97.17,15.66,121.87s4.81,65.42-13.12,90.25c-20.09,27.8-55.81,71.91-110.52,94.24h0c-57.65-23-94.37-69.7-111.84-93.89C85,347.58,90.61,306.54,90.61,281.82S100.5,192.9,106.26,160c11-7.94-1,95.46-38.67,78.65C36.66,224.8-20.46,91.42-20.95,77.79-21.83,53.31,111.7-13.3,115.34-13.64Z"/></clipPath></defs><title>sb-logo_main</title><g class="cls-2"><g id="Layer_1" data-name="Layer 1"><g id="Badge"><path class="cls-3" d="M361.77,278.47C361.77,249,350,172.33,343.05,133c-43.17-31.21-119-39.26-128.66-40.18v-.09l-.53,0-.53,0v.09c-9.68.92-85.51,9-128.69,40.18C77.76,172.33,66,249,66,278.47S59.08,357.11,80.7,386.6,146.19,471.75,215,499.27h0c68-27.72,110.56-83.41,132-112.67C368.62,357.11,361.77,308,361.77,278.47Z" transform="translate(-64.91 -2.36)"/><path class="cls-4" d="M349,280.12c0-26.89-10.73-96.82-17-132.7-39.36-28.44-108.52-35.8-117.35-36.63v-.09l-.47,0-.48,0v.09c-8.84.83-78,8.19-117.38,36.63-6.25,35.88-17,105.81-17,132.7s-6.26,71.69,13.45,98.6,59.73,77.64,122.45,102.75h0c62-25.3,100.83-76.08,120.43-102.75C355.23,351.81,349,307,349,280.12Z" transform="translate(-64.91 -2.36)"/><path class="cls-5" d="M337.77,281.31c0-24.7-9.87-88.92-15.66-121.88-36.17-26.16-99.7-32.91-107.8-33.66v-.09l-.45,0-.44,0v.09c-8.13.75-71.65,7.5-107.85,33.66-5.75,33-15.64,97.18-15.64,121.88s-5.75,65.88,12.36,90.59,54.87,71.38,112.52,94.41h0c56.92-23.23,92.63-69.86,110.63-94.41C343.52,347.19,337.77,306,337.77,281.31Z" transform="translate(-64.91 -2.36)"/><path class="cls-6" d="M337.78,281.29c0-24.69-9.87-88.92-15.67-121.88-35.72-25.84-98-32.73-107.3-33.63,0,0-.05,340.5,0,340.53,56.93-23.24,92.63-69.88,110.63-94.41C343.52,347.18,337.78,306,337.78,281.29Z" transform="translate(-64.91 -2.36)"/></g><g class="cls-7"><path class="cls-8" d="M310.57,377.67c-.45-5.6-7.26-4.86-13.3-8.07a27.15,27.15,0,0,1-4.8-6,146.88,146.88,0,0,1-13.58-38.69c-2.35-15.05-7.22-20.44-12.29-32.68-1.88-4.52-2.31-8-3.74-12.67-1.85-5.25-1-10.21-3.1-15.54a75.19,75.19,0,0,0-.48-20.49c.86-9.2-4.7-14.55-11.52-20.75-4.38-4-9.31-9.33-13.3-12.88-1.67-6.11,3.87-4.54,4-14.61,4.66-2.66,5.93-6,8.64-9.85,4,.46.69-3.4,3.2-6.09,2.95-3.14,4.16-8.74.15-7.78,3.47-9.37,5.6-18,1.62-27.8-2.64-8-4.44-11.66-13.54-13.52-16-6.92-29.67,7.14-34.11,21.14-1.23,3.92.33,6,.22,9.88-4.92.17-4.08,5.37-4.1,9.48,1.43,4.15,1.54,6.15.44,5.14-1.82-1.65-3-9.23-8.32-10.46-.1-3.11-.34-3.29-2.52-5.52-.86-3.41-2.43-5.12-4.3-8.1s.28-13.8-3.34-26.66a50.32,50.32,0,0,0-7.55-15.8c-1.21-1.69-.29-3.85-.54-7.81-1-15.57-10-38.6-13.39-48.56-1.46-6.17-3.55-12.74-4.21-19.11a19.19,19.19,0,0,1,.13-5.1c.3-.93,1.35-1.32,2.12-2.07,1.68-2.12,3.4-4.22,5.11-6.32,2.59-5.34-1.06-5.05-1.25-10,.08-4.14-1.54-7.64-6.15-6.22-1.68-2.67-4.79-1.95-7-.17-2.84-1.34-3.82-1.21-5.78,1.63-3.31-.76-4.06.73-5.71,3.7-3.52,4.58-.7,13,.89,19.69a13.73,13.73,0,0,1,1.43,4.43s1.16,16,2.2,23.91c2.6,18,1.9,34.25,11,57.47a16.55,16.55,0,0,1,.74,5.77c-.14,3.82-.22,7.39-.22,10.89a265.77,265.77,0,0,0,1.9,30.78c-1,6.27.78,6.71,1.92,15.31-.09,7,2.09,13.95,2.1,19.83s-1.83,10-2.24,16.32c-3.4,10.79-3.89,20-3.8,31.37-2.79,7.16-3.31,11.53-3.53,19.24-8.91,11.61-6.62,27.72-9.53,41.36-.1,9.3,3.5,4.84,7.66,9.84,2.13,2.54,3.26,6.23,5.19,9.32a39.76,39.76,0,0,1-1.06,12.32c-6.33,5.42-5.09,5.63-3.54,13.87a12.32,12.32,0,0,0-.16,6.92c-.13.89-.25,1.79-.36,2.71-1.18,4.43-1.26,5.5.21,8.53-.18.31-.35.64-.55,1-4.05,8-3.85,11.33-3.51,20.37-2.43,12.13-3.47,23.73-4.53,36.05-.9,5.44-.31,5.67,3,10.12.4,5.31.45,10.43.39,15.76-.07,5.63.27,11.22-.08,16.76a177.41,177.41,0,0,0,27.19,8c-.2-9.64,5-15.53,7.47-27.08,2-7.31,3-19.27,7.36-25.22,5.61.55,11,2.57,13.25-4.05l2-9.05c1.73-5,2-14.07,3.6-15.15.74-.49,1.13,1.82,3.15,4.87,5.33,7.39,8.85,8.54,17.2,12.45,4.44,2.55,4.26,9.16,8.47,5.09l4.38,7.87c4,6.37,9.48,18,13.9,24.83,3.23,5,5.72,5,7.35,10.18a54.76,54.76,0,0,1,1.8,10.95A176.83,176.83,0,0,0,290,460.87c-.52-1.48-1-3-1.62-4.54a60.78,60.78,0,0,0-5.44-17.28,138.63,138.63,0,0,0-5.61-21.77c2.27-2.38-1.21-8.55-3.07-13.93a318.19,318.19,0,0,0-11.74-30.62c2.06-2.1.83-5.57-1.39-9-1.65-2.06-3.22-3.89-4.82-5.61l-1.18-2.82c.53-5.93-4.46-3.21-6.06-12.57l-.85-5.48c.62-6.27-1.66-6.23-3.87-8,.94-4-1.43-7-2.81-11.27,0-1.86,0-3.49-.11-4.92l-.78.09c0-.59,0-1.2,0-1.83-.7-8.05-1.27-16-2.69-23.92,1.85,5.22,7,13.56,7.45,18.56.79,8.63,7,19.23,14.25,29.14,5.8,7.87,12.4,18.67,17,25.32,5.69,9.05,1.46,10.8,6.9,17.75h.06c2.35,3.93.94,6.77,4.77,11.14a7.59,7.59,0,0,0,3.37,2.54c2,2.33,3.65,2.5,6.4,1,1.66-.2,3.14.2,4.82-1.64,3.31.15,3.7-.48,4.57-1.67,3.62,3,6.55.23,4.65-4.27C314.36,382.06,312.76,380.7,310.57,377.67Z" transform="translate(-64.91 -2.36)"/></g><path class="cls-3" d="M145.81,199a13.56,13.56,0,0,0-5.06-.4,33.32,33.32,0,0,0-4.4.69,35.19,35.19,0,0,0-9.11,3.61,37.32,37.32,0,0,0-7.72,5.73A30.58,30.58,0,0,0,114,215.9a22,22,0,0,0-2.66,8.17A14.66,14.66,0,0,0,112,231a19.63,19.63,0,0,0,3,5.34,63.27,63.27,0,0,0,4.23,4.73,45,45,0,0,1,4.2,5,20.55,20.55,0,0,1,3,6,19.24,19.24,0,0,1,.54,8,20.89,20.89,0,0,1-4.33,11.14,15.73,15.73,0,0,1-8.62,5.58c-3.16.76-5.48.42-7-1s-2-3.56-1.74-6.28A12.53,12.53,0,0,1,107,264.3a16,16,0,0,1,3.13-3.9,18,18,0,0,1,4-2.72,19.1,19.1,0,0,1,4.22-1.6,6.3,6.3,0,0,0-.8-3.15,4.23,4.23,0,0,0-1.87-1.7,5.88,5.88,0,0,0-2.54-.48,11.72,11.72,0,0,0-2.69.33,17.88,17.88,0,0,0-5.32,2.38,23.26,23.26,0,0,0-5.07,4.47,26.6,26.6,0,0,0-4,6.35,26.14,26.14,0,0,0-2.15,7.94,16,16,0,0,0,.74,8,9.24,9.24,0,0,0,3.91,4.55,12.72,12.72,0,0,0,6.32,1.56,32.39,32.39,0,0,0,7.94-1,44,44,0,0,0,10.57-4.12,41.1,41.1,0,0,0,9.45-7,39.12,39.12,0,0,0,7.11-9.77,35,35,0,0,0,3.66-12.34,24.55,24.55,0,0,0-.5-9.61,20.12,20.12,0,0,0-3.26-6.48,24.31,24.31,0,0,0-4.73-4.62,54,54,0,0,1-4.79-4,16.55,16.55,0,0,1-3.47-4.6,11.5,11.5,0,0,1-.85-6.55,13.62,13.62,0,0,1,3.29-7.85,13.34,13.34,0,0,1,6.9-4q4.16-1,5.49.77a6.12,6.12,0,0,1,1,4.56,16.09,16.09,0,0,1-1.83,5.63,15.12,15.12,0,0,1-3.66,4.7,4,4,0,0,0,4.3,1.16,10.72,10.72,0,0,0,6.28-4.5,17.71,17.71,0,0,0,3.05-8.32q.49-4.41-1-6.55A7.06,7.06,0,0,0,145.81,199Z" transform="translate(-64.91 -2.36)"/><path class="cls-3" d="M241.76,203.14a5.62,5.62,0,0,0-3.53-1.92,11.78,11.78,0,0,0-4.6.27,20.82,20.82,0,0,0-6.72,2.87,30.38,30.38,0,0,0-5.37,4.54l2.49-8.45-14.24,3.44L197.94,244.2h0a29.28,29.28,0,0,1-3.87,7.53,9.31,9.31,0,0,1-5.21,3.87,3.81,3.81,0,0,1-3-.12c-.6-.41-.81-1.38-.64-2.88a18.3,18.3,0,0,1,.79-3.54l11.25-38.29-14.24,3.43-10.63,36.15a30,30,0,0,1-3.83,7.52,9.14,9.14,0,0,1-5.15,3.86c-1.12.26-1.84,0-2.17-.73a5.72,5.72,0,0,1-.29-3,18.64,18.64,0,0,1,.64-3.08l11.24-38.29-14.23,3.44L148,256.24a44,44,0,0,0-1.58,7.18q-.76,6.78,2,9.11t7.16,1.25a20.53,20.53,0,0,0,3.41-1.19,19.21,19.21,0,0,0,3.82-2.33,29.2,29.2,0,0,0,4.15-4,41.22,41.22,0,0,0,4.41-6.24c-.05,3.29.66,5.6,2.15,6.91s3.65,1.63,6.49.95a24.56,24.56,0,0,0,4.61-1.74,23.24,23.24,0,0,0,5.61-4,37.58,37.58,0,0,0,3.67-4.06l-10.13,34.44L199.09,285l8.1-27.48a4.27,4.27,0,0,0,2.43,2q1.78.72,5.54-.19a25.43,25.43,0,0,0,8.67-3.87,34.94,34.94,0,0,0,6.91-6.32,44.45,44.45,0,0,0,5.28-8,72.27,72.27,0,0,0,3.89-8.88,68.55,68.55,0,0,0,2.53-8.83c.61-2.87,1.06-5.52,1.33-8a27,27,0,0,0,0-7.84A9.58,9.58,0,0,0,241.76,203.14Zm-13.18,24.3a60.7,60.7,0,0,1-3.39,10,38.32,38.32,0,0,1-5.16,8.62,12.67,12.67,0,0,1-6.88,4.7,3,3,0,0,1-2.48-.2,2.38,2.38,0,0,1-1-1.37l9.23-31.52a18.49,18.49,0,0,1,3.71-4.72,9.09,9.09,0,0,1,3.71-2.2,6.45,6.45,0,0,1,1.5-.16,1.93,1.93,0,0,1,1.46.75,5.43,5.43,0,0,1,1,2.38,15.85,15.85,0,0,1,0,4.76A72,72,0,0,1,228.58,227.44Z" transform="translate(-64.91 -2.36)"/><path class="cls-3" d="M322.58,182.44c-1-1.37-2.57-1.78-4.81-1.24a15.63,15.63,0,0,0-6.32,3.61,65.17,65.17,0,0,0-6.57,6.61l2.15-7.11-14.23,3.43-10.68,36.32c-1.38,1.74-2.73,3.39-4.09,5a43,43,0,0,1-4.34,4.39A29.8,29.8,0,0,1,269,236.8a20.26,20.26,0,0,1-5.43,2.15q-3.57.86-5.14-.49t-1-6.83c.08-.65.17-1.33.28-2s.25-1.5.41-2.3a35.57,35.57,0,0,0,8.75-4.15,40.91,40.91,0,0,0,7.77-6.48,36.61,36.61,0,0,0,5.8-8.14,25.33,25.33,0,0,0,2.83-8.95,14.84,14.84,0,0,0,0-3.77,5.07,5.07,0,0,0-1.32-2.87,5.26,5.26,0,0,0-3.09-1.5,13.4,13.4,0,0,0-5.3.44,27.14,27.14,0,0,0-9.21,4.1,38.56,38.56,0,0,0-7.51,6.83,54,54,0,0,0-5.86,8.48,68.34,68.34,0,0,0-4.24,9,77.36,77.36,0,0,0-2.75,8.62,55.3,55.3,0,0,0-1.4,7.24q-1,9.14,2.75,12.1c2.52,2,6.13,2.39,10.85,1.26a30.74,30.74,0,0,0,9.19-3.89,48,48,0,0,0,7.92-6.31,62.35,62.35,0,0,0,6.53-7.5l-3.6,12.24,14.24-3.44L303,197.84a52,52,0,0,1,4-4,8.87,8.87,0,0,1,3.69-2c.73-.17,1.14.08,1.22.75s.18,1.41.28,2.19a4.81,4.81,0,0,0,.78,2.06c.42.6,1.31.73,2.69.4a9.06,9.06,0,0,0,3.2-1.45,11.63,11.63,0,0,0,2.43-2.37,11.89,11.89,0,0,0,1.62-2.85,11,11,0,0,0,.76-2.9A7.31,7.31,0,0,0,322.58,182.44Zm-60.27,31.21a64.52,64.52,0,0,1,3.6-7.58,36.57,36.57,0,0,1,3.92-5.79,7.86,7.86,0,0,1,3.88-2.81c.92-.22,1.52,0,1.79.72a6.64,6.64,0,0,1,.19,3.07,22.42,22.42,0,0,1-1.85,6.54,28.88,28.88,0,0,1-3.72,6.15,28.14,28.14,0,0,1-5,5,18.42,18.42,0,0,1-5.68,3C260.23,219.18,261.2,216.42,262.31,213.65Z" transform="translate(-64.91 -2.36)"/><path class="cls-4" d="M144,196.94a13.73,13.73,0,0,0-5-.4,33.05,33.05,0,0,0-4.41.7,34.84,34.84,0,0,0-9.11,3.61,36.87,36.87,0,0,0-7.72,5.73,30.47,30.47,0,0,0-5.53,7.24,22,22,0,0,0-2.65,8.18,14.43,14.43,0,0,0,.66,6.9,19.17,19.17,0,0,0,3,5.33c1.29,1.61,2.7,3.18,4.22,4.74a44,44,0,0,1,4.21,4.95,20.62,20.62,0,0,1,3,6,19.25,19.25,0,0,1,.54,8A20.92,20.92,0,0,1,120.9,269a15.82,15.82,0,0,1-8.62,5.58q-4.74,1.14-7-1.05t-1.75-6.27a13,13,0,0,1,1.63-5,16.3,16.3,0,0,1,3.14-3.9,18.38,18.38,0,0,1,4-2.73,18.87,18.87,0,0,1,4.22-1.59,6.31,6.31,0,0,0-.8-3.16,4.13,4.13,0,0,0-1.88-1.69,6,6,0,0,0-2.54-.49,12.36,12.36,0,0,0-2.68.34,17.28,17.28,0,0,0-5.32,2.38,23.21,23.21,0,0,0-5.07,4.46,26.8,26.8,0,0,0-4,6.35,26.2,26.2,0,0,0-2.15,7.95,15.9,15.9,0,0,0,.74,8,9.2,9.2,0,0,0,3.91,4.55,12.81,12.81,0,0,0,6.31,1.57,32.58,32.58,0,0,0,8-1,43.81,43.81,0,0,0,10.56-4.12,40.81,40.81,0,0,0,9.45-7,38.76,38.76,0,0,0,7.11-9.77A34.92,34.92,0,0,0,141.8,250a24.12,24.12,0,0,0-.51-9.61,19.49,19.49,0,0,0-3.26-6.49,23.92,23.92,0,0,0-4.72-4.61,52.39,52.39,0,0,1-4.79-4,16.36,16.36,0,0,1-3.47-4.6,11.47,11.47,0,0,1-.85-6.54,13.56,13.56,0,0,1,3.29-7.86,13.34,13.34,0,0,1,6.9-4q4.16-1,5.49.77a6.13,6.13,0,0,1,1,4.57,16.35,16.35,0,0,1-1.84,5.62,15.24,15.24,0,0,1-3.65,4.7,3.93,3.93,0,0,0,4.29,1.16,10.61,10.61,0,0,0,6.27-4.49A17.72,17.72,0,0,0,149,206.3c.33-2.93,0-5.12-1-6.55A7.19,7.19,0,0,0,144,196.94Z" transform="translate(-64.91 -2.36)"/><path class="cls-4" d="M240,201.06a5.62,5.62,0,0,0-3.53-1.92,11.78,11.78,0,0,0-4.6.27,20.62,20.62,0,0,0-6.72,2.88,29.62,29.62,0,0,0-5.37,4.54l2.49-8.45L208,201.81l-11.86,40.31h0a28.89,28.89,0,0,1-3.88,7.54,9.31,9.31,0,0,1-5.2,3.86,3.72,3.72,0,0,1-3-.12c-.6-.41-.81-1.37-.64-2.88a19.17,19.17,0,0,1,.78-3.54l11.26-38.28-14.25,3.43-10.61,36.15a30.22,30.22,0,0,1-3.84,7.51,9.12,9.12,0,0,1-5.15,3.86c-1.12.27-1.84,0-2.18-.73a5.81,5.81,0,0,1-.28-3,18.64,18.64,0,0,1,.63-3.09l11.25-38.28L156.85,218l-10.62,36.15a43.55,43.55,0,0,0-1.58,7.18q-.77,6.78,1.95,9.1c1.81,1.55,4.21,2,7.17,1.25a20.75,20.75,0,0,0,3.41-1.18,19.59,19.59,0,0,0,3.82-2.34,29.08,29.08,0,0,0,4.15-4,42.27,42.27,0,0,0,4.41-6.24q-.08,4.94,2.15,6.91t6.49.95a25.62,25.62,0,0,0,4.62-1.74,23.24,23.24,0,0,0,5.59-4,34,34,0,0,0,3.68-4.06L182,290.44,197.32,283l8.11-27.49a4.23,4.23,0,0,0,2.41,2q1.8.71,5.56-.19a25.42,25.42,0,0,0,8.65-3.87,34.72,34.72,0,0,0,6.92-6.32,44.8,44.8,0,0,0,5.28-8,71.74,71.74,0,0,0,3.89-8.89,70.64,70.64,0,0,0,2.54-8.82c.6-2.87,1-5.52,1.32-8a26.57,26.57,0,0,0,0-7.84A9.56,9.56,0,0,0,240,201.06Zm-13.18,24.31a60.7,60.7,0,0,1-3.39,10,38.62,38.62,0,0,1-5.16,8.61,12.61,12.61,0,0,1-6.87,4.7,3,3,0,0,1-2.48-.19,2.45,2.45,0,0,1-1-1.38l9.23-31.52a18.83,18.83,0,0,1,3.71-4.71,9.25,9.25,0,0,1,3.71-2.21,6,6,0,0,1,1.51-.15,2,2,0,0,1,1.45.75,5.27,5.27,0,0,1,1,2.38,15.84,15.84,0,0,1,0,4.76A72.29,72.29,0,0,1,226.81,225.37Z" transform="translate(-64.91 -2.36)"/><path class="cls-4" d="M320.82,180.37c-1-1.37-2.58-1.79-4.82-1.25a15.55,15.55,0,0,0-6.32,3.62,66.09,66.09,0,0,0-6.57,6.6l2.15-7.11L291,185.67,280.34,222c-1.36,1.74-2.73,3.39-4.08,5a43.08,43.08,0,0,1-4.34,4.4,30.67,30.67,0,0,1-4.71,3.38,19.87,19.87,0,0,1-5.44,2.15q-3.56.85-5.14-.49c-1-.89-1.37-3.17-.95-6.82.07-.65.16-1.34.28-2.06s.24-1.49.4-2.3a35.69,35.69,0,0,0,8.75-4.14,41.22,41.22,0,0,0,7.77-6.48,36.67,36.67,0,0,0,5.8-8.15,25.27,25.27,0,0,0,2.83-9,15.23,15.23,0,0,0,0-3.76,5.19,5.19,0,0,0-1.31-2.88,5.32,5.32,0,0,0-3.11-1.5,13.56,13.56,0,0,0-5.29.44,27.34,27.34,0,0,0-9.21,4.1,38.59,38.59,0,0,0-7.51,6.83,54,54,0,0,0-5.86,8.48,69.13,69.13,0,0,0-4.24,9,77.22,77.22,0,0,0-2.75,8.61,54.28,54.28,0,0,0-1.4,7.24q-1,9.15,2.75,12.11t10.84,1.25a30.19,30.19,0,0,0,9.2-3.89,48.48,48.48,0,0,0,7.92-6.3,64,64,0,0,0,6.53-7.5L274.47,242l14.23-3.43,12.53-42.78a50,50,0,0,1,4-4,8.64,8.64,0,0,1,3.69-2c.72-.18,1.12.08,1.21.75s.18,1.41.28,2.18a4.68,4.68,0,0,0,.78,2.07c.41.59,1.31.73,2.7.39a8.92,8.92,0,0,0,3.19-1.45,11.59,11.59,0,0,0,2.43-2.36,12.66,12.66,0,0,0,1.62-2.85,11,11,0,0,0,.76-2.91A7.28,7.28,0,0,0,320.82,180.37Zm-60.28,31.21a65.47,65.47,0,0,1,3.6-7.59,36.36,36.36,0,0,1,3.93-5.79,8,8,0,0,1,3.87-2.81q1.38-.33,1.8.72a6.9,6.9,0,0,1,.17,3.08,22.08,22.08,0,0,1-1.84,6.54,28.76,28.76,0,0,1-3.73,6.15,28.09,28.09,0,0,1-5,5,18.63,18.63,0,0,1-5.68,3C258.46,217.11,259.42,214.34,260.54,211.58Z" transform="translate(-64.91 -2.36)"/><text class="cls-9" transform="matrix(0.92, -0.21, -0.12, 0.99, 25.56, 366.76)">Braga</text><text class="cls-10" transform="matrix(0.92, -0.21, -0.12, 0.99, 23.89, 365.12)">Braga</text><text class="cls-11" transform="matrix(0.92, -0.21, -0.12, 0.99, 205.79, 347.49)">.com</text><text class="cls-12" transform="matrix(0.92, -0.21, -0.12, 0.99, 205.27, 346.98)">.com</text></g></g></svg>