<?xml version="1.0" encoding="UTF-8" standalone="no"?><svg xmlns="http://www.w3.org/2000/svg" xmlns:cc="http://creativecommons.org/ns#" xmlns:dc="http://purl.org/dc/elements/1.1/" xmlns:rdf="http://www.w3.org/1999/02/22-rdf-syntax-ns#" width="539" height="625" version="1"><metadata><rdf:RDF><cc:Work><dc:format>image/svg+xml</dc:format><dc:type rdf:resource="http://purl.org/dc/dcmitype/StillImage"/></cc:Work></rdf:RDF></metadata><defs><clipPath id="a">
<path d="M0 500h431V0H0v500z"/></clipPath></defs><g clip-path="url(#a)" transform="matrix(1.25 0 0 -1.25 0 625)">
<path fill="#514d4c" d="M362 222c0 29-12 106-19 145-43 31-118 39-127 40h-2c-9-1-86-9-129-40-7-39-19-116-19-145 0-30-7-79 15-108 21-30 65-86 134-113 68 28 111 83 132 113 22 29 15 78 15 108"/>
<path fill="#fff" d="M337 121c-20-26-60-77-122-103-63 25-102 76-121 103-20 27-14 72-14 99s11 97 17 133c40 28 109 35 117 36h1c9-1 79-8 118-36 6-36 17-106 17-133s6-72-13-99"/>
<path fill="#9a2926" d="M91.0596 219.773c0 24.696 9.865 88.917 15.665 121.876 35.727 25.84 98.904 32.821 108.25 33.717 0 0 .049-340.564.001-340.595-56.931 23.241-93.582 69.87-111.581 94.404-18.088 24.712-12.335 65.879-12.335 90.598"/>
<path fill="#b62a2a" d="M338.8902 219.773c0 24.696-9.865 88.917-15.665 121.876-35.727 25.84-98.904 32.821-108.251 33.717 0 0-.048-340.564 0-340.595 56.931 23.241 93.582 69.87 111.581 94.404 18.088 24.712 12.335 65.879 12.335 90.598"/>
<path id="principal" fill="#716e6e" opacity="0" fill-rule="evenodd" d="M275.3228 196.1187c0 3.737-3.16 7.934-4.023 13.078-.863 5.144-7.616 26.442-8.479 33.627-.862 7.186.575 25.005.863 32.19.287 7.184 1.428 13.651-1.159 26.296 0 0-2.722 11.352-6.745 17.101-4.022 5.748-5.747 5.748-5.603 10.49.143 4.742.861 6.754.861 6.754s7.328 10.635 8.765 14.801c1.437 4.167 1.006 8.478 4.168 8.622 3.162.144 5.173 4.31 5.173 7.04 0 2.731-2.011 6.323-2.011 6.323s1.006 8.624.431 13.079c-.575 4.454-4.166 8.477-6.322 11.208-2.156 2.731-6.324 7.041-9.485 7.616-3.162.576-8.191.718-11.497 0-3.304-.718-8.91-4.023-11.496-8.047-2.586-4.024-6.322-6.898-7.041-12.215-.718-5.316-.144-9.483-.862-11.495-.719-2.012-1.869-5.891-1.294-7.76.575-1.869 5.03-3.737 5.03-3.737l-.431-11.784s-16.095 15.81-24.43 21.7c-8.334 5.891-19.543 17.388-22.992 20.549-3.448 3.162-12.646 12.356-18.537 21.123-5.892 8.766-17.101 22.706-20.981 26.585-3.88 3.879-13.363 15.516-17.675 21.121-4.311 5.605-6.323 9.34-6.179 12.502 0 0 2.586 7.041 2.012 12.358-.576 5.318-1.438 7.474-3.593 9.485-2.155 2.012-5.892 3.306-8.335 2.156l-.431-1.725s-3.069.677-3.88.144c-.58-.381-1.006-2.587-1.006-2.587s-3.161-.043-3.88-.718c-.756-.711-1.006-4.025-1.006-4.025s-3.448-1.148-3.448-2.298c0-1.15.431-3.449 1.581-4.599 1.149-1.149 1.58-1.868 1.58-4.023 0-2.156-.144-6.466 1.293-8.191 1.437-1.725 3.162-3.882 7.042-9.629s9.651-15.722 9.651-15.722c1.48-3.699 9.619-18.124 12.208-21.454 2.589-3.33 12.577-17.355 15.166-19.205 0 0 13.124-13.738 15.711-18.767 2.587-5.029 9.628-14.083 11.065-16.957l1.294-6.466s6.467-8.344 8.191-10.788c0 0 7.041-12.063 7.041-17.811 0 0 .575-17.531 0-24.717-.576-7.185-.575-21.986-1.15-34.057-.576-12.071-4.454-41.529-5.03-48.715l-.575-7.185 11.496-3.049s-5.172-19.369-5.891-28.422c-.719-9.054-2.156-36.354-1.007-45.983 1.15-9.629 1.438-27.734.289-33.482-1.15-5.749-5.605-22.418-8.48-32.046-1.066-3.573-2.358-7.304-3.895-12.034 8.29-6.534 22.379-15.265 30.038-19.139.853 3.22 1.611 5.799 2.176 8.756 0 0 13.644 40.095 17.093 50.729 3.448 10.634 9.34 20.548 9.34 20.548s.996-17.962 3.727-28.883c0 0 .729.143 2.166-14.226 1.435-14.37-1.438-20.119-2.3-30.464-.205-2.455-.423-5.057-.691-8.206 9.141 4.433 27.627 15.235 42.555 28.065.958 7.703 1.589 13 1.965 16.924 1.007 10.491 2.729 40.667 3.017 51.588.289 10.921-1.292 48.715-1.292 48.715s.144 5.602.144 9.338"><animate id="principal1" attributeName="opacity" from="0" to="0.5" dur="1s" begin="0s;maos_meio.end" /><animate id="principal2" attributeName="opacity" from="0.5" to="1" dur="1s" begin="principal1.end" /><animate id="principalfixo" attributeName="opacity" from="1" to="1" dur="2s" begin="principal2.end" /><animate id="principal3" attributeName="opacity" from="1" to="0.5" dur="1s" begin="principalfixo.end" /><animate id="principal4" attributeName="opacity" from="0.5" to="0" dur="1s" begin="principal3.end" /></path>
<path id="caxecol_d" fill="#716e6e" opacity="0" fill-rule="evenodd" d="M275.6314 92.8394c-.015 4.495-.465 6.277-.918 10.602.1 3.242.091 6.166-.285 9.387-.338 4.807-2.039 9.689-1.901 16.603h.19c-.029.539-.074 1.039-.127 1.526.02.362.041.723.075 1.092.551 2.916.474 4.511-.065 7.462-.642 3.395-1.464 5.34-3.002 7.74-.435 5.524-.824 7.462-2.802 10.482-.166 2.544-.238 2.954-.92 3.656.175 2.68-.068 4.938-.46 7.838.319 5.539-.795 7.811-4.592 11.517-.647 2.723-1.499 5.095-2.546 7.708l-1.132 2.683c-4.11 16.987-4.554 34.631-3.362 51.972 2.161 7.41 3.118 14.906 3.987 22.524 4.977 14.362 3.824 20.362 4.832 31.154.824 2.938 2.589 5.414 4.533 7.806 15.789 11.239 29.077 27.053 36.668 44.946 4.317 7.038 2.498 7.448 1.143 12.849l-1.998 7.598c-1.607 5.162-3.325 9.421-5.8 14.241-4.664 8.96-9.694 17.718-14.025 26.846 3.344 9.498-.981 8.205-1.593 13.01.292 3.382.61 4.154-1.297 6.916-1.242 3.885-1.328 3.495-5.329 4.381-1.502 2.004-2.321 2.46-4.801 2.521-1.915 2.399-1.652 2.505-4.636 1.86-1.678 6.223-4.931 3.916-6.365-.286l-1.185.474c-1.966 10.593.143 12.296-10.603 13.528-1.827 15.964.942 16.697-14.965 19.151-15.357 25.396-17.139 12.495-35.86 22.308-3.656 1.917-10.18-6.635-7.455-17.578.918-3.675-5.502 4.066-10.472 3.013-18.027-3.887-13.9-22.988 4.906-16.285 2.644.937 9.225-9.531 2.864-17.35-2.014-2.449 2.501-4.839 9.077-3.52 6.598 1.318 15.252 6.351 21.078-1.088l10.817-1.198c7.808-.503 10.867-1.323 17.735-5.066l4.161-2.303c2.254-1.215 4.039-1.486 6.568-1.93-2.427-9.874 3.946-12.634 9.457-18.632 2.009-2.32 2.066-1.912-.644-3.385l-1.114-.974c-7.842 3.079-8.365.866-9.172-6.315.023-3.076-3.382-6.452-1.157-9.05 4.265-4.97-4.012-8.658 8.972-4.952l5.128 2.827c3.184 2.152 4.099.682 7.381.453l.979-4.621c3.264-12.373 2.177-19.488 5.029-29.107.835-2.826-5.048-6.433-7.668-9.276-4.588-5.337-9.408-12.133-14.138-15.486-6.694-4.736-13.284-5.622-19.409-11.994-1.844-2.148-3.223-3.595-4.204-6.225-2.664.498-3.364 1.769-6.402 1.631.326 3.443.546 6.825.635 10.286l.077 3.122c5.644 3.636 6.097 5.908 6.746 11.972-.173 3.855-.64 7.113-1.457 10.896-.202 8.864-3.281 14.951-9.87 20.399-12.036 6.08-21.511 4.411-29.526-6.606-2.487-5.289-3.484-8.746-3.226-14.463-.412-3.206-.988-5.775-.222-8.912.812-5.92-.303-7.575 5.817-13.209 2.044-2.728 1.808-4.273 2.017-7.675l.253-4.528c-.097-3.81-1.105-3.258-4.634-4.657-5.84-3.258-6.771-5.41-12.953-2.787-8.486 2.535-14.928-.759-22.268-4.313l-10.627-5.441c-5.649-4.091-15.503-2.361-26.292-5.937-5.723-.673-7.793-.549-13.198 1.436-10.982 3.085-22.051 4.34-32.915 8.014-7.951 3.534-19.114 5.849-23.283 14.034-1.055 2.79-2.192 5.294-3.762 7.81l-2.032 2.644c-1.151 1.982-2.492 2.736-4.368 4.064-4.539 6.515-5.547 2.019-2.247-3.253-3.389 1.839-4.58 3.717-8.44 4.254-2.755.165-8.309.421-7.77-3.382-3.208-.315-4.651.011-4.044-3.482-.14-.31-.274-.614-.399-.894-1.748-4.212-.328-4.486 5.435-5.122l2.736-1.257c1.894-1.106 2.846-1.638 5.016-1.881 1.943-3.132-1.939-2.107-3.735-1.93-3.362.308-9.938 3.117-11.023.184.213-2.743 4.186-3.092 6.295-3.654l4.759-.757c2.499-.761 3.491-1.153 5.398-2.904 5.31-4.283 10.464-7.894 17.273-8.064 12.464-7.007 24.313-14.822 36.972-21.373 6.279-2.823 11.634-5.65 18.539-5.836 5.478-2.24 9.27-1.61 15.232-1.302 13.621-1.137 26.594.15 39.778 5.147 3.584 1.184 5.804 3.273 7.346 2.625 2.123-.906 3.052-5.33 4.993-9.462 2.75-8.259 5.247-13.531 6.735-24.184 2.143-10.051 2.034-17.896 1.654-27.634-.342-8.885.543-19.318-1.808-28.57-.877-1.266-.856-2.03-1.006-3.58-1.635-1.948-1.513-2.815-1.708-5.377-2.265-1.953-2.902-2.005-2.976-4.977-2.934-3.928-2.755-5.681-1.734-10.162-1.035-1.531-1.624-2.481-2.022-3.72-.417-.822-.612-1.753-.677-2.727-.823-1.841-.909-3.293-.995-5.235-.815-1.545-1.328-1.996-2.064-4.904-.512-3.529-.672-7.85-3.357-13.844-1.524-3.996-2.723-6.966-2.988-11.179-1.173-3.482-1.536-5.534-1.457-9.19-2.734-9.815-3.404-20.017-4.759-30.085-.955-4.054-1.738-8.141-2.122-12.268 9.191-7.987 19.314-15.647 30.394-22.479.032.216.062.441.087.688 1.199 1.882 3.138 4.546 3.942 6.957 2.114 4.464 4.188 8.927 6.239 13.406 4.809 11.573 9.21 21.928 16.339 33.811 1.885 2.198 2.129 3.538 2.8 6.323.551.215 2.222.092 2.267 1.062.076 2.616.936 2.786 1.272 2.769.905-.074 1.202-2.873 4.841-3.718.915-3.147 2.027-5.684 3.508-8.599l6.388-12.011c2.673-5.357 3.1-8.052 4.784-13.732 1.863-5.289 3.931-9.41 5.181-15.249.747-3.459 2.27-3.061 4.197-10.484 11.054 6.939 21.065 14.584 30.058 22.433-.178 1.316-.405 2.624-.701 3.921-.881 3.926-.474 10.842-.514 15.048"><animate id="caxecol_d1" attributeName="opacity" from="0" to="0.5" dur="1s" begin="principalfixo.end" /><animate id="caxecol_d2" attributeName="opacity" from="0.5" to="1" dur="1s" begin="caxecol_d1.end" /><animate id="caxecol_d_meio" attributeName="opacity" from="1" to="1" dur="2s" begin="caxecol_d2.end" /><animate id="caxecol_d3" attributeName="opacity" from="1" to="0.5" dur="1s" begin="caxecol_d_meio.end" /><animate id="caxecol_d4" attributeName="opacity" from="0.5" to="0" dur="1s" begin="caxecol_d3.end" /></path>
<path id="caxecol_aberto" fill="#716e6e" opacity="0" d="M264.4185 353.5308c-1.471-.664-1.588-1.021-2.359-2.463-4.465.611-4.594 1.471-6.555-2.59-3.467.158-3.232.201-5.117-2.728-.633-.088-2.098-.498-3.131-1.266-1.178-.863-1.934-2.082-2.975-1.795-2.453.729-5.172.961-4.642-2.502.34-1.838-.83-5.564-1.768-6.17-.574-.355-.742.664-1.326 3.108-.354 1.441-4.627-.471-6.475-.172.282 3.785-1.084 8.619.891 11.129 3.908 4.955 7.531 6.832 6.555 15.369-.305 2.723.097 6.316-.485 6.762-.181 8.072.676 13.773-2.004 20.218-1.675 11.674-21.655 17.153-33.429 11.92-2.742-2.105-2.681-2.263-6.021-1.42-2.221 1.016-2.807 1.004-5.227.686-12.389-2.195-14.713-13.881-10.58-25.066 2.695-4.278 5.023-5.983 6.176-9.25 1.121-3.194 1.078-7.958 2.394-12.834.477-2.59.481-3.668 3.746-2.491.09-2.418 1.465-4.972 2.684-7.029 1.064-1.887.75-2.268 1.053-4.447.07-1.971.256-3.248-.399-3.615-.841-.469-2.541.457-2.22 2.027.297 1.43-2.901 1.838-2.918 1.949-.184 1.535-1.028 3.656-2.368 4.098-1.007.343-2.019-.821-3.242-.782-2.33.088-1.254 3.463-7.898 5.575-2.426 3.48-2.176 3.543-6.397 3.431-1.664 3.645-2.552 1.061-4.959 1.977-.527 4.17-3.195 4.076-6.513 4.482-7.139 12.065-13.737 21.692-24.975 30.58-.408 1.125-.91 2.233-1.379 3.344-5.695 13.485-15.765 25.924-24.89 37.256 2.234.068 4.671.457 7.332 1.299 43.972 6.172 187.009-1.131 210.107-3.895-.235-.095-.416-.195-.663-.293-8.789-8.601-17.117-18-23.593-28.513-1.094-5.215-2.106-7.364-6.582-10.955-1.202-.588-2.383-1.495-3.575-2.59-4.652-4.262-9.544-12.295-17.082-24.137-1.861-.748-2.289-1.381-3.539-2.986-2.529.011-2.324.082-3.406-2.221-1.613-.406-2.23-.088-2.246-3m-173.97 83.162c0 .012 0 .018-.002.029h.002v-.029zm-19.711 38.061c.049-.028.076-.004.123-.028.051-.076.098-.146.148-.23-.095.094-.179.166-.271.258m277.757 4.291c-.025-.33-.07-.674-.064-.975-.012.102-.039.154-.043.266.058.252.074.474.107.709m3.928-3.545c.361-1.485.555-2.233.898-2.643-.515.49-.797 1.289-.898 2.643-1.656-.237-2.637-.065-3.238.556.597-.521 1.57-.755 3.238-.556m3.326-3.225c-.844-.08-1.412.02-1.896.219.402-.131.982-.164 1.896-.219m.479-1.81c-.196.464-.344 1.015-.455 1.74.201-.774.326-1.328.455-1.74m2.324-.954c-.008-1.529.262-2.345.66-2.726-.586.342-.943 1.221-.66 2.726m3.244-1.443c-.299-.555-.682-.959-1.096-1.193.383.273.762.683 1.096 1.193m-84.658-367.426c1.59 9.428-.684 16.061-2.225 25.811-.174 1.365-.338 2.719-.504 4.055-.199 7.64-1.252 15.287-2.701 22.787.5 3.029.461 4.453-1.066 7.031-.461 2.59-.932 4.4-1.6 5.889-.035 2.73-.65 3.832-2.869 6.386-.682 2.391-1.512 3.135 3.465 1.741 3.605-.34.201 1.857.293 6.404-.737 4.418-1.61 8.584-3.473 12.703 1.43 6.814-.756 12.99-.059 16.09 1.036 4.289.704 6.474-.093 10.846-.84 6.445-1.295 12.322-.299 18.584 1.289 6.689 2.332 13.394 3.361 20.126 2.309 14.373.914 23.717 2.258 37.524 1.129 12.058 3.434 13.002 6.887 18.767 1.648 2.741 2.613 5.321 4.48 8.133 2.619 1.194 3.16 1.715 4.797 4.1.352 3.551 4.582 7.342 6.899 11.801 3.007 5.824 6.289 10.945 9.105 15.91l5.008 9.906c1.402 2.844 2.793 5.328 4.336 7.766 1.156 1.828 2.39 3.633 3.82 5.529 2.059 1.553 2.369 1.66 2.531 4.191 11.223 10.618 19.469 26.629 25.356 40.541 1.808-.269 3.512-.541 5.015-.91 12.028-4.375 3.989-2.541 3.498-7.726.096-1.981 6.877-3.494 7.104-5.082.586-4.047-4.617-7.383-.143-11.026 1.205-.978-4.705-4.259-5.232-6.263l-.418-6.018c.211-4.9 3.436-9.51 3.084-14.408.342-5.58-7.08-14.08-6.525-18.348.629-4.84 9.242-5.277 9.554-8.746.405-2.873-1.879-2.287-2.492-5.273-.375-1.752.496-7.02 1.09-8.75.613-.772 1.223-1.551 1.83-2.33.516.556 1.076 1.24 1.678 2.162 1.105 1.715 3.976 1.177 6.97.966l23.35 8.254-2.547 7.426 2.625 10.166-3.047 5.625-2.898 13.588-5.184 7.773 2.758 10.665-.879 7.736-3.773 9.592 1.543 6.883-2.625 11.005-5.145 9.832-2.549 9.815-1.072 6.539c-1.168 3.861-2.562 7.65-4.387 11.256-2.214 2.719-1.109 3.58-4.046.666-.012-.004-.02-.016-.02-.016.148.235.301.486.43.748.353.721 1.254.949 1.629 1.477 1.746-.797 3.318-5.5 4.086-7.451.64-1.711 1.939 5.939.539 10.111-.778 2.93-.44 3.529-3.254 4.59.013 3.023-1.399 5.894-4.756 4.16.103 3.299-1.863 4.623-5.221 3.035-2.25 5.162-5.957 2.309-6.629-3.58-.062-.457-.125-.902-.185-1.33.072 2.672-1.432 4.041-3.678 4.863.117-.025.223-.053.336-.078.258 1.383 1.877 8.871-1.781 9.152-.514.043-.911-1.427-.877-3.545-.364-1.857-.698-2.91-1.643-4.541.008.002.012-.009.02-.011-1.184.205-2.397.383-3.604.594-48.035.332-96.105-.786-144.107.386-33 .809-66.899 2.883-99.875 4.594-2.416.121-3.778-.336-4.403-1.924-.378-.32-.917-.724-1.364-1.172-1.079 2.387-4.745 2.391-5.895-1.447-2.379 2.656-3.92 1.66-5.189-1.439-3.25 2.173-5.627.673-5.215-3.522-1.583-.029-2.653.475-3.434-.969-.274-1.439-.281-2.857-.203-4.293-1.172-.638-2.406-2.748-3.957-4.664-2.586-3.181-7.039-10.154-7.832-12.181-2.106-5.11 2.156-9.311.836-15.692-6.82-9.558-5.873-14.58-6-26.515-4.16-16.926-17.121-30.203-11.711-47.432.914-6.051 3.109-3.949.342-9.416-1.416-3.314-3.375-4.498-.158-6.527 11.909 1.711 9.814.908 12.769-10.657.315-.884 1.215-2.011 2.389-3.089 3.492-3.204 9.408-5.942 9.568-.35.793 28.141 13.203-9.844 12.074 11.648 4.575 9.698 16.364-1.576 16.385 5.748.01 3.621-1.826 8.274-4.092 12.696-3.572 6.968-8.222 13.361-8.449 14.193-3.617 13.43.481 28.072-9.492 32.836 13.01 4.732 12.623-3.322 8.281 9.891 6.278-2.45.299.386 6.426 3.644 5.246-16.869 12.977-31.875 24.119-45.756.272-.627.533-1.15.799-1.652.935-1.764 1.922-2.93 3.621-4.648 10.066-17.643 11.6-25.293 30.115-49.452l2.346-3.136c4.945-5.782 7.48-10.231 10.652-17.18 2.799-5.348 3.41-8.043 2.213-13.207-1.275-5.459-1.346-13.393-1.181-19.492 1.566-9.797 3.886-22.168 4.675-37.174.524-8.399-.672-16.736-.67-25.9-.018-3.024-.068-7.325-.525-10.196-.422-2.595-1.84-4.207-1.618-6.521-1.466-4.512-1.163-8.907-1.888-13.6-.752-5.672.088-5.062 3.092-4.974.016-.006.035-.006.046-.006-.769-1.828-1.392-3.803-1.78-6.123-5.204-1.916-2.825-3.51-4.25-8.854-9.45-11.121-11.604-21.463-13.625-35.238-4.79-9.029-4.872-16.629-5.997-26.848-.86-2.493-1.607-4.899-2.284-7.276 10.966-11.734 23.8-23.712 38.592-34.419l8.642 15.287c7.793 12.533 13.843 31.102 28.636 35.361 2.191-4.529 4.123-6.967 7.633-10.599 3.099-11.555 6.258-21.639 12.39-31.852.012-8.297 1.828-15.369 3.641-23.514.019-.234.037-.441.055-.667 17.102 8.981 32.034 19.853 44.874 31.12.221 8.68.153 17.312-.253 26.301"><animate id="caxecol_aberto1" attributeName="opacity" from="0" to="0.5" dur="1s" begin="caxecol_d_meio.end" /><animate id="caxecol_aberto2" attributeName="opacity" from="0.5" to="1" dur="1s" begin="caxecol_aberto1.end" /><animate id="caxecol_aberto_meio" attributeName="opacity" from="1" to="1" dur="2s" begin="caxecol_aberto2.end" /><animate id="caxecol_aberto3" attributeName="opacity" from="1" to="0.5" dur="1s" begin="caxecol_aberto_meio.end" /><animate id="caxecol_aberto4" attributeName="opacity" from="0.5" to="0" dur="1s" begin="caxecol_aberto3.end" /></path>
<path id="salto" fill="#716e6e" opacity="0" d="M274.2417 97.9155c-3.217 10.375-7.419 20.516-11.743 30.619 2.065 2.097.833 5.564-1.386 8.976-1.658 2.061-3.225 3.893-4.82 5.614-.397.94-.796 1.877-1.181 2.813.526 5.935-4.463 3.215-6.061 12.569l-.852 5.483c.616 6.269-1.661 6.235-3.866 8.056.935 3.984-1.432 6.991-2.811 11.265.027 1.865-.015 3.495-.115 4.916l-.772-.089c-.025.591-.027 1.202.013 1.838-.698 8.042-1.264 15.945-2.692 23.913 1.856-5.22 6.979-13.559 7.45-18.554.797-8.63 6.958-19.235 14.258-29.148 5.796-7.864 12.395-18.664 16.96-25.312 5.689-9.054 1.461-10.804 6.894-17.756l.065.004c2.346-3.936.938-6.774 4.765-11.139 1.196-1.34 1.735-1.863 3.372-2.546 2.055-2.328 3.65-2.493 6.405-.96 1.652.2 3.137-.197 4.816 1.64 3.31-.146 3.699.485 4.57 1.674 3.619-3.02 6.547-.232 4.646 4.273 2.206 3.134.607 4.498-1.585 7.525-.45 5.6-7.265 4.861-13.302 8.069-1.691 1.625-3.359 3.549-4.796 6.034-6.525 12.83-10.658 24.503-13.585 38.685-2.347 15.052-7.217 20.442-12.287 32.68-1.881 4.522-2.307 7.989-3.744 12.677-1.845 5.25-.954 10.202-3.099 15.534.692 7.529.703 13.027-.474 20.489.86 9.205-4.702 14.551-11.522 20.754-4.384 3.965-9.318 9.325-13.307 12.877-1.661 6.108 3.873 4.547 4.033 14.607 4.66 2.666 5.933 5.985 8.637 9.855 3.981-.463.691 3.402 3.208 6.091 2.95 3.138 4.158 8.735.146 7.781 3.471 9.365 5.601 17.994 1.619 27.799-2.639 8.004-4.438 11.656-13.537 13.516-16.017 6.922-29.67-7.138-34.114-21.138-1.229-3.92.331-6.033.223-9.879-4.925-.172-4.085-5.374-4.103-9.476 1.428-4.153 1.538-6.151.443-5.144-1.822 1.651-3.024 9.229-8.319 10.462-.105 3.103-.345 3.288-2.524 5.52-.857 3.41-2.431 5.116-4.294 8.098-1.853 2.995.279 13.799-3.347 26.664-1.428 5.064-3.722 10.44-7.544 15.8-1.212 1.684-.294 3.845-.543 7.81-.973 15.563-9.996 38.591-13.386 48.559-1.461 6.166-3.551 12.737-4.212 19.11 0 0-.346 3.565.132 5.094.292.937 1.342 1.32 2.117 2.072 1.682 2.123 3.396 4.225 5.108 6.318 2.593 5.344-1.061 5.052-1.245 10.013.08 4.144-1.54 7.638-6.154 6.219-1.676 2.676-4.794 1.948-7.041.167-2.84 1.348-3.815 1.213-5.783-1.621-3.307.759-4.058-.732-5.701-3.703-3.529-4.58-.707-13.029.889-19.69.814-1.59 1.218-3.014 1.423-4.435 0 0 1.167-15.991 2.201-23.902 2.604-18.038 1.905-34.259 11.01-57.474.759-1.893.682-3.941.741-5.767-.141-3.828-.219-7.389-.223-10.898-.007-9.291.523-18.215 1.9-30.774-1.033-6.273.786-6.715 1.924-15.316-.093-6.971 2.088-13.943 2.097-19.826.011-5.885-1.825-9.985-2.234-16.317-3.401-10.791-3.897-19.998-3.805-31.376-2.79-7.154-3.309-11.532-3.53-19.234-8.91-11.61-6.619-27.72-9.527-41.364-.098-9.3 3.497-4.839 7.659-9.835 2.128-2.547 3.259-6.234 5.192-9.327.178-4.298.007-8.527-1.065-12.315-6.323-5.423-5.09-5.632-3.539-13.868-.871-2.541-.616-4.765-.153-6.924-.136-.894-.254-1.792-.369-2.71-1.178-4.43-1.259-5.497.212-8.527-.176-.316-.343-.64-.552-.985-4.042-7.996-3.845-11.326-3.502-20.372-1.753-8.733-2.779-17.198-3.613-25.852 10.954-10.834 23.51-21.555 37.743-30.979 1.613 7.284 2.824 17.18 6.678 22.414 5.604-.549 11.013-2.569 13.252 4.056l1.992 9.048c1.735 5.001 2.012 14.063 3.605 15.15.742.489 1.132-1.825 3.15-4.869 5.331-7.398 8.851-8.547 17.197-12.451 4.443-2.557 4.266-9.159 8.47-5.094l4.382-7.867c3.338-5.33 7.722-14.334 11.654-21.131 11.13 7.217 21.157 15.136 30.138 23.201-.721 2.493-1.507 5.001-2.357 7.605 2.264 2.384-1.212 8.555-3.073 13.938"><animate id="salto1" attributeName="opacity" from="0" to="0.5" dur="1s" begin="caxecol_aberto_meio.end" /><animate id="salto2" attributeName="opacity" from="0.5" to="1" dur="1s" begin="salto1.end" /><animate id="salto_meio" attributeName="opacity" from="1" to="1" dur="2s" begin="salto2.end" /><animate id="salto3" attributeName="opacity" from="1" to="0.5" dur="1s" begin="salto_meio.end" /><animate id="salto4" attributeName="opacity" from="0.5" to="0" dur="1s" begin="salto3.end" /></path>
<path id="melinha" fill="#716e6e" opacity="0" d="M143.5713 212.4331c-1.412-7.532-2.354-32.484-2.354-32.484s-.235 32.25-1.412 39.546c-1.177 7.297-2.119 12.947-2.119 12.947s4.708 15.536 5.885 21.186c1.177 5.649 3.06 9.416 3.06 9.416l.472-38.371s-2.12-4.707-3.532-12.24m139.031-32.065c-.59 8.368-6.012 58.818-6.012 58.818s11.316-30.529 12.141-37.366c.825-6.836 1.297-7.308 2.122-14.145s1.65-11.787-.354-21.335-2.475-12.494-2.947-20.745c-.471-8.251-1.296-10.845-1.532-15.441-.236-4.598.353-6.837 3.419-3.89 3.064 2.946 5.893 6.247 6.365 9.43.471 3.182 1.767 10.018 1.767 10.018s3.183-6.129 3.183-10.49c0-4.361.118-4.715-2.357-8.604-2.476-3.89-4.597-6.366-4.008-7.309.59-.942 3.064-1.061 6.012.353 2.946 1.416 9.311 7.309 10.843 13.438 1.534 6.13 4.244 13.909 4.362 25.461 0 0-2.24 18.977-5.069 31-2.829 12.023-3.889 26.758-5.186 35.834-1.296 9.076-5.069 28.878-6.719 33.004-1.649 4.125-8.133 15.677-9.665 23.103-1.532 7.426-4.361 27.464-6.719 37.601-2.357 10.137-6.719 24.164-6.6 28.289.117 4.126.117 7.427-2.948 9.548-3.064 2.122-27.15 12.78-32.573 15.138-5.422 2.357-10.953 3.584-11.747 3.84-.793.256 2.594 9.665 2.358 12.259-.236 2.593 4.479 4.597 4.007 8.84-.471 4.244-2.121 8.84-2.357 13.084-.017.301-.008.572.016.826.299 3.338 3.831 3.036 6.349 7.307 2.711 4.597 5.422 12.73 4.833 18.977-.59 6.248-3.89 12.377-8.369 17.328-4.479 4.951-8.251 9.901-8.251 9.901l-1.65 2.24s3.772 5.893 1.532 10.019c-2.239 4.126-2.358 4.479-4.243 4.833-1.886.353-3.183.471-3.183.471s-1.179 5.069-4.479 7.544c-3.301 2.475-5.304 3.301-8.84 3.182-3.537-.117-6.719-2.946-6.719-2.946s-1.769 3.418-5.305 4.361c-3.536.943-10.255-.118-14.027-2.593-3.772-2.475-10.019-6.13-11.315-7.544-1.297-1.414-4.361-6.601-5.187-10.962-.825-4.362-2.593-8.369-4.125-13.202s-3.418-6.719-3.536-8.015c-.118-1.297.589-3.772.589-3.772s-2.24-.236-2.947-4.597c-.707-4.361-2.003-8.251.118-13.32 0 0 2.947-7.426 4.951-10.608 2.004-3.183 5.068-8.134 6.836-9.312.798-.532 1.786-1.758 2.75-3.107 1.175-1.642 2.314-3.467 3.026-4.437 1.297-1.768 3.065-4.951 3.065-4.951s-.825-1.65-.707-5.068c.118-3.419 3.418-6.012 3.889-6.719.472-.707 4.48-3.183 4.951-4.597.472-1.414.472-4.833.472-4.833s-10.138-6.601-15.795-9.665c-5.658-3.065-16.385-7.662-24.4-10.963-8.015-3.3-11.669-5.068-11.669-6.6 0-1.533 2.711-4.951 3.418-5.423.707-.471-.59-2.711-.59-2.711s-12.14-30.293-14.144-37.483c-2.004-7.19-3.065-13.202-4.126-21.571-1.061-8.368-1.65-12.494-3.418-19.213-1.768-6.719-4.126-20.746-4.361-31.59-.236-10.844.589-21.571 3.418-33.358 2.829-11.787 8.84-35.951 10.491-45.734 1.65-9.784 3.654-17.799 4.243-28.408.589-10.608 1.061-17.091 2.711-18.034 1.65-.943 4.362-.59 4.362-.59s-.354-1.885 1.532-3.064c1.886-1.179 4.008-.472 4.008-.472s.235-3.536 3.418-3.182c3.182.353 4.597 1.885 4.597 1.885s1.149-12.014 3.055-23.257c17.916-16.361 39.603-31.799 65.343-42.042 28.084 11.459 51.093 28.43 69.37 45.632-.842 27.192-2.45 75.186-2.45 75.186s1.297 16.148.707 24.518"><animate id="melinha1" attributeName="opacity" from="0" to="0.5" dur="1s" begin="salto_meio.end" /><animate id="melinha2" attributeName="opacity" from="0.5" to="1" dur="1s" begin="melinha1.end" /><animate id="melinha_meio" attributeName="opacity" from="1" to="1" dur="2s" begin="melinha2.end" /><animate id="melinha3" attributeName="opacity" from="1" to="0.5" dur="1s" begin="melinha_meio.end" /><animate id="melinha4" attributeName="opacity" from="0.5" to="0" dur="1s" begin="melinha3.end" /></path>
<path id="maos" fill="#716e6e" opacity="0" d="M260.1841 82.0435c-.047 2.261-.601 6.041-1.068 10.131-.487 4.091-2.92 14.736-3.889 19.19-.954 4.451-2.419 13.214-3.518 16.841-1.115 3.627-1.099 6.306-1.231 7.527-.147 1.224-2.77 6.846-2.991 7.237-.218.387-1.073 1.415-1.407 3.232-.337 1.822-.663 5.371-.954 6.084-.291.71-.262 1.555-.997 3.144-.73 1.6-.805 1.82-.659 2.751.147.929-1.613 3.252-1.568 3.62.028.365.19.922.534 1.731.345.805.427.534.741.607.321.074 1.569.367 2.595.681 1.027.315 1.467-.044 1.788.032.322.072.439.262 1.378 2.272.954 1.999-.644 4.471-1.025 5.35-.383.879-1.071 2.267-1.437 3.299-.365 1.032-.353 1.82-.482 3.042-.149 1.226-.588 2.053-1.044 4.304-.44 2.25-2.33 9-2.449 9.911-.117.901-.328 1.391-.467 2.617-.132 1.221-.565 2.16-.823 3.232-.263 1.077-.36 7.331-.36 8.855-.004 1.523-.211 2.124-.301 2.764-.085.637-.364 10.271-.612 11.399-.258 1.13-.279.921-.279 1.445 0 .527-.031.79-.044 1.631-.015.837-.043 1.63-.176 2.435-.117.801-.558 3.732-.713 4.844-.145 1.124.14 2.354.288 2.863.161.504-.433 7.547-.411 7.814.028.254.06 1.09-.016 1.829-.088.751-.365 1.094-.638 2.011-.272.921-.05 1.585.068 2.721.118 1.149.071 1.25.071 2.258 0 .994-.114 1.946-.028 2.782.088.831.054 3.615-.133 5.47-.175 1.854.469 2.001.66 2.823.191.813.052 6.715.148 7.125.096.409.615.929 1.815 1.333 1.197.404 2.173-.271 2.849-.344.672-.067 3.105-1.466 4.161-1.891 1.07-.425 3.004-.99 3.915-.822.909.177 2.595.317 3.842.139 1.247-.182 1.554.368 2.272.61.702.243 1.333.227 1.891.066.558-.162 1.833-.558 2.787-.492.951.059 1.111.615 1.669.983.572.367 1.025.265 1.98.374.953.116 2.098-.104 3.988.38 1.876.491 3.299 2.611 3.563 3.577.25.976.35 3.483.808 4.333.452.844 1.347.858 2.74 1.709 1.408.857 2.566.895 4.251 1.459 1.671.563 2.007 1.789 2.155 2.139.149.359-.059 1.006-.631 1.541-.572.526-.878 1.238-.982 1.722-.103.484.264.549 2.48 3.211 1.94 2.337 6.225 8.18 9.146 11.907.413.525.799 1.01 1.146 1.435 2.812 3.436 9.747 13.283 9.747 13.283s.426.168.616.409c.177.241 2.315 3.175 2.315 3.175l.222.659s.204.345 1.683 2.039c1.484 1.685 3.74 4.757 4.546 5.57.824.807 1.952 1.481 3.697 2.719 1.406.992 2.168 2.33 3.458 4.476.321.536.648 1.084 1.057 1.735 2.068 3.254 4.383 6.904 4.984 7.682.601.777.881.907 2.009 2.256 1.144 1.358 1.788 2.024 2.595 2.787.821.754 1.644 2.089 2.448 2.895.822.815 1.803 2.755 2.566 4.515.749 1.76-.657 2.273-1.482 2.514-.805.243-1.746-1.186-2.754-2.344-1.01-1.158-2.961-3.263-4.001-4.208-1.043-.947-2.273-1.715-2.57-1.994-.291-.295-.761-.295-.967-.22-.203.073-.512.52-.321 1.341.177.821 1.335 2.39 2.375 4.282 1.026 1.882.996 2.146 1.762 4.01.775 1.869 1.579 3.675 2.433 6.266.832 2.591-1.058 3.047-1.733 3.168-.676.12-.936-.532-1.697-1.77-.765-1.232-1.437-3.215-2.274-4.755-.836-1.542-2.39-3.431-2.83-4.171-.457-.748-1.337-2.757-1.703-2.66-.351.088-.012.366.03.782.045.411 1.102 1.937 1.584 3.14.498 1.213 1.817 3.915 2.698 5.819.88 1.905.968 2.368 1.671 4.028.688 1.663.63 2.614-.279 3.493-.91.881-2.082.162-2.857-.754-.778-.924-.997-2.001-1.687-3.141-.69-1.133-1.304-1.966-1.819-2.911-.511-.943-1.318-2.122-1.656-2.873-.338-.754-2.361-5.062-2.477-5.208-.118-.147-.396-.279-.687.33-.31.614.173 1.297.557 2.41.365 1.119.686 2.661 1.009 3.783.322 1.122.471 3.104.732 4.128.265 1.021.882 3.53.5 4.409-.383.88-2.068.737-2.874.084-.807-.656-1.627-3.566-2.215-5.187-.571-1.617-1.994-6.196-2.491-7.987-.482-1.788-1.628-4.184-2.33-5.43-.704-1.24-2.92-3.425-3.974-3.9-1.039-.47-1.597-.258-2.684.38-1.099.638-.864.77-1.479 2.039-.604 1.269-1.247 3.225-1.465 4.09-.237.857-.706 1.855-1.63 3.577-.94 1.723-3.534 2.932-4.37 3.016-.836.084-1.449-.848-1.508-1.422-.06-.57.541-1.315 1.086-2.26.527-.948.936-2.566 1.626-5.103.689-2.536 1.26-6.215 1.348-7.433.088-1.215.954-2.931 1.981-4.714 1.027-1.787 1.86-5.966 1.817-6.956-.027-.429-.214-.985-.461-1.558-.326-.756-.765-1.546-1.183-2.159-.731-1.084-2.694-3.246-2.694-3.246s-.267-.133-.545-.258c-.277-.131-2.697-3.716-2.697-3.716s0-.529-.381-.747c-.396-.222-4.105-4.781-5.718-6.613-1.223-1.403-4.208-4.065-7.258-6.338-.934-.694-1.871-1.358-2.771-1.931-3.808-2.441-7.418-5.328-7.418-5.328s-.718.645-1.072.841c-.35.191-.613.161-1.158-.043-.539-.205-.937-1.533-1.419-2.163-.485-.629-1.467-1.428-1.775-1.342-.308.082-1.538.264-2.61.11-1.07-.153-1.379-.125-1.804-.131-.411-.015-1.099.477-1.83.968-.736.498-1.672.593-1.922.725s-1.187.279-1.758.338c-.574.059-1.187.593-2.524 1.406-1.333.822-1.376.456-2.007.418-.631-.042-1.499.309-2.038.579-.557.265-.718.749-1.087 1.84-.349 1.087-.278 1.342-.907 2.398-.631 1.062-1.994.997-2.545 1.262-.549.263-.756.858-1.318 2.491-.573 1.635-1.4 3.716-2.074 4.889-.676 1.166-2.722 3.212-3.622 4.143-.903.931-2.77 1.597-3.27 1.963-.484.367-2.816 1.652-4.485 2.347-1.658.688-2.244.593-2.919.659-.672.073-2.784.447-2.784.447s-.851.455-2.046 1.1c-1.196.645-1.973.674-1.973.674s-.191.279-.291.763c-.107.473-.293 1.161-.64 2.255-.007.025-.012.043-.021.068-.157.511-.436.968-.699 1.331-.316.445-.606.745-.606.745l1.966 4.946.782.441c.785.447.608.359 2.119 2.31 1.509 1.941 2.537 3.731 3.799 5.754 1.246 2.023 2.168 2.823 2.903 4.794.717 1.972 1.268 5.805 1.268 5.805l.152-.014c.161-.022.997.47 1.511 1.419.52.941.065.621.322 2.119.266 1.494 1.099 2.562 1.885 4.059.785 1.496 1.118 2.248 1.633 5.239.513 2.993.5 3.888-.403 4.296-.902.407-2.463-1.014-2.463-1.014l.097.414c.088.409.146 1.504.189 1.87.037.363.102.513.22 1.131.118.618-.03.74-.034 1.211 0 .474-.084.797-.031 1.262.052.468.192 1.345.226 1.708.037.366.087 1.36.059 1.623-.022.268-.3 1.661-.455 2.199-.16.543.043 1.517-.006 1.994-.059.481-.317 4.18-.347 4.394-.028.211-.329.874-.539 1.317-.222.441-.279.341-.619.638-.336.296-.393.829-.658 1.276-.271.446-.212.495-.618 1.216-.392.722-.557.684-.709 1.228-.152.543-.697.965-.87 1.299-.17.328-.618.584-.972 1.197-.365.616-.526.579-.658.75-.146.174-.25.658-.446.833-.193.177-.463.048-.934.148-.451.099-1.932.615-2.22.852-.284.244-1.083.69-1.377.928-.284.241-1.548.738-1.891.983-.345.244-1.283.339-1.739.439-.461.1-1.127.272-1.628.533-.496.264-1.802.395-2.322.395s-1.326-.127-1.898-.12c-.572.005-1.254.073-1.495.256-.249.184-1.167-.092-1.585-.099-.426-.012-1.298-.345-1.676-.462-.376-.119-1.08-.258-1.403-.33-.322-.073-2.271-.187-2.653-.309-.381-.117-1.26-.553-1.751-.709-.493-.162-1.869-.863-2.309-.975-.427-.115-.94-.481-1.467-.585-.541-.105-1.276-1.081-1.554-1.259-.279-.185-1.276-.66-1.81-.813-.543-.156-.915-.746-1.151-.933-.221-.186-.836-1.019-1.061-1.206-.229-.186-.39-.747-.524-.945-.123-.197-.191-.872-.262-1.074-.072-.202-.747-1.183-.926-1.322-.168-.14-.461-.949-.483-1.158-.014-.21-.872-2.379-.872-2.379s-.051-1.046-.082-1.254c-.012-.206-.452-.951-.527-1.101-.055-.149-.527-1.046-.527-1.046s.293-1.29.218-1.441c-.055-.15-.313-1.072-.379-1.222-.073-.15-.221-.604-.314-1.019-.097-.407-.304-1.436-.304-1.436l-.35-.806-.175-.766s.116-.854.191-1.176c.073-.323.012-.895-.009-1.104-.021-.204-.079-.828-.079-.828l-.212-1.031s-1.313.554-1.885.613c-.572.059-.763-.344-1.555-1.944-.797-1.597-.468-2.993-.468-4.097-.016-1.099.99-2.096 1.687-3.532.688-1.433 1.715-4.791 1.947-6.023.251-1.235 1.834-1.605 2.516-1.675.674-.07.77.342.77.342s0-.524.088-1.216c.086-.691.132-3.369-.082-6.448-.211-3.072-2.427-9.883-2.63-10.337-.206-.454-1.321-1.172-2.018-1.261-.695-.088-1.399.139-1.994-.007-.591-.154-3.216-.197-4.58-.638-1.358-.44-2.154-.095-2.751.33-.583.433-.109 1.43-.195 2.127-.087.687.44 1.209.792 1.597.35.381.836 1.539 1.025 2.36.183.822 1.09 1.467 1.73 2.604.645 1.142.645 1.619.718 2.396.079.777.463 4.522.485 4.78.03.264.439 1.164.541 1.729.118.565-.05 1.004-.329 1.345-.279.346-.343 1.243-.3 2.236.05.993-.309 1.081-.418 1.565-.111.484-.404 1.195-.61 1.796-.191.598-.616 1.059-1.2 1.59-.574.533-1.439 1.826-1.439 1.826s.175.718.206.979c.03.256.102 1.039.13 1.246.018.209.018 1.206-.161 1.592-.167.384.229 1.183.322 1.592.096.412.031.786-.203 1.072-.237.286-.462.622-.689.96-.226.341-.191 1.175-.705 2.381-.504 1.206-.279.819-.469 1.101-.174.279-.41.618-.41.618l-.915 1.247s.461 2.946 1.172 6.393c.718 3.442 1.869 9.095 1.767 15.251-.109 6.154 1.349 15.295 2.242 19.454.897 4.163 4.192 12.331 4.319 12.529.123.197.96.688 1.824.863.851.177 2.084.368 2.999 1.112.914.748 3.291 2.397 5.094 3.103 1.803.708 4.032 2.057 5.36 3.182 1.328 1.126 2.807 3.285 4.573 5.205 1.765 1.917 2.955 2.691 4.127 3.989 1.186 1.297 4.035 3.475 4.678 4.615.645 1.144-.204 2.696-1.422 3.558-1.233.857-3.256.066-4.993-.544-1.744-.611-4.251-3.084-4.874-4.015-.618-.934-3.152-3.095-3.774-3.607-.632-.513-2.69-.67-3.148-.415-.439.252-.279.815-.261 1.547.029.737.497 2.786.518 5.039.022 2.259.597 7.346.786 8.22.19.87.66 2.867.938 4.572.279 1.705 1.128 7.496 1.307 9.211.173 1.715.482 6.826.303 7.686-.173.858-1.529 1.939-2.805 1.807-1.268-.132-1.826-1.39-2.251-3.023-.424-1.639-.922-4.95-1.657-7.499-.731-2.546-1.606-5.502-1.863-7.526-.261-2.019-1.626-5.28-1.626-5.28s-.922 25.385-1.64 26.037c-.719.652-1.044.917-2.084 1.129-1.025.206-1.846-.128-2.391-.388-.446-.209-.636-20.072-1.157-24.55-.118-1.122-.946-1.887-1.054-1.877-.514.051-3.022 21.108-4.223 21.23-1.188.121-2.346 0-3.366-1.694-.71-1.176 1.081-20.541 1.081-20.541s-.118.382-.368.983c-.258.602-.777 2.228-1.762 4.956-.979 2.723-1.719 6.856-2.155 8.319-.422 1.458-1.529 2.466-2.242 2.643-.718.181-1.289-.736-1.978-1.823-.69-1.084-.44-1.977-.236-3.048.207-1.07.938-5.051 1.408-6.568.475-1.517.886-5.857.864-6.062 0 0 .017-.897-.028-3.881-.039-2.992-1.349-7.056-1.919-9.099-.575-2.04-.647-5.812-.647-7.336.008-1.523-.132-3.867-.38-6.415-.267-2.548-2.155-11.807-3.14-15.324-.988-3.523-4.434-14.144-6.032-20.069-1.605-5.927-3.474-17.071-3.474-17.071l-.507-.371s-.629-.513-.908-.642c-.279-.13-.637-.618-.821-.913-.191-.294-.361-.384-.705-.665-.344-.278-.321-.595-.586-1.149-.262-.548-.293-.859-.761-1.234-.455-.37-.536-2.727-.659-4.971-.127-2.246 1.12-4.471 1.12-4.471s-1.229-1.243-2.015-2.262c-.79-1.022-1.335-2.228-2.184-4.449-.857-2.221-1.101-5.138-1.107-6.711 0-1.576-.844-4.742-.96-5.836-.109-1.091.731-3.121.659-3.848-.075-.726-.382-3.739-.059-6.186.338-2.45-.654-2.822-1.123-5.394-.313-1.7-.544-3.226-.63-4.807-.046-.818-.064-1.649-.007-2.532.147-2.587.286-5.909.594-8.042.019-.147.017-.335.03-.49.187-2.124-.161-5.105.536-7.912.731-3.018 2.155-7.206 2.717-8.832.565-1.635.258-5.226.608-6.89.361-1.658.661-6.414 1.158-9.774.5-3.355 2.648-16.808 3.431-22.025.779-5.229.426-12.799.346-14.105-.08-1.306.123-5.945.836-10.372.703-4.436-.828-9.685-1.093-11.81-.279-2.117-.629-6.078-.754-8.373-.125-2.294-.066-9.916.095-10.929.16-1.011.409-7.285.996-10.812.588-3.518-1.005-6.299-1.509-9.134-.497-2.836-3.145-7.242-3.754-8.489-.588-1.251.148-2.8.354-3.818.212-1.019 1.749-3.431 2.658-4.782.917-1.356 2.543-2.885 2.632-3.046.09-.17.229-.867.604-2.325.379-1.453-.193-3.966-.911-6.891-.718-2.918-1.222-5.808-2.016-8.45-.8-2.649-1.693-11.429-1.75-14.576-.054-3.146 1.947-4.084 2.996-5.66 1.049-1.576 3.518-5.13 4.376-7.059.85-1.919 1.167-9.676 1.175-11.139.004-1.475 2.007-6.036 2.388-8.491.382-2.449.207-19.174.278-22.491.069-2.541.102-8.692.391-13.121 10.721-9.381 22.727-18.333 36.052-26.041-.012 1.299.011 2.497.174 3.83.313 2.595 1.838 13.986 2.046 17.014.206 3.02.431 5.259 1.149 9.224.727 3.963 2.038 9.189 2.542 11.553.501 2.364.09 6.604-.086 8.405-.192 1.806.183 3.393.783 6.695.597 3.297 1.607 5.972 2.152 7.703.539 1.732.203 3.08.818 3.447.618.359.829-1.672 1.306-3.19.477-1.517 1.685-5.102 2.594-7.029.901-1.928 2.125-2.794 2.691-3.954.563-1.158 3.05-10.282 4.626-15.427 1.569-5.156 4.617-13.915 6.347-17.03 1.731-3.115 4.824-6.738 5.139-8.871.302-2.124 1.194-8.255 2.008-12.168.543-2.616 2.225-5.065 3.39-6.712 12.954 6.365 24.721 13.839 35.32 21.83-.171 1.058-.355 2.148-.511 3.252-.498 3.403-2.199 13.974-2.227 16.236"><animate id="maos1" attributeName="opacity" from="0" to="0.5" dur="1s" begin="melinha_meio.end" /><animate id="maos2" attributeName="opacity" from="0.5" to="1" dur="1s" begin="maos1.end" /><animate id="maos_meio" attributeName="opacity" from="1" to="1" dur="2s" begin="maos1.end" /><animate id="maos3" attributeName="opacity" from="1" to="0.5" dur="1s" begin="maos2.end" /><animate id="maos4" attributeName="opacity" from="0.5" to="0" dur="1s" begin="maos3.end" /></path>
<path fill="#514d4c" d="M145.812 302.2417c-1.625.447-3.306.58-5.058.403-1.751-.179-3.22-.406-4.401-.695-3.165-.762-6.209-1.969-9.112-3.609-2.918-1.646-5.488-3.557-7.72-5.732-2.234-2.179-4.077-4.593-5.535-7.246-1.454-2.653-2.334-5.376-2.653-8.173-.297-2.653-.079-4.958.666-6.904.745-1.949 1.758-3.727 3.05-5.332 1.295-1.607 2.703-3.182 4.228-4.737 1.521-1.548 2.927-3.197 4.204-4.949 1.275-1.749 2.27-3.739 2.98-5.977.706-2.234.888-4.896.541-7.975-.509-4.519-1.955-8.235-4.336-11.14-2.382-2.915-5.25-4.773-8.615-5.582-3.165-.766-5.482-.418-6.951 1.042-1.469 1.457-2.05 3.55-1.743 6.277.206 1.86.754 3.544 1.628 5.046.874 1.504 1.92 2.8 3.133 3.898 1.213 1.092 2.535 2.002 3.965 2.729 1.425.73 2.833 1.261 4.22 1.593-.045 1.316-.313 2.367-.801 3.156-.49.789-1.113 1.354-1.876 1.693-.765.341-1.611.503-2.541.485-.933-.014-1.831-.126-2.682-.333-1.716-.415-3.491-1.207-5.32-2.381-1.834-1.171-3.524-2.664-5.072-4.466-1.555-1.802-2.883-3.922-3.99-6.348-1.107-2.429-1.822-5.081-2.149-7.946-.369-3.3-.127-5.962.736-7.984.86-2.026 2.164-3.542 3.913-4.552 1.743-1.01 3.845-1.529 6.315-1.561 2.464-.035 5.111.289 7.946.972 3.562.859 7.084 2.234 10.563 4.119 3.487 1.887 6.637 4.228 9.454 7.036 2.818 2.809 5.191 6.069 7.114 9.775 1.924 3.707 3.144 7.82 3.653 12.336.436 3.874.267 7.074-.501 9.606-.771 2.538-1.86 4.699-3.258 6.489-1.402 1.79-2.977 3.33-4.724 4.616-1.745 1.287-3.347 2.609-4.792 3.972-1.448 1.358-2.605 2.889-3.471 4.602-.866 1.708-1.146 3.892-.849 6.542.365 3.227 1.461 5.847 3.293 7.855 1.83 2.014 4.13 3.353 6.895 4.022 2.773.668 4.601.406 5.493-.772.892-1.178 1.237-2.7 1.021-4.563-.199-1.793-.812-3.666-1.833-5.623-1.022-1.955-2.241-3.522-3.66-4.703 1.019-1.215 2.449-1.604 4.295-1.159 2.506.603 4.6 2.105 6.281 4.498 1.677 2.391 2.702 5.164 3.052 8.318.333 2.944-.014 5.122-1.036 6.553-1.027 1.428-2.347 2.364-3.96 2.809M230.2642 282.7456c-.285-2.512-.848-5.485-1.684-8.93-.838-3.447-1.966-6.789-3.391-10.028-1.422-3.238-3.145-6.111-5.158-8.62-2.014-2.508-4.304-4.068-6.877-4.693-1.119-.268-1.947-.206-2.48.191-.532.389-.865.849-.997 1.378l9.233 31.52c1.118 1.947 2.351 3.518 3.708 4.714 1.352 1.198 2.588 1.937 3.71 2.205.459.109.963.162 1.504.153.548-.009 1.034-.259 1.457-.747.425-.492.754-1.284.985-2.382.226-1.096.226-2.682-.01-4.761m11.5 15.38c-.939 1.063-2.119 1.705-3.535 1.92-1.417.215-2.953.126-4.599-.271-2.506-.604-4.743-1.564-6.721-2.874-1.973-1.313-3.766-2.829-5.368-4.543l2.491 8.45-14.241-3.433-11.853-40.316h-.006c-1.033-2.901-2.325-5.409-3.877-7.526-1.555-2.123-3.289-3.409-5.202-3.868-1.384-.333-2.373-.298-2.965.12-.598.409-.807 1.372-.636 2.879.121 1.078.383 2.256.783 3.54l11.25 38.282-14.238-3.43-10.623-36.148c-1.033-2.9-2.311-5.405-3.83-7.514-1.522-2.113-3.239-3.397-5.149-3.859-1.125-.268-1.846-.026-2.179.731-.333.755-.424 1.745-.289 2.966.104.931.318 1.955.64 3.08l11.243 38.286-14.235-3.436-10.626-36.145c-.835-2.853-1.36-5.244-1.577-7.178-.51-4.516.138-7.555 1.955-9.103 1.81-1.552 4.198-1.972 7.166-1.255 1.053.257 2.19.652 3.403 1.19 1.213.536 2.491 1.313 3.824 2.332 1.331 1.018 2.718 2.347 4.152 3.986 1.437 1.634 2.903 3.716 4.41 6.238-.053-3.291.662-5.593 2.152-6.906 1.487-1.319 3.642-1.635 6.484-.951 1.316.317 2.855.897 4.615 1.743 1.764.845 3.631 2.182 5.603 4.019 1.207 1.128 2.432 2.484 3.672 4.062l-10.131-34.443 15.366 7.473 8.102 27.48c.415-.878 1.219-1.552 2.42-2.034 1.192-.478 3.044-.415 5.546.188 3.165.762 6.053 2.052 8.665 3.868 2.605 1.817 4.914 3.925 6.916 6.327 2.001 2.397 3.759 5.052 5.273 7.964 1.516 2.912 2.812 5.874 3.892 8.889 1.078 3.014 1.92 5.955 2.535 8.826.612 2.87 1.059 5.52 1.33 7.958.368 3.227.356 5.841-.027 7.84-.385 1.999-1.044 3.53-1.981 4.596M262.3111 287.6123c1.11 2.764 2.314 5.293 3.599 7.581 1.283 2.288 2.59 4.219 3.924 5.785 1.331 1.572 2.623 2.511 3.874 2.812.925.221 1.519-.015 1.796-.716.274-.694.336-1.725.183-3.076-.245-2.14-.856-4.322-1.847-6.536-.986-2.22-2.228-4.267-3.723-6.156-1.499-1.887-3.177-3.542-5.033-4.958-1.86-1.423-3.755-2.438-5.681-3.042.824 2.771 1.793 5.535 2.908 8.306m55.457 32.453c-1.977-.48-4.084-1.687-6.322-3.616-2.24-1.94-4.428-4.142-6.565-6.606l2.149 7.107-14.235-3.433-10.678-36.316c-1.372-1.737-2.732-3.391-4.087-4.961-1.401-1.628-2.847-3.094-4.339-4.392-1.493-1.304-3.062-2.429-4.714-3.383-1.643-.963-3.456-1.675-5.432-2.152-2.376-.572-4.087-.412-5.14.486-1.051.9-1.375 3.176-.963 6.83.074.648.168 1.331.279 2.055.118.727.251 1.493.406 2.297 2.981.924 5.895 2.311 8.75 4.151 2.86 1.84 5.451 3.998 7.774 6.477 2.322 2.476 4.257 5.193 5.803 8.146 1.544 2.953 2.487 5.939 2.829 8.947.156 1.364.153 2.618-.006 3.766-.159 1.148-.598 2.108-1.314 2.876-.715.769-1.748 1.269-3.096 1.499-1.355.232-3.118.088-5.294-.439-3.36-.809-6.436-2.178-9.215-4.104-2.782-1.925-5.285-4.204-7.505-6.83-2.223-2.629-4.172-5.456-5.861-8.48-1.691-3.017-3.104-6.029-4.244-9.02-1.138-2.997-2.057-5.871-2.749-8.621-.695-2.743-1.163-5.158-1.399-7.239-.685-6.095.227-10.131 2.75-12.101 2.521-1.975 6.133-2.393 10.847-1.257 3.294.795 6.356 2.093 9.188 3.889 2.832 1.802 5.477 3.901 7.926 6.31 2.364 2.314 4.537 4.816 6.524 7.498l-3.598-12.235 14.241 3.433 12.524 42.778c1.461 1.604 2.8 2.938 4.007 4.001 1.214 1.057 2.441 1.74 3.696 2.04.727.177 1.133-.079 1.215-.75.082-.681.177-1.408.28-2.185.109-.774.365-1.463.78-2.061.415-.598 1.313-.73 2.694-.398 1.19.289 2.252.769 3.198 1.452.939.683 1.749 1.469 2.428 2.367.681.892 1.216 1.843 1.619 2.847.401 1.004.658 1.97.76 2.903.236 2.081-.13 3.804-1.095 5.176-.968 1.369-2.57 1.787-4.816 1.248"/>
<path fill="#fff" d="M144.0367 304.3174c-1.616.444-3.3.58-5.051.403-1.753-.179-3.221-.409-4.408-.697-3.165-.763-6.2-1.967-9.109-3.61-2.912-1.643-5.488-3.554-7.72-5.732-2.234-2.179-4.077-4.593-5.526-7.246-1.457-2.65-2.34-5.376-2.656-8.173-.302-2.653-.082-4.952.66-6.901.745-1.949 1.758-3.727 3.053-5.332 1.293-1.61 2.702-3.182 4.225-4.734a44.1735 44.1735 0 0 0 4.204-4.952c1.277-1.752 2.269-3.739 2.98-5.977.712-2.234.892-4.895.541-7.978-.509-4.516-1.955-8.232-4.334-11.144-2.381-2.908-5.252-4.769-8.614-5.579-3.165-.765-5.482-.415-6.951 1.042-1.47 1.461-2.056 3.554-1.746 6.277.212 1.867.754 3.548 1.628 5.046.875 1.505 1.917 2.8 3.133 3.899 1.215 1.092 2.535 2.005 3.965 2.732 1.429.73 2.833 1.26 4.22 1.593-.045 1.315-.313 2.367-.799 3.153-.485.792-1.116 1.357-1.878 1.696-.765.338-1.61.5-2.541.485-.933-.015-1.825-.129-2.682-.335-1.716-.413-3.489-1.207-5.32-2.379-1.829-1.175-3.524-2.662-5.073-4.464-1.548-1.807-2.879-3.924-3.986-6.353-1.107-2.429-1.825-5.078-2.149-7.946-.371-3.297-.129-5.959.733-7.985.866-2.025 2.164-3.538 3.913-4.548 1.742-1.01 3.848-1.528 6.315-1.563 2.464-.036 5.114.291 7.952.974 3.554.86 7.078 2.232 10.563 4.119 3.481 1.884 6.631 4.231 9.449 7.04 2.82 2.805 5.19 6.061 7.115 9.774 1.926 3.703 3.144 7.813 3.654 12.33.435 3.874.27 7.077-.504 9.612-.771 2.535-1.857 4.693-3.258 6.486-1.402 1.787-2.974 3.327-4.72 4.613-1.749 1.29-3.344 2.609-4.794 3.975-1.447 1.36-2.608 2.888-3.47 4.602-.866 1.708-1.152 3.889-.851 6.545.365 3.227 1.463 5.844 3.291 7.852 1.832 2.01 4.128 3.353 6.901 4.019 2.768.665 4.596.409 5.491-.769.892-1.178 1.234-2.7 1.025-4.563-.203-1.796-.819-3.669-1.841-5.624-1.021-1.954-2.237-3.521-3.65-4.699 1.013-1.221 2.444-1.61 4.29-1.162 2.499.603 4.593 2.102 6.276 4.495 1.679 2.391 2.7 5.167 3.056 8.323.333 2.936-.015 5.12-1.042 6.551-1.024 1.425-2.344 2.361-3.96 2.809M228.4888 284.8213c-.276-2.512-.842-5.488-1.678-8.933-.839-3.447-1.969-6.789-3.391-10.025-1.425-3.235-3.148-6.115-5.159-8.617-2.013-2.511-4.306-4.075-6.874-4.696-1.125-.271-1.949-.206-2.479.188-.532.392-.868.852-1.001 1.381l9.236 31.523c1.116 1.943 2.353 3.512 3.703 4.711 1.352 1.195 2.594 1.931 3.713 2.205.462.109.963.159 1.508.15.541-.009 1.027-.256 1.454-.748.424-.485.751-1.28.984-2.376.226-1.098.223-2.681-.016-4.763m11.504 15.38c-.937 1.066-2.114 1.704-3.534 1.919-1.418.216-2.952.127-4.601-.27-2.503-.601-4.746-1.564-6.722-2.877-1.975-1.313-3.765-2.826-5.367-4.54l2.491 8.45-14.235-3.433-11.859-40.314h-.006c-1.033-2.906-2.322-5.411-3.877-7.531-1.555-2.117-3.289-3.407-5.199-3.868-1.381-.333-2.376-.291-2.968.121-.592.418-.807 1.377-.636 2.881.123 1.078.382 2.256.782 3.54l11.253 38.282-14.241-3.433-10.618-36.148c-1.037-2.897-2.315-5.403-3.834-7.513-1.522-2.111-3.238-3.395-5.149-3.854-1.12-.271-1.846-.03-2.179.727-.333.757-.427 1.746-.288 2.965.102.933.318 1.958.636 3.085l11.252 38.28-14.244-3.433-10.619-36.142c-.836-2.856-1.364-5.246-1.582-7.184-.512-4.516.139-7.551 1.955-9.1 1.808-1.555 4.202-1.97 7.166-1.254 1.055.256 2.194.65 3.407 1.186 1.215.536 2.488 1.313 3.822 2.337 1.333 1.017 2.717 2.341 4.15 3.981 1.438 1.637 2.909 3.716 4.411 6.242-.05-3.292.668-5.594 2.152-6.91 1.487-1.317 3.648-1.631 6.483-.948 1.316.318 2.853.901 4.622 1.74 1.761.845 3.624 2.184 5.597 4.021 1.213 1.125 2.435 2.486 3.672 4.064l-10.131-34.447 15.365 7.472 8.108 27.484c.41-.88 1.22-1.558 2.415-2.035 1.195-.476 3.043-.415 5.552.189 3.159.763 6.047 2.052 8.658 3.868 2.606 1.814 4.915 3.922 6.914 6.324 2.004 2.4 3.762 5.055 5.281 7.964 1.511 2.915 2.809 5.874 3.889 8.891 1.079 3.015 1.926 5.956 2.539 8.824.606 2.871 1.053 5.52 1.325 7.961.365 3.224.355 5.838-.028 7.84-.382 1.999-1.045 3.53-1.98 4.596M260.5396 289.6851c1.115 2.767 2.314 5.296 3.601 7.584 1.28 2.288 2.59 4.216 3.924 5.788 1.33 1.566 2.621 2.505 3.877 2.809.918.22 1.52-.018 1.793-.716.268-.697.333-1.725.18-3.076-.241-2.144-.857-4.322-1.846-6.539-.99-2.214-2.226-4.267-3.724-6.157-1.496-1.887-3.174-3.538-5.035-4.958-1.858-1.422-3.753-2.431-5.676-3.038.824 2.768 1.79 5.538 2.906 8.303m55.461 32.453c-1.979-.477-4.086-1.681-6.323-3.616-2.238-1.937-4.429-4.139-6.566-6.606l2.149 7.11-14.238-3.436-10.678-36.313a150.9355 150.9355 0 0 0-4.08-4.958c-1.405-1.634-2.854-3.094-4.346-4.398-1.496-1.298-3.065-2.429-4.708-3.383-1.649-.96-3.462-1.675-5.438-2.152-2.373-.569-4.087-.409-5.14.491-1.051.895-1.375 3.171-.957 6.828.071.645.162 1.331.28 2.055.111.724.247 1.489.4 2.296 2.979.928 5.894 2.309 8.75 4.149 2.859 1.84 5.45 3.998 7.773 6.48 2.319 2.476 4.257 5.19 5.806 8.146 1.544 2.953 2.49 5.936 2.826 8.947.156 1.361.153 2.618-.003 3.763-.159 1.151-.595 2.108-1.31 2.879-.719.766-1.749 1.269-3.103 1.502-1.355.226-3.118.085-5.294-.442-3.359-.81-6.43-2.175-9.212-4.104-2.785-1.925-5.287-4.201-7.508-6.83-2.22-2.63-4.172-5.456-5.861-8.48-1.684-3.02-3.104-6.029-4.243-9.023-1.139-2.997-2.055-5.868-2.749-8.615-.696-2.75-1.164-5.164-1.393-7.243-.69-6.094.226-10.13 2.744-12.1 2.523-1.978 6.138-2.393 10.846-1.257 3.297.792 6.359 2.093 9.191 3.889 2.83 1.799 5.473 3.901 7.926 6.307 2.361 2.317 4.534 4.816 6.524 7.498l-3.594-12.235 14.231 3.432 12.53 42.779c1.463 1.61 2.797 2.941 4.014 4.004 1.203 1.057 2.438 1.737 3.689 2.043.723.174 1.127-.08 1.212-.756.083-.678.18-1.405.283-2.179.103-.78.365-1.467.777-2.067.416-.595 1.313-.73 2.7-.395 1.184.286 2.249.769 3.189 1.452.945.68 1.752 1.469 2.431 2.364.68.895 1.217 1.843 1.623 2.85.401 1.001.657 1.97.759 2.903.235 2.078-.132 3.803-1.095 5.178-.971 1.37-2.576 1.785-4.814 1.243"/>
<path fill="#514d4c" d="M151.6656 213.5259c-1.431 1.071-3.304 1.77-5.619 2.093-2.316.324-5.139.096-8.47-.679-4.301-1-8.523-2.685-12.664-5.053-4.144-2.37-7.892-5.125-11.244-8.267-3.353-3.144-6.127-6.488-8.321-10.031-2.195-3.542-3.5-7.023-3.913-10.439-.406-3.352.173-5.5 1.736-6.444 1.563-.946 3.859-1.067 6.889-.362-.043.184-.126.404-.251.661-.127.258-.226.618-.296 1.082-.072.46-.126 1.053-.163 1.781-.039.723.015 1.679.158 2.861.492 4.073 1.602 7.763 3.332 11.072 1.727 3.307 3.805 6.202 6.229 8.681 2.426 2.481 5.048 4.527 7.87 6.141 2.821 1.615 5.569 2.732 8.241 3.354 2.186.509 4.002.644 5.45.406 1.445-.238 2.58-.74 3.401-1.506.822-.767 1.383-1.738 1.684-2.913.301-1.174.368-2.453.201-3.833-.222-1.839-.798-3.793-1.725-5.86-.927-2.068-2.072-3.994-3.436-5.78-1.364-1.787-2.893-3.355-4.587-4.707-1.695-1.352-3.45-2.239-5.268-2.662l-.545-.127 6.919 22.873-13.732-5.112-19.988-65.566 13.119 3.053 12.039 39.485c.867.329 1.697.601 2.491.819.793.215 1.371.367 1.735.452 1.641.381 2.982.374 4.026-.022 1.046-.394 1.832-1.091 2.36-2.084.528-.995.839-2.217.93-3.663.089-1.448.033-3.026-.174-4.733-.231-1.908-.623-3.929-1.176-6.069-.555-2.139-1.3-4.167-2.237-6.075-.937-1.911-2.051-3.575-3.341-4.992-1.29-1.419-2.753-2.316-4.389-2.697-1.03-.241-1.981-.207-2.857.1-.876.307-1.809.984-2.801 2.031-1.05-2.351-1.674-4.349-1.872-5.992-.183-1.51-.045-2.676.416-3.494.46-.819 1.096-1.388 1.912-1.71.813-.32 1.739-.458 2.776-.407 1.036.05 2.038.187 3.007.412 3.816.888 7.123 2.662 9.916 5.324 2.795 2.662 5.144 5.652 7.046 8.967 1.902 3.316 3.37 6.674 4.398 10.074 1.03 3.402 1.687 6.284 1.974 8.648.222 1.839.242 3.585.059 5.235-.184 1.649-.613 3.08-1.29 4.297-.679 1.215-1.635 2.172-2.875 2.874-1.239.701-2.805 1.024-4.696.967 3.191 2.529 5.73 5.388 7.616 8.572 1.887 3.184 3.01 6.256 3.368 9.212.246 2.036.103 3.903-.426 5.601-.531 1.696-1.512 3.079-2.942 4.151M188.9883 203.439c-1.817-.423-3.76-1.514-5.827-3.272-2.067-1.759-4.091-3.762-6.069-6.009l2.022 6.504-13.083-3.045-15.594-51.518 13.083 3.045 11.801 39.143c1.355 1.464 2.589 2.675 3.708 3.639 1.117.962 2.251 1.577 3.402 1.845.666.155 1.036-.079 1.107-.698.071-.624.153-1.292.244-2.004.09-.714.323-1.347.697-1.898.375-.551 1.198-.677 2.47-.381 1.091.253 2.07.687 2.94 1.306.87.617 1.618 1.334 2.246 2.151.63.816 1.131 1.682 1.508 2.601.376.917.616 1.803.719 2.658.23 1.905-.093 3.489-.97 4.755-.878 1.263-2.345 1.657-4.404 1.178M214.627 178.1812c-.479-1.518-1.055-2.879-1.73-4.09-.678-1.212-1.423-2.264-2.237-3.155-.815-.893-1.623-1.608-2.423-2.144-.802-.539-1.536-.884-2.202-1.039-.424-.098-.887-.159-1.389-.18-.503-.02-.952.162-1.347.549-.394.387-.697 1.05-.906 1.993-.211.939-.2 2.361.031 4.268.278 2.299.908 5.08 1.892 8.342.982 3.261 2.189 6.415 3.618 9.462 1.427 3.046 3.046 5.722 4.856 8.026 1.809 2.304 3.683 3.682 5.623 4.133.726.17 1.298.159 1.716-.03.419-.19.741-.451.965-.782.226-.331.388-.692.488-1.082.098-.394.133-.722.102-.984l-7.057-23.287zm19.737-1.441c-1.441-1.933-3.04-3.103-4.796-3.511-1.273-.296-2.18-.253-2.721.134-.543.383-.729 1.266-.562 2.646.119.985.367 2.064.745 3.238l10.687 35.051-13.173-3.066-1.47-4.842c-.047 1.074-.286 1.896-.717 2.467-.433.57-.975.954-1.626 1.154-.653.197-1.383.253-2.187.161-.807-.092-1.574-.221-2.3-.39-2.666-.622-5.14-1.724-7.42-3.308-2.282-1.585-4.41-3.484-6.385-5.7-1.976-2.217-3.742-4.655-5.301-7.315-1.558-2.662-2.916-5.373-4.074-8.132-1.159-2.761-2.105-5.471-2.838-8.131-.736-2.661-1.237-5.109-1.507-7.342-.358-2.957-.326-5.361.099-7.208.423-1.851 1.135-3.266 2.135-4.245 1-.982 2.176-1.586 3.533-1.812 1.356-.226 2.821-.157 4.396.209 1.636.381 3.151.989 4.548 1.824 1.395.835 2.706 1.811 3.93 2.926 1.224 1.114 2.358 2.336 3.402 3.665 1.044 1.328 1.965 2.628 2.768 3.901.021-2.743.717-4.656 2.087-5.741 1.369-1.086 3.295-1.34 5.779-.762 1.21.282 2.623.769 4.238 1.466 1.616.695 3.328 1.843 5.142 3.447 1.812 1.601 3.662 3.757 5.551 6.465 1.885 2.703 3.709 6.21 5.467 10.513l-3.817-.887c-.969-2.654-2.174-4.946-3.613-6.875"/>
<path fill="#514d4c" d="M262.9263 191.3355c-.955-3.032-2.354-5.465-4.193-7.297-1.842-1.834-3.428-2.904-4.76-3.214-.424-.099-.888-.159-1.391-.18-.504-.022-.952.162-1.345.548-.396.386-.7 1.05-.908 1.992-.211.94-.199 2.363.032 4.269.262 2.168.871 4.767 1.827 7.801.954 3.031 2.133 5.956 3.533 8.772 1.401 2.816 2.997 5.309 4.792 7.484 1.792 2.172 3.657 3.484 5.597 3.935 1.392.325 2.291.086 2.695-.713.402-.801.6-1.489.59-2.065l-6.469-21.332zm-8.814-29.061c-.963-3.096-2.018-5.481-3.162-7.152-1.143-1.67-2.201-2.62-3.169-2.846-1.031-.239-1.759-.056-2.186.546-.428.604-.597 1.266-.51 1.989.119.985.47 1.946 1.055 2.878.584.936 1.326 1.842 2.228 2.723.9.879 1.93 1.727 3.088 2.538 1.158.813 2.34 1.583 3.547 2.31l-.891-2.986zm24.195 21.529c-2.033-2.451-4.508-4.529-7.42-6.227l14.528 47.821-13.083-3.044-1.469-4.843c-.039 1.14-.276 1.978-.71 2.515-.437.537-.982.906-1.633 1.106-.655.197-1.383.254-2.188.161-.805-.092-1.572-.222-2.299-.391-2.666-.62-5.135-1.69-7.409-3.209-2.274-1.519-4.391-3.336-6.354-5.454-1.964-2.118-3.718-4.441-5.259-6.969-1.542-2.531-2.885-5.111-4.026-7.738-1.145-2.629-2.072-5.192-2.786-7.687-.714-2.499-1.198-4.797-1.453-6.899-.357-2.957-.326-5.361.099-7.209.424-1.849 1.135-3.265 2.136-4.243.999-.981 2.176-1.587 3.533-1.812 1.354-.228 2.82-.158 4.396.208 2.664.62 5 1.801 7.007 3.546 2.006 1.744 3.783 3.658 5.33 5.743l-2.739-8.78c-1.768-.986-3.58-2.092-5.436-3.323-1.857-1.23-3.568-2.602-5.132-4.116-1.569-1.516-2.901-3.165-3.999-4.953-1.101-1.789-1.773-3.7-2.02-5.737-.39-3.219.319-5.386 2.127-6.497 1.809-1.112 4.106-1.345 6.892-.697 1.513.353 3.116.935 4.802 1.741 1.687.809 3.345 1.992 4.977 3.552 1.632 1.563 3.198 3.571 4.703 6.028 1.504 2.457 2.804 5.537 3.9 9.24l2.222 7.413c1.441.718 2.963 1.631 4.57 2.739 1.604 1.108 3.218 2.522 4.84 4.239 1.62 1.718 3.183 3.806 4.687 6.264 1.503 2.456 2.909 5.432 4.216 8.93l-3.817-.888c-1.789-4.567-3.701-8.078-5.733-10.53"/>
<path fill="#514d4c" d="M308.481 200.02c-.479-1.517-1.056-2.879-1.731-4.09-.678-1.212-1.422-2.263-2.236-3.154-.816-.894-1.623-1.609-2.424-2.145-.802-.539-1.535-.883-2.201-1.039-.424-.098-.888-.159-1.39-.179-.502-.021-.952.162-1.346.548-.395.387-.698 1.05-.906 1.993-.211.939-.201 2.362.03 4.269.278 2.299.909 5.08 1.891 8.341.984 3.261 2.192 6.416 3.62 9.463 1.427 3.045 3.045 5.722 4.855 8.025 1.809 2.304 3.684 3.683 5.623 4.134.727.169 1.299.159 1.717-.03.419-.191.74-.451.966-.782.223-.331.387-.693.487-1.083.098-.394.133-.722.101-.984l-7.056-23.287zm8.447 28.209c-.047 1.074-.287 1.897-.717 2.467-.432.57-.975.954-1.626 1.154-.655.197-1.383.254-2.189.161-.805-.092-1.571-.221-2.298-.39-2.666-.621-5.139-1.723-7.421-3.308-2.282-1.585-4.409-3.484-6.384-5.7-1.976-2.216-3.744-4.655-5.301-7.315-1.558-2.661-2.916-5.373-4.074-8.132-1.16-2.76-2.105-5.47-2.839-8.13-.735-2.662-1.236-5.11-1.506-7.343-.358-2.957-.327-5.361.098-7.208.423-1.85 1.135-3.266 2.136-4.244.998-.982 2.176-1.587 3.532-1.812 1.356-.226 2.822-.158 4.398.209 1.635.38 3.15.989 4.546 1.823 1.396.836 2.706 1.812 3.931 2.926 1.223 1.114 2.358 2.337 3.401 3.665 1.044 1.328 1.966 2.628 2.768 3.901.014-2.807.696-4.835 2.045-6.084 1.35-1.252 3.266-1.587 5.75-1.009 1.211.281 2.28.721 3.206 1.32.925.599 1.771 1.385 2.538 2.363.765.976 1.511 2.155 2.239 3.539.724 1.379 1.494 2.995 2.307 4.845-.577-.389-1.259-.676-2.047-.858-1.271-.296-2.178-.253-2.72.133-.542.383-.73 1.266-.563 2.646.119.985.368 2.065.745 3.239l10.597 35.029-13.083-3.044-1.469-4.843z"/>
<path fill="#fff" d="M149.9971 215.1616c-1.431 1.071-3.304 1.77-5.618 2.094-2.317.322-5.14.096-8.471-.679-4.302-1.001-8.523-2.686-12.664-5.054-4.143-2.37-7.892-5.126-11.244-8.268-3.353-3.143-6.127-6.487-8.321-10.029-2.196-3.543-3.499-7.025-3.913-10.44-.406-3.352.172-5.5 1.736-6.444 1.564-.946 3.859-1.066 6.889-.361-.042.182-.125.402-.252.66-.125.258-.224.618-.295 1.081-.072.462-.125 1.055-.162 1.781-.04.724.013 1.68.156 2.863.493 4.072 1.604 7.763 3.332 11.07 1.728 3.308 3.806 6.203 6.23 8.682 2.426 2.48 5.048 4.526 7.87 6.141 2.822 1.614 5.569 2.733 8.241 3.354 2.187.509 4.003.645 5.449.406 1.446-.238 2.58-.74 3.401-1.507.824-.766 1.385-1.737 1.685-2.913.302-1.174.368-2.451.201-3.832-.223-1.839-.798-3.793-1.725-5.86-.927-2.069-2.072-3.995-3.436-5.78-1.365-1.787-2.894-3.355-4.587-4.707-1.695-1.352-3.45-2.24-5.268-2.663l-.545-.127 6.918 22.874-13.731-5.112-19.987-65.566 13.119 3.054 12.039 39.484c.865.328 1.696.601 2.489.819.794.215 1.373.367 1.737.452 1.64.381 2.98.373 4.026-.022 1.046-.395 1.831-1.091 2.36-2.085.528-.995.838-2.215.929-3.662.09-1.449.032-3.026-.175-4.733-.23-1.908-.622-3.929-1.174-6.069-.555-2.14-1.3-4.167-2.237-6.076-.938-1.911-2.053-3.575-3.341-4.991-1.292-1.419-2.754-2.316-4.39-2.697-1.03-.24-1.982-.207-2.856.101-.876.307-1.811.983-2.801 2.03-1.051-2.352-1.674-4.349-1.873-5.992-.183-1.511-.046-2.676.415-3.494.461-.819 1.098-1.389 1.913-1.71.814-.321 1.739-.457 2.776-.408 1.035.051 2.038.188 3.008.413 3.816.888 7.122 2.663 9.916 5.324 2.794 2.662 5.142 5.651 7.045 8.967 1.902 3.316 3.369 6.674 4.398 10.074 1.03 3.401 1.688 6.284 1.975 8.648.222 1.84.241 3.584.059 5.234-.184 1.649-.614 3.081-1.29 4.297-.679 1.215-1.637 2.173-2.876 2.875-1.238.701-2.804 1.024-4.695.967 3.19 2.528 5.729 5.388 7.616 8.572 1.886 3.184 3.009 6.255 3.366 9.212.247 2.036.105 3.903-.426 5.601-.531 1.695-1.512 3.08-2.941 4.151M187.3194 205.0737c-1.817-.423-3.759-1.513-5.827-3.271-2.067-1.759-4.09-3.762-6.069-6.01l2.024 6.505-13.083-3.044-15.596-51.518 13.083 3.044 11.801 39.142c1.355 1.464 2.59 2.676 3.709 3.64 1.116.962 2.25 1.577 3.402 1.846.666.154 1.035-.08 1.106-.7.071-.623.155-1.291.245-2.003.09-.714.322-1.347.697-1.898.374-.55 1.198-.678 2.47-.382 1.09.253 2.07.688 2.94 1.306.869.617 1.619 1.335 2.246 2.152.63.816 1.131 1.683 1.507 2.602.377.916.616 1.802.72 2.656.23 1.905-.094 3.49-.971 4.755-.878 1.265-2.345 1.657-4.404 1.178M212.959 179.8159c-.479-1.516-1.055-2.879-1.731-4.09-.678-1.211-1.422-2.263-2.236-3.153-.815-.895-1.623-1.61-2.423-2.145-.803-.539-1.535-.883-2.201-1.039-.424-.098-.889-.159-1.391-.179-.502-.022-.951.162-1.347.547-.393.387-.697 1.051-.905 1.993-.211.94-.201 2.363.03 4.269.278 2.299.909 5.08 1.892 8.342.983 3.26 2.191 6.415 3.619 9.462 1.427 3.046 3.046 5.722 4.855 8.026 1.809 2.303 3.683 3.683 5.623 4.134.726.169 1.298.159 1.717-.031.418-.191.74-.45.966-.782.225-.33.387-.692.487-1.083.097-.394.132-.721.101-.983l-7.056-23.288zm19.737-1.441c-1.442-1.932-3.041-3.101-4.796-3.509-1.272-.297-2.18-.253-2.722.132-.542.383-.729 1.267-.562 2.647.119.984.368 2.064.745 3.238l10.688 35.051-13.174-3.065-1.469-4.844c-.047 1.074-.287 1.897-.717 2.467-.433.57-.976.954-1.627 1.154-.653.198-1.382.254-2.187.161-.806-.091-1.572-.221-2.299-.39-2.666-.621-5.139-1.723-7.421-3.308-2.282-1.585-4.409-3.484-6.384-5.699-1.976-2.217-3.743-4.655-5.301-7.316-1.558-2.661-2.916-5.372-4.074-8.132-1.16-2.759-2.105-5.47-2.839-8.13-.735-2.662-1.236-5.11-1.506-7.342-.358-2.957-.327-5.362.098-7.209.424-1.85 1.135-3.266 2.136-4.243.999-.983 2.176-1.587 3.533-1.813 1.355-.226 2.82-.158 4.396.208 1.635.381 3.151.99 4.547 1.824 1.397.836 2.706 1.812 3.931 2.927 1.224 1.114 2.357 2.336 3.401 3.665 1.044 1.328 1.966 2.627 2.769 3.901.021-2.742.717-4.656 2.086-5.741 1.37-1.087 3.295-1.339 5.779-.761 1.211.281 2.624.768 4.239 1.464 1.616.696 3.327 1.843 5.142 3.448 1.812 1.602 3.661 3.757 5.551 6.464 1.885 2.704 3.708 6.21 5.466 10.514l-3.816-.888c-.97-2.653-2.175-4.945-3.613-6.875"/>
<path fill="#fff" d="M261.2583 192.9702c-.956-3.032-2.354-5.465-4.194-7.296-1.841-1.834-3.427-2.905-4.759-3.215-.424-.098-.888-.158-1.391-.18-.504-.022-.952.162-1.346.548-.395.388-.699 1.051-.907 1.994-.211.939-.2 2.362.031 4.269.262 2.168.871 4.767 1.828 7.799.954 3.031 2.133 5.956 3.533 8.772 1.4 2.817 2.997 5.31 4.792 7.485 1.792 2.173 3.657 3.484 5.597 3.935 1.392.325 2.291.086 2.695-.714.401-.8.599-1.488.589-2.065l-6.468-21.332zm-8.814-29.06c-.963-3.097-2.019-5.482-3.162-7.152-1.144-1.67-2.201-2.62-3.17-2.846-1.031-.24-1.759-.056-2.184.546-.429.604-.598 1.267-.511 1.989.119.986.47 1.945 1.055 2.878.584.936 1.326 1.842 2.227 2.722.901.88 1.931 1.727 3.089 2.538 1.157.814 2.34 1.583 3.546 2.311l-.89-2.986zm24.195 21.53c-2.034-2.453-4.508-4.53-7.42-6.229l14.528 47.822-13.083-3.044-1.469-4.843c-.039 1.14-.277 1.978-.711 2.516-.437.537-.981.904-1.632 1.105-.654.198-1.383.253-2.188.16-.806-.09-1.572-.222-2.3-.391-2.666-.62-5.135-1.69-7.407-3.208-2.275-1.519-4.393-3.337-6.356-5.454-1.964-2.118-3.716-4.441-5.258-6.97-1.543-2.531-2.886-5.11-4.026-7.736-1.145-2.63-2.073-5.192-2.786-7.688-.716-2.498-1.199-4.798-1.454-6.9-.357-2.957-.326-5.36.1-7.207.424-1.85 1.135-3.265 2.136-4.245.999-.981 2.176-1.586 3.533-1.812 1.354-.228 2.82-.158 4.396.21 2.664.62 4.999 1.8 7.006 3.546 2.007 1.743 3.783 3.657 5.331 5.741l-2.74-8.779c-1.767-.986-3.579-2.093-5.435-3.323-1.856-1.23-3.569-2.603-5.133-4.117-1.569-1.514-2.901-3.165-3.999-4.952-1.1-1.789-1.773-3.701-2.02-5.738-.39-3.219.32-5.386 2.127-6.497 1.81-1.111 4.106-1.343 6.893-.695 1.513.352 3.115.933 4.802 1.74 1.687.809 3.344 1.993 4.977 3.552 1.631 1.563 3.198 3.57 4.703 6.028 1.504 2.457 2.804 5.537 3.9 9.241l2.221 7.412c1.441.718 2.963 1.632 4.571 2.74 1.604 1.106 3.218 2.52 4.839 4.238 1.62 1.719 3.184 3.805 4.688 6.263 1.503 2.456 2.908 5.434 4.215 8.93l-3.816-.888c-1.789-4.567-3.702-8.077-5.733-10.528"/>
<path fill="#fff" d="M306.812 201.6558c-.479-1.517-1.055-2.879-1.73-4.09-.677-1.211-1.423-2.264-2.237-3.154-.815-.894-1.623-1.609-2.423-2.145-.801-.538-1.536-.883-2.202-1.038-.424-.098-.887-.159-1.388-.18-.504-.022-.953.162-1.347.548-.395.387-.698 1.051-.906 1.992-.211.941-.201 2.363.03 4.269.278 2.299.908 5.08 1.892 8.343.982 3.26 2.19 6.414 3.618 9.462 1.427 3.046 3.046 5.721 4.856 8.026 1.809 2.303 3.684 3.682 5.623 4.133.727.169 1.299.159 1.717-.031.419-.19.74-.45.965-.781.224-.331.387-.692.487-1.083.099-.395.134-.721.102-.983l-7.057-23.288zm8.447 28.209c-.047 1.073-.286 1.896-.718 2.467-.431.57-.973.953-1.625 1.154-.653.198-1.382.253-2.187.161-.807-.091-1.573-.221-2.3-.391-2.666-.621-5.139-1.723-7.42-3.308-2.282-1.584-4.41-3.484-6.385-5.698-1.976-2.218-3.743-4.656-5.301-7.317-1.558-2.661-2.916-5.371-4.074-8.131-1.159-2.76-2.105-5.47-2.838-8.131-.736-2.661-1.237-5.11-1.507-7.342-.358-2.957-.326-5.361.099-7.208.423-1.851 1.135-3.266 2.135-4.244.999-.983 2.176-1.586 3.533-1.813 1.356-.226 2.822-.158 4.396.209 1.637.381 3.151.989 4.548 1.824 1.395.835 2.706 1.811 3.93 2.926a29.9498 29.9498 0 0 1 3.402 3.666c1.044 1.327 1.965 2.627 2.768 3.901.013-2.809.695-4.836 2.045-6.085 1.35-1.252 3.266-1.588 5.75-1.01 1.209.282 2.28.723 3.206 1.321.925.599 1.771 1.384 2.537 2.362.765.976 1.511 2.156 2.238 3.539.726 1.38 1.496 2.997 2.309 4.846-.577-.388-1.26-.676-2.047-.858-1.272-.296-2.179-.253-2.72.133-.543.383-.73 1.266-.563 2.646.119.985.366 2.064.745 3.238l10.597 35.031-13.083-3.045-1.47-4.843z"/>
<path fill="#514d4c" d="M273.2632 156.6255c-.623-.145-1.18-.508-1.673-1.089-.49-.582-.778-1.21-.86-1.886-.081-.674.067-1.197.442-1.567.378-.368.877-.48 1.5-.336.622.145 1.183.504 1.683 1.077s.792 1.198.873 1.873c.082.676-.07 1.201-.455 1.58-.385.376-.888.493-1.51.348M288.2818 159.6587c-.405-.462-.821-.877-1.251-1.245-.43-.369-.881-.688-1.353-.956-.472-.271-.991-.47-1.557-.602-.678-.157-1.187-.106-1.521.153-.336.257-.44.908-.314 1.949.101.835.317 1.788.648 2.856.331 1.069.72 2.091 1.169 3.068.449.976.935 1.823 1.462 2.541.527.717 1.034 1.132 1.526 1.247.526.123.746-.192.655-.941-.032-.263-.115-.609-.249-1.035a8.0333 8.0333 0 0 0-.489-1.207c.155-.083.336-.13.546-.14.209-.01.389.002.54.039.415.095.797.419 1.148.966.351.549.571 1.203.663 1.959.039.327.033.644-.022.949-.055.306-.185.557-.389.758-.205.203-.501.332-.888.391-.386.059-.891.016-1.514-.129-.961-.225-1.836-.605-2.626-1.147-.789-.542-1.503-1.185-2.145-1.931a14.751 14.751 0 0 1-1.678-2.402c-.479-.858-.89-1.713-1.232-2.569-.341-.854-.614-1.674-.819-2.456-.206-.784-.343-1.471-.415-2.064-.211-1.74.04-2.895.75-3.464.709-.571 1.732-.7 3.072-.389.942.22 1.82.583 2.633 1.09.813.508 1.572 1.102 2.278 1.783.705.681 1.353 1.418 1.944 2.211.591.793 1.128 1.594 1.611 2.404l-.962-.225c-.41-.513-.818-1-1.221-1.462"/>
<path fill="#514d4c" d="M298.937 169.5777c-.276-.164-.512-.402-.705-.716-.193-.313-.317-.684-.369-1.114-.037-.307-.018-.566.057-.776.076-.211.259-.324.551-.335-.221-.927-.493-1.805-.813-2.635-.321-.83-.661-1.56-1.022-2.191-.359-.63-.733-1.144-1.121-1.543-.388-.398-.75-.635-1.09-.714-.263-.062-.486-.08-.666-.051-.179.026-.315.119-.406.277-.092.158-.141.39-.148.696-.01.306.016.715.079 1.226.091.757.299 1.646.624 2.665.325 1.021.711 2.005 1.155 2.953.445.948.93 1.777 1.455 2.486.525.708 1.043 1.122 1.552 1.24.358.084.601.016.732-.202.128-.219.174-.641.135-1.266m5.968 1.27a16.193 16.193 0 0 0-1.204-.863c-.409-.264-.812-.492-1.209-.683-.4-.193-.759-.327-1.079-.402-.133-.03-.236-.044-.309-.041.351 3.202-.662 4.528-3.038 3.975-.981-.229-1.869-.613-2.668-1.157-.8-.544-1.523-1.189-2.173-1.938-.649-.747-1.218-1.55-1.707-2.409-.488-.859-.91-1.724-1.262-2.59-.352-.868-.631-1.693-.836-2.475-.204-.784-.342-1.471-.415-2.065-.106-.879-.083-1.6.07-2.16.152-.562.401-.99.75-1.287.349-.296.791-.467 1.327-.511.535-.044 1.132.01 1.792.163.868.202 1.714.609 2.539 1.218.826.609 1.589 1.389 2.29 2.337.701.949 1.318 2.04 1.853 3.279.536 1.236.946 2.584 1.233 4.043 1.04.42 2.025.952 2.955 1.597.931.644 1.706 1.346 2.33 2.108l-.153.769c-.329-.296-.691-.598-1.086-.908"/>
<path fill="#514d4c" d="M319.107 177.6997c-.263-.062-.555-.158-.874-.293-.317-.133-.659-.332-1.019-.595-.362-.263-.743-.605-1.142-1.025-.4-.422-.803-.958-1.212-1.609-.034.925-.287 1.528-.758 1.806-.469.279-1.082.329-1.836.154-.491-.115-1.051-.348-1.68-.704-.629-.355-1.29-.971-1.982-1.847l.504 1.667-4.073-.949-4.855-16.037 4.073.949 3.116 10.295c.3.825.678 1.564 1.134 2.216.454.653.954 1.043 1.501 1.171.321.074.525-.012.616-.261.089-.247.112-.544.07-.892a3.9874 3.9874 0 0 0-.178-.786l-3.345-11.066 4.072.948 3.116 10.296c.301.825.674 1.558 1.118 2.198.444.639.92 1.019 1.43 1.137.679.159.955-.284.829-1.327-.06-.49-.197-1.094-.412-1.81-.215-.717-.446-1.451-.692-2.203a78.532 78.532 0 0 1-.698-2.235c-.217-.737-.357-1.36-.419-1.872-.051-.429-.056-.843-.011-1.24.043-.398.153-.734.331-1.012.176-.276.438-.469.782-.578.344-.109.788-.1 1.336.027.754.176 1.458.583 2.114 1.223.654.64 1.114 1.526 1.38 2.663-.185-.163-.504-.297-.956-.402-.434-.101-.716-.053-.848.145-.133.199-.174.492-.127.88.052.43.188.983.407 1.659.219.679.458 1.4.715 2.166.257.765.503 1.538.734 2.317.232.779.385 1.476.46 2.09.148 1.227-.041 2.042-.57 2.446-.529.403-1.245.501-2.151.29"/>
<path fill="#fff" d="M272.7437 157.1343c-.623-.146-1.18-.509-1.671-1.089-.491-.582-.779-1.21-.86-1.886-.082-.674.066-1.197.442-1.566.376-.37.875-.482 1.498-.337.622.145 1.184.504 1.685 1.077.499.573.791 1.198.873 1.873.081.676-.071 1.201-.455 1.579-.386.377-.89.494-1.512.349M287.7622 160.1675c-.404-.462-.821-.877-1.251-1.246-.429-.368-.88-.687-1.352-.955-.473-.27-.992-.47-1.557-.602-.679-.158-1.186-.107-1.521.153-.337.258-.441.908-.315 1.949.101.835.318 1.789.648 2.856a25.543 25.543 0 0 0 1.169 3.068c.449.975.936 1.823 1.463 2.542.527.715 1.034 1.132 1.525 1.247.527.122.747-.194.656-.943-.032-.263-.114-.608-.25-1.033-.134-.426-.296-.829-.488-1.208.154-.083.336-.129.545-.14.209-.011.39.002.541.038.415.096.797.419 1.148.967.351.549.571 1.202.663 1.958.04.328.032.645-.021.95-.057.305-.186.558-.391.759-.204.202-.501.33-.888.39-.386.059-.889.016-1.512-.13-.962-.224-1.838-.604-2.627-1.147-.789-.541-1.504-1.184-2.145-1.93a14.7324 14.7324 0 0 1-1.678-2.402c-.48-.858-.89-1.714-1.233-2.569-.341-.855-.614-1.674-.819-2.456-.206-.784-.342-1.471-.414-2.065-.21-1.739.039-2.894.749-3.463.709-.57 1.734-.7 3.073-.389.942.219 1.82.583 2.633 1.09.813.507 1.571 1.102 2.278 1.783.704.68 1.352 1.418 1.944 2.212.591.793 1.127 1.593 1.61 2.402l-.961-.224c-.411-.513-.819-1.001-1.222-1.462"/>
<path fill="#fff" d="M298.4185 170.0855c-.277-.163-.512-.401-.706-.715-.192-.313-.316-.685-.368-1.115-.037-.307-.019-.566.057-.776.076-.211.258-.324.55-.334-.221-.928-.492-1.804-.812-2.635-.322-.83-.662-1.561-1.022-2.191-.36-.63-.734-1.144-1.122-1.543-.387-.398-.75-.635-1.089-.714-.264-.062-.487-.08-.667-.051-.179.027-.314.12-.405.277-.091.158-.141.39-.149.697-.009.304.017.714.079 1.225.092.758.3 1.645.625 2.665s.71 2.005 1.155 2.952c.444.948.93 1.778 1.455 2.487.524.707 1.043 1.122 1.552 1.24.358.084.601.015.731-.202.129-.219.174-.642.136-1.267m5.967 1.271a15.515 15.515 0 0 0-1.204-.863c-.407-.263-.811-.491-1.209-.683-.4-.193-.759-.327-1.079-.402-.133-.03-.236-.044-.308-.041.351 3.202-.662 4.527-3.038 3.974-.981-.228-1.87-.612-2.668-1.157-.8-.544-1.523-1.189-2.173-1.937a14.9646 14.9646 0 0 1-1.708-2.409c-.488-.858-.909-1.724-1.261-2.589-.352-.868-.631-1.694-.836-2.476-.204-.784-.343-1.471-.416-2.065-.106-.879-.083-1.6.07-2.161.152-.562.402-.989.752-1.286.348-.297.791-.467 1.326-.512.534-.043 1.133.011 1.793.164.867.202 1.712.609 2.538 1.218.825.608 1.588 1.389 2.29 2.336.701.949 1.319 2.041 1.853 3.279.536 1.237.945 2.585 1.232 4.043 1.041.422 2.025.953 2.956 1.598.93.644 1.707 1.345 2.33 2.108l-.153.769c-.33-.296-.692-.598-1.087-.908"/>
<path fill="#fff" d="M318.5884 178.2095c-.264-.062-.555-.16-.875-.294-.317-.133-.657-.332-1.019-.595-.362-.263-.742-.605-1.141-1.026-.401-.421-.803-.957-1.212-1.608-.035.925-.287 1.528-.758 1.806-.47.279-1.082.328-1.836.154-.491-.115-1.052-.349-1.68-.704-.63-.355-1.291-.971-1.983-1.848l.505 1.668-4.073-.949-4.855-16.037 4.073.948 3.115 10.296c.301.826.678 1.565 1.135 2.216.454.653.955 1.043 1.502 1.17.321.075.525-.012.614-.259.089-.248.112-.544.07-.893a4.0104 4.0104 0 0 0-.177-.787l-3.345-11.066 4.073.949 3.114 10.296c.301.826.675 1.558 1.118 2.199.445.638.921 1.017 1.431 1.136.678.159.954-.285.828-1.328-.06-.49-.196-1.093-.412-1.81-.215-.716-.445-1.449-.692-2.202-.247-.754-.479-1.498-.697-2.236-.218-.736-.356-1.36-.419-1.872-.051-.428-.056-.843-.011-1.239.043-.398.152-.735.33-1.012.176-.276.438-.469.782-.578.345-.108.79-.099 1.338.027.753.176 1.458.583 2.112 1.223.654.639 1.114 1.526 1.381 2.662-.186-.162-.503-.296-.956-.401-.434-.102-.717-.053-.849.146-.132.197-.174.49-.127.879.052.429.188.983.408 1.66.219.678.458 1.4.715 2.164.257.766.503 1.539.734 2.318.232.779.385 1.476.459 2.09.148 1.227-.041 2.043-.57 2.447-.529.403-1.245.5-2.15.29"/>
</g>
</svg>





